{"glyphs":{"0":{"ha":925,"x_min":60,"x_max":867,"o":"m 463 -18 q 158 101 256 -18 q 60 463 60 219 q 158 824 60 706 q 463 943 256 943 q 768 824 669 943 q 867 463 867 706 q 768 101 867 219 q 463 -18 669 -18 m 463 164 q 590 225 542 164 q 638 463 638 286 q 590 699 638 638 q 463 761 542 761 q 337 699 385 761 q 289 463 289 638 q 337 225 289 286 q 463 164 385 164 z "},"1":{"ha":653,"x_min":82,"x_max":486,"o":"m 261 0 l 261 710 l 82 608 l 82 808 l 288 926 l 486 926 l 486 0 l 261 0 z "},"2":{"ha":844,"x_min":97,"x_max":746,"o":"m 746 206 l 746 0 l 97 0 l 97 158 q 278 291 183 208 q 438 465 374 374 q 503 628 503 556 q 460 734 503 699 q 343 769 417 769 q 227 743 282 769 q 106 667 172 717 l 106 858 q 411 944 246 944 q 646 870 564 944 q 728 660 728 796 q 676 486 728 568 q 553 341 625 404 q 381 206 481 278 l 746 206 z "},"3":{"ha":826,"x_min":100,"x_max":729,"o":"m 371 -11 q 100 61 239 -11 l 100 253 q 237 183 178 207 q 361 158 296 158 q 487 188 442 158 q 532 272 532 218 q 357 394 532 394 l 219 394 l 219 564 l 360 564 q 458 591 425 564 q 490 661 490 618 q 448 740 490 715 q 338 765 406 765 q 237 753 288 765 q 118 708 186 740 l 118 879 q 235 923 172 907 q 360 939 297 939 q 594 875 499 939 q 689 686 689 811 q 666 597 689 638 q 610 533 643 557 q 551 503 578 508 q 634 458 593 490 q 702 376 675 426 q 729 261 729 325 q 627 56 729 124 q 371 -11 525 -11 z "},"4":{"ha":847,"x_min":54,"x_max":796,"o":"m 453 0 l 453 249 l 54 249 l 54 410 l 469 926 l 679 926 l 679 418 l 796 418 l 796 249 l 679 249 l 679 0 l 453 0 m 246 418 l 453 418 l 453 675 l 246 418 z "},"5":{"ha":831,"x_min":113,"x_max":772,"o":"m 449 625 q 680 549 588 625 q 772 315 772 472 q 665 60 772 136 q 390 -17 557 -17 q 231 5 306 -17 q 114 57 157 26 l 114 267 q 221 197 153 226 q 361 167 289 167 q 495 203 447 167 q 543 299 543 239 q 501 401 543 369 q 390 433 458 433 q 284 419 333 433 q 213 392 235 406 l 113 503 l 171 928 l 697 928 l 697 732 l 314 732 l 296 608 q 449 625 364 625 z "},"6":{"ha":868,"x_min":61,"x_max":807,"o":"m 486 607 q 807 297 807 606 q 764 135 807 206 q 635 24 721 64 q 425 -17 550 -17 q 61 428 61 -17 q 202 838 61 732 q 519 944 343 944 q 721 910 640 944 l 721 722 q 632 753 675 743 q 536 764 589 764 q 363 701 428 764 q 288 514 297 638 q 486 607 364 606 m 442 167 q 547 206 513 167 q 581 301 581 246 q 545 407 581 371 q 447 443 510 443 q 293 344 329 443 q 342 203 306 240 q 442 167 379 167 z "},"7":{"ha":822,"x_min":93,"x_max":760,"o":"m 93 926 l 760 926 l 760 796 l 431 0 l 185 0 l 508 721 l 93 721 l 93 926 z "},"8":{"ha":876,"x_min":60,"x_max":818,"o":"m 439 -17 q 156 58 251 -17 q 60 261 60 132 q 107 400 60 347 q 217 479 154 453 q 126 553 165 506 q 86 678 86 600 q 174 876 86 808 q 439 944 261 944 q 704 876 617 944 q 792 678 792 808 q 752 551 792 599 q 661 481 713 504 q 771 399 724 453 q 818 261 818 346 q 722 58 818 132 q 439 -17 626 -17 m 439 544 q 524 574 486 544 q 561 656 561 603 q 526 737 561 706 q 439 768 492 768 q 351 737 386 768 q 317 656 317 706 q 354 574 317 603 q 439 544 392 544 m 439 158 q 548 201 515 158 q 581 299 581 244 q 543 383 581 347 q 439 418 506 418 q 335 383 372 418 q 297 299 297 347 q 330 201 297 244 q 439 158 363 158 z "},"9":{"ha":872,"x_min":61,"x_max":807,"o":"m 424 944 q 715 833 622 944 q 807 500 807 721 q 666 90 807 196 q 349 -17 525 -17 q 147 18 228 -17 l 147 206 q 237 174 194 185 q 332 164 279 164 q 506 227 442 164 q 581 413 571 290 q 382 321 504 322 q 61 632 61 322 q 103 793 61 722 q 228 904 146 864 q 424 944 310 944 m 422 485 q 575 583 539 485 q 525 724 563 688 q 424 761 488 761 q 322 722 354 761 q 289 626 289 682 q 324 522 289 558 q 422 485 360 485 z "},"\u0000":{"ha":0,"x_min":0,"x_max":0,"o":""},"\r":{"ha":383,"x_min":0,"x_max":0,"o":""}," ":{"ha":383,"x_min":0,"x_max":0,"o":""},"A":{"ha":960,"x_min":18,"x_max":942,"o":"m 711 0 l 643 200 l 297 200 l 231 0 l 18 0 l 368 926 l 614 926 l 942 0 l 711 0 m 353 365 l 588 365 l 469 715 l 353 365 z "},"Á":{"ha":960,"x_min":18,"x_max":942,"o":"m 711 0 l 643 200 l 297 200 l 231 0 l 18 0 l 368 926 l 614 926 l 942 0 l 711 0 m 353 365 l 588 365 l 469 715 l 353 365 m 426 999 l 476 1156 l 693 1156 l 529 999 l 426 999 z "},"Ă":{"ha":960,"x_min":18,"x_max":942,"o":"m 711 0 l 643 200 l 297 200 l 231 0 l 18 0 l 368 926 l 614 926 l 942 0 l 711 0 m 353 365 l 588 365 l 469 715 l 353 365 m 481 974 q 271 1158 304 974 l 386 1158 q 421 1101 397 1125 q 481 1078 444 1078 q 574 1158 544 1078 l 690 1158 q 628 1024 681 1074 q 481 974 576 974 z "},"Ắ":{"ha":960,"x_min":18,"x_max":942,"o":"m 711 0 l 643 200 l 297 200 l 231 0 l 18 0 l 368 926 l 614 926 l 942 0 l 711 0 m 353 365 l 588 365 l 469 715 l 353 365 m 481 981 q 271 1165 304 981 l 386 1165 q 421 1108 397 1132 q 481 1085 444 1085 q 574 1165 544 1085 l 690 1165 q 628 1031 681 1081 q 481 981 576 981 m 421 1203 l 471 1360 l 688 1360 l 524 1203 l 421 1203 z "},"Ặ":{"ha":960,"x_min":18,"x_max":942,"o":"m 711 0 l 643 200 l 297 200 l 231 0 l 18 0 l 368 926 l 614 926 l 942 0 l 711 0 m 353 365 l 588 365 l 469 715 l 353 365 m 406 -208 l 406 -69 l 556 -69 l 556 -208 l 406 -208 m 481 974 q 271 1158 304 974 l 386 1158 q 421 1101 397 1125 q 481 1078 444 1078 q 574 1158 544 1078 l 690 1158 q 628 1024 681 1074 q 481 974 576 974 z "},"Ằ":{"ha":960,"x_min":18,"x_max":942,"o":"m 711 0 l 643 200 l 297 200 l 231 0 l 18 0 l 368 926 l 614 926 l 942 0 l 711 0 m 353 365 l 588 365 l 469 715 l 353 365 m 481 981 q 271 1165 304 981 l 386 1165 q 421 1108 397 1132 q 481 1085 444 1085 q 574 1165 544 1085 l 690 1165 q 628 1031 681 1081 q 481 981 576 981 m 426 1188 l 272 1360 l 475 1360 l 539 1188 l 426 1188 z "},"Ẳ":{"ha":960,"x_min":18,"x_max":942,"o":"m 711 0 l 643 200 l 297 200 l 231 0 l 18 0 l 368 926 l 614 926 l 942 0 l 711 0 m 353 365 l 588 365 l 469 715 l 353 365 m 475 981 q 265 1165 299 981 l 381 1165 q 415 1108 392 1132 q 475 1085 439 1085 q 568 1165 539 1085 l 685 1165 q 623 1031 675 1081 q 475 981 571 981 m 428 1267 q 465 1278 451 1268 q 479 1300 479 1288 q 421 1333 479 1333 q 379 1329 403 1333 l 379 1410 q 460 1417 410 1417 q 572 1390 529 1417 q 615 1308 615 1364 q 594 1246 615 1269 q 536 1221 574 1222 l 536 1188 l 428 1188 l 428 1267 z "},"Ẵ":{"ha":960,"x_min":18,"x_max":942,"o":"m 711 0 l 643 200 l 297 200 l 231 0 l 18 0 l 368 926 l 614 926 l 942 0 l 711 0 m 353 365 l 588 365 l 469 715 l 353 365 m 481 981 q 271 1165 304 981 l 386 1165 q 421 1108 397 1132 q 481 1085 444 1085 q 574 1165 544 1085 l 690 1165 q 628 1031 681 1081 q 481 981 576 981 m 233 1213 q 250 1310 231 1265 q 306 1381 269 1354 q 390 1407 343 1407 q 453 1394 425 1407 q 518 1356 482 1381 q 563 1327 544 1336 q 601 1318 582 1318 q 647 1400 653 1318 l 749 1400 q 706 1260 751 1313 q 593 1208 661 1208 q 515 1224 546 1208 q 447 1265 483 1239 q 410 1290 422 1283 q 382 1297 397 1297 q 340 1272 354 1297 q 329 1213 326 1247 l 233 1213 z "},"Ǎ":{"ha":960,"x_min":18,"x_max":942,"o":"m 711 0 l 643 200 l 297 200 l 231 0 l 18 0 l 368 926 l 614 926 l 942 0 l 711 0 m 353 365 l 588 365 l 469 715 l 353 365 m 396 972 l 283 1140 l 415 1140 l 475 1060 l 535 1140 l 667 1140 l 565 972 l 396 972 z "},"Â":{"ha":960,"x_min":18,"x_max":942,"o":"m 711 0 l 643 200 l 297 200 l 231 0 l 18 0 l 368 926 l 614 926 l 942 0 l 711 0 m 353 365 l 588 365 l 469 715 l 353 365 m 275 985 l 397 1153 l 565 1153 l 686 985 l 549 985 l 481 1067 l 413 985 l 275 985 z "},"Ấ":{"ha":960,"x_min":18,"x_max":942,"o":"m 711 0 l 643 200 l 297 200 l 231 0 l 18 0 l 368 926 l 614 926 l 942 0 l 711 0 m 353 365 l 588 365 l 469 715 l 353 365 m 276 988 l 399 1156 l 567 1156 l 688 988 l 550 988 l 482 1069 l 414 988 l 276 988 m 647 1089 l 697 1246 l 914 1246 l 750 1089 l 647 1089 z "},"Ậ":{"ha":960,"x_min":18,"x_max":942,"o":"m 711 0 l 643 200 l 297 200 l 231 0 l 18 0 l 368 926 l 614 926 l 942 0 l 711 0 m 353 365 l 588 365 l 469 715 l 353 365 m 406 -208 l 406 -69 l 556 -69 l 556 -208 l 406 -208 m 275 985 l 397 1153 l 565 1153 l 686 985 l 549 985 l 481 1067 l 413 985 l 275 985 z "},"Ầ":{"ha":960,"x_min":18,"x_max":942,"o":"m 711 0 l 643 200 l 297 200 l 231 0 l 18 0 l 368 926 l 614 926 l 942 0 l 711 0 m 353 365 l 588 365 l 469 715 l 353 365 m 285 988 l 407 1156 l 575 1156 l 696 988 l 558 988 l 490 1069 l 422 988 l 285 988 m 190 1088 l 56 1242 l 239 1242 l 304 1088 l 190 1088 z "},"Ẩ":{"ha":960,"x_min":18,"x_max":942,"o":"m 711 0 l 643 200 l 297 200 l 231 0 l 18 0 l 368 926 l 614 926 l 942 0 l 711 0 m 353 365 l 588 365 l 469 715 l 353 365 m 263 993 l 385 1161 l 553 1161 l 674 993 l 536 993 l 468 1075 l 400 993 l 263 993 m 646 1158 q 683 1169 669 1160 q 697 1192 697 1179 q 639 1225 697 1225 q 597 1221 621 1225 l 597 1301 q 678 1308 628 1308 q 790 1282 747 1308 q 833 1200 833 1256 q 813 1138 833 1161 q 754 1113 792 1114 l 754 1079 l 646 1079 l 646 1158 z "},"Ẫ":{"ha":960,"x_min":18,"x_max":942,"o":"m 711 0 l 643 200 l 297 200 l 231 0 l 18 0 l 368 926 l 614 926 l 942 0 l 711 0 m 353 365 l 588 365 l 469 715 l 353 365 m 283 971 l 406 1139 l 574 1139 l 694 971 l 557 971 l 489 1053 l 421 971 l 283 971 m 232 1199 q 249 1296 229 1251 q 305 1367 268 1340 q 389 1393 342 1393 q 452 1380 424 1393 q 517 1342 481 1367 q 562 1313 543 1322 q 600 1304 581 1304 q 646 1386 651 1304 l 747 1386 q 705 1247 750 1299 q 592 1194 660 1194 q 513 1210 544 1194 q 446 1251 482 1225 q 408 1276 421 1269 q 381 1283 396 1283 q 339 1258 353 1283 q 328 1199 325 1233 l 232 1199 z "},"Ȁ":{"ha":960,"x_min":18,"x_max":942,"o":"m 711 0 l 643 200 l 297 200 l 231 0 l 18 0 l 368 926 l 614 926 l 942 0 l 711 0 m 353 365 l 588 365 l 469 715 l 353 365 m 321 1000 l 186 1154 l 369 1154 l 435 1000 l 321 1000 m 558 1000 l 424 1154 l 607 1154 l 672 1000 l 558 1000 z "},"Ä":{"ha":960,"x_min":18,"x_max":942,"o":"m 711 0 l 643 200 l 297 200 l 231 0 l 18 0 l 368 926 l 614 926 l 942 0 l 711 0 m 353 365 l 588 365 l 469 715 l 353 365 m 260 976 l 260 1115 l 438 1115 l 438 976 l 260 976 m 514 976 l 514 1115 l 693 1115 l 693 976 l 514 976 z "},"Ȧ":{"ha":960,"x_min":18,"x_max":942,"o":"m 711 0 l 643 200 l 297 200 l 231 0 l 18 0 l 368 926 l 614 926 l 942 0 l 711 0 m 353 365 l 588 365 l 469 715 l 353 365 m 383 968 l 383 1107 l 551 1107 l 551 968 l 383 968 z "},"Ạ":{"ha":960,"x_min":18,"x_max":942,"o":"m 711 0 l 643 200 l 297 200 l 231 0 l 18 0 l 368 926 l 614 926 l 942 0 l 711 0 m 353 365 l 588 365 l 469 715 l 353 365 m 406 -208 l 406 -69 l 556 -69 l 556 -208 l 406 -208 z "},"À":{"ha":960,"x_min":18,"x_max":942,"o":"m 711 0 l 643 200 l 297 200 l 231 0 l 18 0 l 368 926 l 614 926 l 942 0 l 711 0 m 353 365 l 588 365 l 469 715 l 353 365 m 431 994 l 296 1149 l 479 1149 l 544 994 l 431 994 z "},"Ả":{"ha":960,"x_min":18,"x_max":942,"o":"m 711 0 l 643 200 l 297 200 l 231 0 l 18 0 l 368 926 l 614 926 l 942 0 l 711 0 m 353 365 l 588 365 l 469 715 l 353 365 m 413 1057 q 450 1068 436 1058 q 464 1090 464 1078 q 406 1124 464 1124 q 364 1119 388 1124 l 364 1200 q 444 1207 394 1207 q 557 1181 514 1207 q 600 1099 600 1154 q 579 1036 600 1060 q 521 1011 558 1013 l 521 978 l 413 978 l 413 1057 z "},"Ȃ":{"ha":960,"x_min":18,"x_max":942,"o":"m 711 0 l 643 200 l 297 200 l 231 0 l 18 0 l 368 926 l 614 926 l 942 0 l 711 0 m 353 365 l 588 365 l 469 715 l 353 365 m 481 1156 q 628 1106 576 1156 q 690 971 681 1056 l 574 971 q 481 1051 544 1051 q 421 1028 444 1051 q 386 971 397 1004 l 271 971 q 481 1156 304 1156 z "},"Ā":{"ha":960,"x_min":18,"x_max":942,"o":"m 711 0 l 643 200 l 297 200 l 231 0 l 18 0 l 368 926 l 614 926 l 942 0 l 711 0 m 353 365 l 588 365 l 469 715 l 353 365 m 283 989 l 283 1121 l 667 1121 l 667 989 l 283 989 z "},"Ą":{"ha":960,"x_min":18,"x_max":943,"o":"m 853 -157 q 943 -110 893 -157 l 943 -228 q 888 -252 917 -243 q 817 -261 860 -261 q 683 -228 726 -261 q 640 -128 640 -194 q 738 0 640 -57 l 711 0 l 643 200 l 297 200 l 231 0 l 18 0 l 368 926 l 614 926 l 942 0 l 939 0 q 841 -53 878 -25 q 804 -107 804 -81 q 817 -146 804 -135 q 853 -157 829 -157 m 353 365 l 588 365 l 469 715 l 353 365 z "},"Å":{"ha":960,"x_min":18,"x_max":942,"o":"m 643 200 l 297 200 l 231 0 l 18 0 l 368 926 l 436 926 q 345 967 376 935 q 314 1056 314 1000 q 356 1153 314 1119 q 479 1188 399 1188 q 602 1153 560 1188 q 644 1056 644 1119 q 613 967 644 1000 q 522 926 582 935 l 614 926 l 942 0 l 711 0 l 643 200 m 413 1056 q 428 1016 413 1028 q 479 1004 443 1004 q 531 1016 515 1004 q 546 1056 546 1028 q 531 1094 546 1083 q 479 1106 515 1106 q 428 1094 443 1106 q 413 1056 413 1083 m 353 365 l 588 365 l 469 715 l 353 365 z "},"Ǻ":{"ha":960,"x_min":18,"x_max":942,"o":"m 693 1396 l 529 1239 l 426 1239 l 476 1396 l 693 1396 m 643 200 l 297 200 l 231 0 l 18 0 l 368 926 l 436 926 q 345 967 376 935 q 314 1056 314 1000 q 356 1153 314 1119 q 479 1188 399 1188 q 602 1153 560 1188 q 644 1056 644 1119 q 613 967 644 1000 q 522 926 582 935 l 614 926 l 942 0 l 711 0 l 643 200 m 413 1056 q 428 1016 413 1028 q 479 1004 443 1004 q 531 1016 515 1004 q 546 1056 546 1028 q 531 1094 546 1083 q 479 1106 515 1106 q 428 1094 443 1106 q 413 1056 413 1083 m 353 365 l 588 365 l 469 715 l 353 365 z "},"Ã":{"ha":960,"x_min":18,"x_max":942,"o":"m 711 0 l 643 200 l 297 200 l 231 0 l 18 0 l 368 926 l 614 926 l 942 0 l 711 0 m 353 365 l 588 365 l 469 715 l 353 365 m 235 1000 q 251 1097 232 1053 q 308 1168 271 1142 q 392 1194 344 1194 q 455 1181 426 1194 q 519 1143 483 1168 q 565 1115 546 1124 q 603 1106 583 1106 q 649 1188 654 1106 l 750 1188 q 708 1048 753 1100 q 594 996 663 996 q 516 1011 547 996 q 449 1053 485 1026 q 411 1078 424 1071 q 383 1085 399 1085 q 342 1060 356 1085 q 331 1000 328 1035 l 235 1000 z "},"Æ":{"ha":1428,"x_min":18,"x_max":1339,"o":"m 1339 751 l 940 751 l 940 556 l 1283 556 l 1283 381 l 940 381 l 940 175 l 1339 175 l 1339 0 l 717 0 l 717 204 l 401 204 l 269 0 l 18 0 l 664 926 l 1339 926 l 1339 751 m 507 367 l 717 367 l 717 690 l 507 367 z "},"Ǽ":{"ha":1428,"x_min":18,"x_max":1339,"o":"m 1339 751 l 940 751 l 940 556 l 1283 556 l 1283 381 l 940 381 l 940 175 l 1339 175 l 1339 0 l 717 0 l 717 204 l 401 204 l 269 0 l 18 0 l 664 926 l 1339 926 l 1339 751 m 507 367 l 717 367 l 717 690 l 507 367 m 950 999 l 1000 1156 l 1217 1156 l 1053 999 l 950 999 z "},"B":{"ha":932,"x_min":99,"x_max":872,"o":"m 711 496 q 830 416 788 471 q 872 281 872 361 q 776 71 872 142 q 529 0 681 0 l 99 0 l 99 926 l 492 926 q 738 865 650 926 q 825 669 825 803 q 711 496 825 561 m 324 563 l 504 563 q 569 585 542 563 q 596 651 596 607 q 490 751 596 751 l 324 751 l 324 563 m 513 174 q 605 200 568 172 q 642 289 642 228 q 604 372 642 347 q 508 397 567 397 l 324 397 l 324 174 l 513 174 z "},"C":{"ha":875,"x_min":53,"x_max":803,"o":"m 508 -18 q 53 463 53 -18 q 508 947 53 947 q 803 879 649 947 l 803 683 q 539 772 669 772 q 348 701 411 772 q 285 463 285 629 q 349 226 285 296 q 549 157 414 157 q 669 178 604 157 q 803 243 735 199 l 803 47 q 664 0 746 18 q 508 -18 582 -18 z "},"Ć":{"ha":875,"x_min":53,"x_max":803,"o":"m 508 -18 q 53 463 53 -18 q 508 947 53 947 q 803 879 649 947 l 803 683 q 539 772 669 772 q 348 701 411 772 q 285 463 285 629 q 349 226 285 296 q 549 157 414 157 q 669 178 604 157 q 803 243 735 199 l 803 47 q 664 0 746 18 q 508 -18 582 -18 m 435 1028 l 485 1185 l 701 1185 l 538 1028 l 435 1028 z "},"Č":{"ha":875,"x_min":53,"x_max":803,"o":"m 508 -18 q 53 463 53 -18 q 508 947 53 947 q 803 879 649 947 l 803 683 q 539 772 669 772 q 348 701 411 772 q 285 463 285 629 q 349 226 285 296 q 549 157 414 157 q 669 178 604 157 q 803 243 735 199 l 803 47 q 664 0 746 18 q 508 -18 582 -18 m 404 1001 l 292 1169 l 424 1169 l 483 1089 l 543 1169 l 675 1169 l 574 1001 l 404 1001 z "},"Ç":{"ha":875,"x_min":53,"x_max":803,"o":"m 539 772 q 348 701 411 772 q 285 463 285 629 q 349 226 285 296 q 549 157 414 157 q 669 178 604 157 q 803 243 735 199 l 803 47 q 666 0 747 18 q 511 -18 585 -18 l 450 -169 l 264 -169 l 378 -7 q 53 463 53 57 q 508 947 53 947 q 803 879 649 947 l 803 683 q 539 772 669 772 z "},"Ĉ":{"ha":875,"x_min":53,"x_max":803,"o":"m 508 -18 q 53 463 53 -18 q 508 947 53 947 q 803 879 649 947 l 803 683 q 539 772 669 772 q 348 701 411 772 q 285 463 285 629 q 349 226 285 296 q 549 157 414 157 q 669 178 604 157 q 803 243 735 199 l 803 47 q 664 0 746 18 q 508 -18 582 -18 m 283 1014 l 406 1182 l 574 1182 l 694 1014 l 557 1014 l 489 1096 l 421 1014 l 283 1014 z "},"Ċ":{"ha":875,"x_min":53,"x_max":803,"o":"m 508 -18 q 53 463 53 -18 q 508 947 53 947 q 803 879 649 947 l 803 683 q 539 772 669 772 q 348 701 411 772 q 285 463 285 629 q 349 226 285 296 q 549 157 414 157 q 669 178 604 157 q 803 243 735 199 l 803 47 q 664 0 746 18 q 508 -18 582 -18 m 392 997 l 392 1136 l 560 1136 l 560 997 l 392 997 z "},"D":{"ha":988,"x_min":99,"x_max":929,"o":"m 99 926 l 471 926 q 817 810 704 926 q 929 463 929 694 q 817 116 929 232 q 471 0 704 0 l 99 0 l 99 926 m 444 174 q 635 244 571 174 q 699 463 699 315 q 635 683 699 613 q 444 753 571 753 l 324 753 l 324 174 l 444 174 z "},"Ǆ":{"ha":1868,"x_min":99,"x_max":1790,"o":"m 99 926 l 471 926 q 817 810 704 926 q 929 463 929 694 q 817 116 929 232 q 471 0 704 0 l 99 0 l 99 926 m 444 174 q 635 244 571 174 q 699 463 699 315 q 635 683 699 613 q 444 753 571 753 l 324 753 l 324 174 l 444 174 m 1790 926 l 1790 765 l 1346 175 l 1790 175 l 1790 0 l 1063 0 l 1063 164 l 1518 750 l 1069 750 l 1069 926 l 1790 926 m 1353 974 l 1240 1142 l 1372 1142 l 1432 1061 l 1492 1142 l 1624 1142 l 1522 974 l 1353 974 z "},"Ð":{"ha":988,"x_min":8,"x_max":929,"o":"m 471 926 q 817 810 704 926 q 929 463 929 694 q 817 116 929 232 q 471 0 704 0 l 99 0 l 99 400 l 8 400 l 8 526 l 99 526 l 99 926 l 471 926 m 444 174 q 635 244 571 174 q 699 463 699 315 q 635 683 699 613 q 444 753 571 753 l 324 753 l 324 526 l 425 526 l 425 400 l 324 400 l 324 174 l 444 174 z "},"Ď":{"ha":988,"x_min":99,"x_max":929,"o":"m 99 926 l 471 926 q 817 810 704 926 q 929 463 929 694 q 817 116 929 232 q 471 0 704 0 l 99 0 l 99 926 m 444 174 q 635 244 571 174 q 699 463 699 315 q 635 683 699 613 q 444 753 571 753 l 324 753 l 324 174 l 444 174 m 350 972 l 238 1140 l 369 1140 l 429 1060 l 489 1140 l 621 1140 l 519 972 l 350 972 z "},"Đ":{"ha":988,"x_min":8,"x_max":929,"o":"m 471 926 q 817 810 704 926 q 929 463 929 694 q 817 116 929 232 q 471 0 704 0 l 99 0 l 99 400 l 8 400 l 8 526 l 99 526 l 99 926 l 471 926 m 444 174 q 635 244 571 174 q 699 463 699 315 q 635 683 699 613 q 444 753 571 753 l 324 753 l 324 526 l 425 526 l 425 400 l 324 400 l 324 174 l 444 174 z "},"ǲ":{"ha":1671,"x_min":99,"x_max":1608,"o":"m 99 926 l 471 926 q 817 810 704 926 q 929 463 929 694 q 817 116 929 232 q 471 0 704 0 l 99 0 l 99 926 m 444 174 q 635 244 571 174 q 699 463 699 315 q 635 683 699 613 q 444 753 571 753 l 324 753 l 324 174 l 444 174 m 1608 703 l 1608 542 l 1301 165 l 1608 165 l 1608 0 l 1050 0 l 1050 164 l 1390 547 l 1058 547 l 1058 703 l 1608 703 z "},"ǅ":{"ha":1671,"x_min":99,"x_max":1608,"o":"m 99 926 l 471 926 q 817 810 704 926 q 929 463 929 694 q 817 116 929 232 q 471 0 704 0 l 99 0 l 99 926 m 444 174 q 635 244 571 174 q 699 463 699 315 q 635 683 699 613 q 444 753 571 753 l 324 753 l 324 174 l 444 174 m 1608 703 l 1608 542 l 1301 165 l 1608 165 l 1608 0 l 1050 0 l 1050 164 l 1390 547 l 1058 547 l 1058 703 l 1608 703 m 1254 783 l 1142 951 l 1274 951 l 1333 871 l 1393 951 l 1525 951 l 1424 783 l 1254 783 z "},"E":{"ha":824,"x_min":99,"x_max":733,"o":"m 99 0 l 99 926 l 733 926 l 733 753 l 324 753 l 324 551 l 679 551 l 679 376 l 324 376 l 324 174 l 733 174 l 733 0 l 99 0 z "},"É":{"ha":824,"x_min":99,"x_max":733,"o":"m 99 0 l 99 926 l 733 926 l 733 753 l 324 753 l 324 551 l 679 551 l 679 376 l 324 376 l 324 174 l 733 174 l 733 0 l 99 0 m 368 999 l 418 1156 l 635 1156 l 471 999 l 368 999 z "},"Ĕ":{"ha":824,"x_min":99,"x_max":733,"o":"m 99 0 l 99 926 l 733 926 l 733 753 l 324 753 l 324 551 l 679 551 l 679 376 l 324 376 l 324 174 l 733 174 l 733 0 l 99 0 m 422 974 q 213 1158 246 974 l 328 1158 q 363 1101 339 1125 q 422 1078 386 1078 q 515 1158 486 1078 l 632 1158 q 570 1024 622 1074 q 422 974 518 974 z "},"Ě":{"ha":824,"x_min":99,"x_max":733,"o":"m 99 0 l 99 926 l 733 926 l 733 753 l 324 753 l 324 551 l 679 551 l 679 376 l 324 376 l 324 174 l 733 174 l 733 0 l 99 0 m 338 972 l 225 1140 l 357 1140 l 417 1060 l 476 1140 l 608 1140 l 507 972 l 338 972 z "},"Ḝ":{"ha":824,"x_min":99,"x_max":733,"o":"m 422 974 q 213 1158 246 974 l 328 1158 q 363 1101 339 1125 q 422 1078 386 1078 q 515 1158 486 1078 l 632 1158 q 570 1024 622 1074 q 422 974 518 974 m 733 753 l 324 753 l 324 551 l 679 551 l 679 376 l 324 376 l 324 174 l 733 174 l 733 0 l 492 0 l 422 -169 l 236 -169 l 356 0 l 99 0 l 99 926 l 733 926 l 733 753 z "},"Ê":{"ha":824,"x_min":99,"x_max":733,"o":"m 99 0 l 99 926 l 733 926 l 733 753 l 324 753 l 324 551 l 679 551 l 679 376 l 324 376 l 324 174 l 733 174 l 733 0 l 99 0 m 217 985 l 339 1153 l 507 1153 l 628 985 l 490 985 l 422 1067 l 354 985 l 217 985 z "},"Ế":{"ha":824,"x_min":99,"x_max":856,"o":"m 99 0 l 99 926 l 733 926 l 733 753 l 324 753 l 324 551 l 679 551 l 679 376 l 324 376 l 324 174 l 733 174 l 733 0 l 99 0 m 218 988 l 340 1156 l 508 1156 l 629 988 l 492 988 l 424 1069 l 356 988 l 218 988 m 589 1089 l 639 1246 l 856 1246 l 692 1089 l 589 1089 z "},"Ệ":{"ha":824,"x_min":99,"x_max":733,"o":"m 99 0 l 99 926 l 733 926 l 733 753 l 324 753 l 324 551 l 679 551 l 679 376 l 324 376 l 324 174 l 733 174 l 733 0 l 99 0 m 336 -208 l 336 -69 l 486 -69 l 486 -208 l 336 -208 m 217 985 l 339 1153 l 507 1153 l 628 985 l 490 985 l 422 1067 l 354 985 l 217 985 z "},"Ề":{"ha":824,"x_min":-3,"x_max":733,"o":"m 99 0 l 99 926 l 733 926 l 733 753 l 324 753 l 324 551 l 679 551 l 679 376 l 324 376 l 324 174 l 733 174 l 733 0 l 99 0 m 226 988 l 349 1156 l 517 1156 l 638 988 l 500 988 l 432 1069 l 364 988 l 226 988 m 132 1088 l -3 1242 l 181 1242 l 246 1088 l 132 1088 z "},"Ể":{"ha":824,"x_min":99,"x_max":775,"o":"m 99 0 l 99 926 l 733 926 l 733 753 l 324 753 l 324 551 l 679 551 l 679 376 l 324 376 l 324 174 l 733 174 l 733 0 l 99 0 m 204 993 l 326 1161 l 494 1161 l 615 993 l 478 993 l 410 1075 l 342 993 l 204 993 m 588 1158 q 625 1169 611 1160 q 639 1192 639 1179 q 581 1225 639 1225 q 539 1221 563 1225 l 539 1301 q 619 1308 569 1308 q 732 1282 689 1308 q 775 1200 775 1256 q 754 1138 775 1161 q 696 1113 733 1114 l 696 1079 l 588 1079 l 588 1158 z "},"Ễ":{"ha":824,"x_min":99,"x_max":733,"o":"m 99 0 l 99 926 l 733 926 l 733 753 l 324 753 l 324 551 l 679 551 l 679 376 l 324 376 l 324 174 l 733 174 l 733 0 l 99 0 m 225 971 l 347 1139 l 515 1139 l 636 971 l 499 971 l 431 1053 l 363 971 l 225 971 m 174 1199 q 190 1296 171 1251 q 247 1367 210 1340 q 331 1393 283 1393 q 394 1380 365 1393 q 458 1342 422 1367 q 503 1313 485 1322 q 542 1304 522 1304 q 588 1386 593 1304 l 689 1386 q 647 1247 692 1299 q 533 1194 601 1194 q 455 1210 486 1194 q 388 1251 424 1225 q 350 1276 363 1269 q 322 1283 338 1283 q 281 1258 294 1283 q 269 1199 267 1233 l 174 1199 z "},"Ȅ":{"ha":824,"x_min":99,"x_max":733,"o":"m 99 0 l 99 926 l 733 926 l 733 753 l 324 753 l 324 551 l 679 551 l 679 376 l 324 376 l 324 174 l 733 174 l 733 0 l 99 0 m 263 1000 l 128 1154 l 311 1154 l 376 1000 l 263 1000 m 500 1000 l 365 1154 l 549 1154 l 614 1000 l 500 1000 z "},"Ë":{"ha":824,"x_min":99,"x_max":733,"o":"m 99 0 l 99 926 l 733 926 l 733 753 l 324 753 l 324 551 l 679 551 l 679 376 l 324 376 l 324 174 l 733 174 l 733 0 l 99 0 m 201 976 l 201 1115 l 379 1115 l 379 976 l 201 976 m 456 976 l 456 1115 l 635 1115 l 635 976 l 456 976 z "},"Ė":{"ha":824,"x_min":99,"x_max":733,"o":"m 99 0 l 99 926 l 733 926 l 733 753 l 324 753 l 324 551 l 679 551 l 679 376 l 324 376 l 324 174 l 733 174 l 733 0 l 99 0 m 325 968 l 325 1107 l 493 1107 l 493 968 l 325 968 z "},"Ẹ":{"ha":824,"x_min":99,"x_max":733,"o":"m 99 0 l 99 926 l 733 926 l 733 753 l 324 753 l 324 551 l 679 551 l 679 376 l 324 376 l 324 174 l 733 174 l 733 0 l 99 0 m 336 -208 l 336 -69 l 486 -69 l 486 -208 l 336 -208 z "},"È":{"ha":824,"x_min":99,"x_max":733,"o":"m 99 0 l 99 926 l 733 926 l 733 753 l 324 753 l 324 551 l 679 551 l 679 376 l 324 376 l 324 174 l 733 174 l 733 0 l 99 0 m 372 994 l 238 1149 l 421 1149 l 486 994 l 372 994 z "},"Ẻ":{"ha":824,"x_min":99,"x_max":733,"o":"m 99 0 l 99 926 l 733 926 l 733 753 l 324 753 l 324 551 l 679 551 l 679 376 l 324 376 l 324 174 l 733 174 l 733 0 l 99 0 m 354 1057 q 392 1068 378 1058 q 406 1090 406 1078 q 347 1124 406 1124 q 306 1119 329 1124 l 306 1200 q 386 1207 336 1207 q 499 1181 456 1207 q 542 1099 542 1154 q 521 1036 542 1060 q 463 1011 500 1013 l 463 978 l 354 978 l 354 1057 z "},"Ȇ":{"ha":824,"x_min":99,"x_max":733,"o":"m 99 0 l 99 926 l 733 926 l 733 753 l 324 753 l 324 551 l 679 551 l 679 376 l 324 376 l 324 174 l 733 174 l 733 0 l 99 0 m 422 1156 q 570 1106 518 1156 q 632 971 622 1056 l 515 971 q 422 1051 486 1051 q 363 1028 386 1051 q 328 971 339 1004 l 213 971 q 422 1156 246 1156 z "},"Ē":{"ha":824,"x_min":99,"x_max":733,"o":"m 99 0 l 99 926 l 733 926 l 733 753 l 324 753 l 324 551 l 679 551 l 679 376 l 324 376 l 324 174 l 733 174 l 733 0 l 99 0 m 225 989 l 225 1121 l 608 1121 l 608 989 l 225 989 z "},"Ḗ":{"ha":824,"x_min":99,"x_max":733,"o":"m 99 0 l 99 926 l 733 926 l 733 753 l 324 753 l 324 551 l 679 551 l 679 376 l 324 376 l 324 174 l 733 174 l 733 0 l 99 0 m 225 989 l 225 1121 l 608 1121 l 608 989 l 225 989 m 368 1183 l 418 1340 l 635 1340 l 471 1183 l 368 1183 z "},"Ḕ":{"ha":824,"x_min":99,"x_max":733,"o":"m 99 0 l 99 926 l 733 926 l 733 753 l 324 753 l 324 551 l 679 551 l 679 376 l 324 376 l 324 174 l 733 174 l 733 0 l 99 0 m 225 989 l 225 1121 l 608 1121 l 608 989 l 225 989 m 372 1179 l 238 1333 l 421 1333 l 486 1179 l 372 1179 z "},"Ę":{"ha":824,"x_min":99,"x_max":733,"o":"m 324 753 l 324 551 l 679 551 l 679 376 l 324 376 l 324 174 l 733 174 l 733 0 l 718 0 q 620 -53 657 -25 q 583 -107 583 -81 q 596 -146 583 -135 q 632 -157 608 -157 q 722 -110 672 -157 l 722 -228 q 667 -252 696 -243 q 596 -261 639 -261 q 463 -228 506 -261 q 419 -128 419 -194 q 517 0 419 -57 l 99 0 l 99 926 l 733 926 l 733 753 l 324 753 z "},"Ẽ":{"ha":824,"x_min":99,"x_max":733,"o":"m 99 0 l 99 926 l 733 926 l 733 753 l 324 753 l 324 551 l 679 551 l 679 376 l 324 376 l 324 174 l 733 174 l 733 0 l 99 0 m 176 1000 q 193 1097 174 1053 q 249 1168 213 1142 q 333 1194 286 1194 q 397 1181 368 1194 q 461 1143 425 1168 q 506 1115 488 1124 q 544 1106 525 1106 q 590 1188 596 1106 l 692 1188 q 649 1048 694 1100 q 536 996 604 996 q 458 1011 489 996 q 390 1053 426 1026 q 353 1078 365 1071 q 325 1085 340 1085 q 283 1060 297 1085 q 272 1000 269 1035 l 176 1000 z "},"F":{"ha":792,"x_min":99,"x_max":729,"o":"m 99 0 l 99 926 l 729 926 l 729 753 l 324 753 l 324 532 l 674 532 l 674 356 l 324 356 l 324 0 l 99 0 z "},"Ḟ":{"ha":788,"x_min":99,"x_max":729,"o":"m 99 0 l 99 926 l 729 926 l 729 753 l 324 753 l 324 532 l 674 532 l 674 356 l 324 356 l 324 0 l 99 0 m 269 963 l 269 1101 l 438 1101 l 438 963 l 269 963 z "},"G":{"ha":981,"x_min":60,"x_max":882,"o":"m 511 -19 q 178 97 296 -19 q 60 463 60 214 q 179 828 60 708 q 511 947 299 947 q 842 879 679 947 l 842 675 q 678 749 747 725 q 539 772 610 772 q 351 702 413 772 q 289 464 289 632 q 351 227 289 299 q 529 156 414 156 q 657 178 611 156 l 657 342 l 504 342 l 504 517 l 882 517 l 882 81 q 511 -19 701 -19 z "},"Ǵ":{"ha":981,"x_min":60,"x_max":882,"o":"m 511 -19 q 178 97 296 -19 q 60 463 60 214 q 179 828 60 708 q 511 947 299 947 q 842 879 679 947 l 842 675 q 678 749 747 725 q 539 772 610 772 q 351 702 413 772 q 289 464 289 632 q 351 227 289 299 q 529 156 414 156 q 657 178 611 156 l 657 342 l 504 342 l 504 517 l 882 517 l 882 81 q 511 -19 701 -19 m 461 1018 l 511 1175 l 728 1175 l 564 1018 l 461 1018 z "},"Ğ":{"ha":981,"x_min":60,"x_max":882,"o":"m 511 -19 q 178 97 296 -19 q 60 463 60 214 q 179 828 60 708 q 511 947 299 947 q 842 879 679 947 l 842 675 q 678 749 747 725 q 539 772 610 772 q 351 702 413 772 q 289 464 289 632 q 351 227 289 299 q 529 156 414 156 q 657 178 611 156 l 657 342 l 504 342 l 504 517 l 882 517 l 882 81 q 511 -19 701 -19 m 515 993 q 306 1178 339 993 l 421 1178 q 456 1121 432 1144 q 515 1097 479 1097 q 608 1178 579 1097 l 725 1178 q 663 1043 715 1093 q 515 993 611 993 z "},"Ǧ":{"ha":981,"x_min":60,"x_max":882,"o":"m 511 -19 q 178 97 296 -19 q 60 463 60 214 q 179 828 60 708 q 511 947 299 947 q 842 879 679 947 l 842 675 q 678 749 747 725 q 539 772 610 772 q 351 702 413 772 q 289 464 289 632 q 351 227 289 299 q 529 156 414 156 q 657 178 611 156 l 657 342 l 504 342 l 504 517 l 882 517 l 882 81 q 511 -19 701 -19 m 431 992 l 318 1160 l 450 1160 l 510 1079 l 569 1160 l 701 1160 l 600 992 l 431 992 z "},"Ĝ":{"ha":981,"x_min":60,"x_max":882,"o":"m 511 -19 q 178 97 296 -19 q 60 463 60 214 q 179 828 60 708 q 511 947 299 947 q 842 879 679 947 l 842 675 q 678 749 747 725 q 539 772 610 772 q 351 702 413 772 q 289 464 289 632 q 351 227 289 299 q 529 156 414 156 q 657 178 611 156 l 657 342 l 504 342 l 504 517 l 882 517 l 882 81 q 511 -19 701 -19 m 310 1004 l 432 1172 l 600 1172 l 721 1004 l 583 1004 l 515 1086 l 447 1004 l 310 1004 z "},"Ģ":{"ha":981,"x_min":60,"x_max":882,"o":"m 511 -19 q 178 97 296 -19 q 60 463 60 214 q 179 828 60 708 q 511 947 299 947 q 842 879 679 947 l 842 675 q 678 749 747 725 q 539 772 610 772 q 351 702 413 772 q 289 464 289 632 q 351 227 289 299 q 529 156 414 156 q 657 178 611 156 l 657 342 l 504 342 l 504 517 l 882 517 l 882 81 q 511 -19 701 -19 m 336 -174 q 379 -140 368 -165 q 390 -69 390 -115 l 546 -69 q 492 -212 549 -158 q 336 -269 435 -267 l 336 -174 z "},"Ġ":{"ha":981,"x_min":60,"x_max":882,"o":"m 511 -19 q 178 97 296 -19 q 60 463 60 214 q 179 828 60 708 q 511 947 299 947 q 842 879 679 947 l 842 675 q 678 749 747 725 q 539 772 610 772 q 351 702 413 772 q 289 464 289 632 q 351 227 289 299 q 529 156 414 156 q 657 178 611 156 l 657 342 l 504 342 l 504 517 l 882 517 l 882 81 q 511 -19 701 -19 m 418 988 l 418 1126 l 586 1126 l 586 988 l 418 988 z "},"Ḡ":{"ha":981,"x_min":60,"x_max":882,"o":"m 511 -19 q 178 97 296 -19 q 60 463 60 214 q 179 828 60 708 q 511 947 299 947 q 842 879 679 947 l 842 675 q 678 749 747 725 q 539 772 610 772 q 351 702 413 772 q 289 464 289 632 q 351 227 289 299 q 529 156 414 156 q 657 178 611 156 l 657 342 l 504 342 l 504 517 l 882 517 l 882 81 q 511 -19 701 -19 m 318 1008 l 318 1140 l 701 1140 l 701 1008 l 318 1008 z "},"H":{"ha":986,"x_min":99,"x_max":888,"o":"m 99 0 l 99 926 l 324 926 l 324 551 l 664 551 l 664 926 l 888 926 l 888 0 l 664 0 l 664 368 l 324 368 l 324 0 l 99 0 z "},"Ħ":{"ha":986,"x_min":39,"x_max":947,"o":"m 947 785 l 947 676 l 888 676 l 888 0 l 664 0 l 664 368 l 324 368 l 324 0 l 99 0 l 99 676 l 39 676 l 39 785 l 99 785 l 99 926 l 324 926 l 324 785 l 664 785 l 664 926 l 888 926 l 888 785 l 947 785 m 664 551 l 664 676 l 324 676 l 324 551 l 664 551 z "},"Ḫ":{"ha":986,"x_min":99,"x_max":888,"o":"m 99 0 l 99 926 l 324 926 l 324 551 l 664 551 l 664 926 l 888 926 l 888 0 l 664 0 l 664 368 l 324 368 l 324 0 l 99 0 m 493 -243 q 283 -58 317 -243 l 399 -58 q 433 -115 410 -92 q 493 -139 457 -139 q 586 -58 557 -139 l 703 -58 q 641 -193 693 -143 q 493 -243 589 -243 z "},"Ĥ":{"ha":986,"x_min":99,"x_max":888,"o":"m 99 0 l 99 926 l 324 926 l 324 551 l 664 551 l 664 926 l 888 926 l 888 0 l 664 0 l 664 368 l 324 368 l 324 0 l 99 0 m 288 985 l 410 1153 l 578 1153 l 699 985 l 561 985 l 493 1067 l 425 985 l 288 985 z "},"I":{"ha":422,"x_min":99,"x_max":324,"o":"m 99 0 l 99 926 l 324 926 l 324 0 l 99 0 z "},"Ĳ":{"ha":1086,"x_min":99,"x_max":988,"o":"m 99 0 l 99 926 l 324 926 l 324 0 l 99 0 m 689 -18 q 471 33 581 -18 l 471 239 q 563 181 526 200 q 635 163 599 163 q 763 292 763 163 l 763 926 l 988 926 l 988 282 q 901 52 988 122 q 689 -18 815 -18 z "},"Í":{"ha":422,"x_min":99,"x_max":431,"o":"m 99 0 l 99 926 l 324 926 l 324 0 l 99 0 m 164 999 l 214 1156 l 431 1156 l 267 999 l 164 999 z "},"Ĭ":{"ha":422,"x_min":8,"x_max":428,"o":"m 99 0 l 99 926 l 324 926 l 324 0 l 99 0 m 218 974 q 8 1158 42 974 l 124 1158 q 158 1101 135 1125 q 218 1078 182 1078 q 311 1158 282 1078 l 428 1158 q 366 1024 418 1074 q 218 974 314 974 z "},"Ǐ":{"ha":422,"x_min":21,"x_max":404,"o":"m 99 0 l 99 926 l 324 926 l 324 0 l 99 0 m 133 972 l 21 1140 l 153 1140 l 213 1060 l 272 1140 l 404 1140 l 303 972 l 133 972 z "},"Î":{"ha":422,"x_min":13,"x_max":424,"o":"m 99 0 l 99 926 l 324 926 l 324 0 l 99 0 m 13 985 l 135 1153 l 303 1153 l 424 985 l 286 985 l 218 1067 l 150 985 l 13 985 z "},"Ȉ":{"ha":422,"x_min":-76,"x_max":410,"o":"m 99 0 l 99 926 l 324 926 l 324 0 l 99 0 m 58 1000 l -76 1154 l 107 1154 l 172 1000 l 58 1000 m 296 1000 l 161 1154 l 344 1154 l 410 1000 l 296 1000 z "},"Ï":{"ha":422,"x_min":-3,"x_max":431,"o":"m 99 0 l 99 926 l 324 926 l 324 0 l 99 0 m -3 976 l -3 1115 l 175 1115 l 175 976 l -3 976 m 251 976 l 251 1115 l 431 1115 l 431 976 l 251 976 z "},"Ḯ":{"ha":422,"x_min":-3,"x_max":431,"o":"m 99 0 l 99 926 l 324 926 l 324 0 l 99 0 m -3 976 l -3 1115 l 175 1115 l 175 976 l -3 976 m 251 976 l 251 1115 l 431 1115 l 431 976 l 251 976 m 164 1200 l 214 1357 l 431 1357 l 267 1200 l 164 1200 z "},"İ":{"ha":422,"x_min":99,"x_max":324,"o":"m 99 0 l 99 926 l 324 926 l 324 0 l 99 0 m 121 968 l 121 1107 l 289 1107 l 289 968 l 121 968 z "},"Ị":{"ha":422,"x_min":99,"x_max":324,"o":"m 99 0 l 99 926 l 324 926 l 324 0 l 99 0 m 128 -208 l 128 -69 l 278 -69 l 278 -208 l 128 -208 z "},"Ì":{"ha":422,"x_min":33,"x_max":324,"o":"m 99 0 l 99 926 l 324 926 l 324 0 l 99 0 m 168 994 l 33 1149 l 217 1149 l 282 994 l 168 994 z "},"Ỉ":{"ha":422,"x_min":99,"x_max":338,"o":"m 99 0 l 99 926 l 324 926 l 324 0 l 99 0 m 150 1057 q 188 1068 174 1058 q 201 1090 201 1078 q 143 1124 201 1124 q 101 1119 125 1124 l 101 1200 q 182 1207 132 1207 q 294 1181 251 1207 q 338 1099 338 1154 q 317 1036 338 1060 q 258 1011 296 1013 l 258 978 l 150 978 l 150 1057 z "},"Ȋ":{"ha":422,"x_min":8,"x_max":428,"o":"m 99 0 l 99 926 l 324 926 l 324 0 l 99 0 m 218 1156 q 366 1106 314 1156 q 428 971 418 1056 l 311 971 q 218 1051 282 1051 q 158 1028 182 1051 q 124 971 135 1004 l 8 971 q 218 1156 42 1156 z "},"Ī":{"ha":422,"x_min":21,"x_max":404,"o":"m 99 0 l 99 926 l 324 926 l 324 0 l 99 0 m 21 989 l 21 1121 l 404 1121 l 404 989 l 21 989 z "},"Į":{"ha":422,"x_min":21,"x_max":324,"o":"m 319 0 q 222 -53 258 -25 q 185 -107 185 -81 q 197 -146 185 -135 q 233 -157 210 -157 q 324 -110 274 -157 l 324 -228 q 269 -252 297 -243 q 197 -261 240 -261 q 64 -228 107 -261 q 21 -128 21 -194 q 118 0 21 -57 l 99 0 l 99 926 l 324 926 l 324 0 l 319 0 z "},"Ĩ":{"ha":422,"x_min":-28,"x_max":488,"o":"m 99 0 l 99 926 l 324 926 l 324 0 l 99 0 m -28 1000 q -11 1097 -31 1053 q 45 1168 8 1142 q 129 1194 82 1194 q 192 1181 164 1194 q 257 1143 221 1168 q 302 1115 283 1124 q 340 1106 321 1106 q 386 1188 392 1106 l 488 1188 q 445 1048 490 1100 q 332 996 400 996 q 253 1011 285 996 q 186 1053 222 1026 q 149 1078 161 1071 q 121 1085 136 1085 q 79 1060 93 1085 q 68 1000 65 1035 l -28 1000 z "},"J":{"ha":664,"x_min":49,"x_max":565,"o":"m 267 -18 q 49 33 158 -18 l 49 239 q 140 181 104 200 q 213 163 176 163 q 340 292 340 163 l 340 926 l 565 926 l 565 282 q 479 52 565 122 q 267 -18 393 -18 z "},"Ĵ":{"ha":664,"x_min":49,"x_max":663,"o":"m 267 -18 q 49 33 158 -18 l 49 239 q 140 181 104 200 q 213 163 176 163 q 340 292 340 163 l 340 926 l 565 926 l 565 282 q 479 52 565 122 q 267 -18 393 -18 m 251 985 l 374 1153 l 542 1153 l 663 985 l 525 985 l 457 1067 l 389 985 l 251 985 z "},"K":{"ha":944,"x_min":99,"x_max":919,"o":"m 638 0 l 389 363 l 324 289 l 324 0 l 99 0 l 99 926 l 324 926 l 324 540 l 607 926 l 890 926 l 543 535 l 919 0 l 638 0 z "},"Ķ":{"ha":944,"x_min":99,"x_max":919,"o":"m 638 0 l 389 363 l 324 289 l 324 0 l 99 0 l 99 926 l 324 926 l 324 540 l 607 926 l 890 926 l 543 535 l 919 0 l 638 0 m 351 -174 q 394 -140 383 -165 q 406 -69 406 -115 l 561 -69 q 507 -212 564 -158 q 351 -269 450 -267 l 351 -174 z "},"L":{"ha":771,"x_min":99,"x_max":726,"o":"m 99 0 l 99 926 l 324 926 l 324 176 l 726 176 l 726 0 l 99 0 z "},"Ǉ":{"ha":1435,"x_min":99,"x_max":1336,"o":"m 99 0 l 99 926 l 324 926 l 324 176 l 726 176 l 726 0 l 99 0 m 1038 -18 q 819 33 929 -18 l 819 239 q 911 181 875 200 q 983 163 947 163 q 1111 292 1111 163 l 1111 926 l 1336 926 l 1336 282 q 1250 52 1336 122 q 1038 -18 1164 -18 z "},"Ĺ":{"ha":771,"x_min":99,"x_max":726,"o":"m 99 0 l 99 926 l 324 926 l 324 176 l 726 176 l 726 0 l 99 0 m 167 999 l 217 1156 l 433 1156 l 269 999 l 167 999 z "},"Ľ":{"ha":776,"x_min":99,"x_max":726,"o":"m 99 0 l 99 926 l 324 926 l 324 176 l 726 176 l 726 0 l 99 0 m 496 825 q 539 858 528 833 q 550 929 550 883 l 706 929 q 651 786 708 840 q 496 729 594 732 l 496 825 z "},"Ļ":{"ha":771,"x_min":99,"x_max":726,"o":"m 99 0 l 99 926 l 324 926 l 324 176 l 726 176 l 726 0 l 99 0 m 274 -174 q 317 -140 306 -165 q 328 -69 328 -115 l 483 -69 q 429 -212 486 -158 q 274 -269 372 -267 l 274 -174 z "},"Ŀ":{"ha":771,"x_min":99,"x_max":726,"o":"m 99 0 l 99 926 l 324 926 l 324 176 l 726 176 l 726 0 l 99 0 m 476 376 l 476 544 l 650 544 l 650 376 l 476 376 z "},"Ḷ":{"ha":771,"x_min":99,"x_max":726,"o":"m 99 0 l 99 926 l 324 926 l 324 176 l 726 176 l 726 0 l 99 0 m 314 -208 l 314 -69 l 464 -69 l 464 -208 l 314 -208 z "},"ǈ":{"ha":1193,"x_min":99,"x_max":1101,"o":"m 99 0 l 99 926 l 324 926 l 324 176 l 726 176 l 726 0 l 99 0 m 888 808 l 888 968 l 1101 968 l 1101 808 l 888 808 m 781 -100 q 801 -101 788 -101 q 890 -6 890 -101 l 890 703 l 1097 703 l 1100 -6 q 1015 -208 1100 -147 q 781 -268 929 -268 l 781 -100 z "},"Ḻ":{"ha":771,"x_min":99,"x_max":726,"o":"m 99 0 l 99 926 l 324 926 l 324 176 l 726 176 l 726 0 l 99 0 m 192 -200 l 192 -68 l 575 -68 l 575 -200 l 192 -200 z "},"Ł":{"ha":778,"x_min":99,"x_max":726,"o":"m 324 176 l 726 176 l 726 0 l 99 0 l 99 926 l 324 926 l 324 557 l 399 594 l 399 503 l 324 465 l 324 176 z "},"M":{"ha":1175,"x_min":99,"x_max":1076,"o":"m 853 926 l 1076 926 l 1076 0 l 851 0 l 851 626 l 579 264 l 314 625 l 314 0 l 99 0 l 99 926 l 328 926 l 588 565 l 853 926 z "},"Ṃ":{"ha":1175,"x_min":99,"x_max":1076,"o":"m 853 926 l 1076 926 l 1076 0 l 851 0 l 851 626 l 579 264 l 314 625 l 314 0 l 99 0 l 99 926 l 328 926 l 588 565 l 853 926 m 513 -208 l 513 -69 l 663 -69 l 663 -208 l 513 -208 z "},"N":{"ha":1006,"x_min":99,"x_max":907,"o":"m 700 926 l 907 926 l 907 0 l 738 0 l 306 564 l 306 0 l 99 0 l 99 926 l 290 926 l 700 375 l 700 926 z "},"Ǌ":{"ha":1669,"x_min":99,"x_max":1571,"o":"m 700 926 l 907 926 l 907 0 l 738 0 l 306 564 l 306 0 l 99 0 l 99 926 l 290 926 l 700 375 l 700 926 m 1272 -18 q 1054 33 1164 -18 l 1054 239 q 1146 181 1110 200 q 1218 163 1182 163 q 1346 292 1346 163 l 1346 926 l 1571 926 l 1571 282 q 1485 52 1571 122 q 1272 -18 1399 -18 z "},"Ń":{"ha":1006,"x_min":99,"x_max":907,"o":"m 700 926 l 907 926 l 907 0 l 738 0 l 306 564 l 306 0 l 99 0 l 99 926 l 290 926 l 700 375 l 700 926 m 450 999 l 500 1156 l 717 1156 l 553 999 l 450 999 z "},"Ň":{"ha":1006,"x_min":99,"x_max":907,"o":"m 700 926 l 907 926 l 907 0 l 738 0 l 306 564 l 306 0 l 99 0 l 99 926 l 290 926 l 700 375 l 700 926 m 419 972 l 307 1140 l 439 1140 l 499 1060 l 558 1140 l 690 1140 l 589 972 l 419 972 z "},"Ņ":{"ha":1006,"x_min":99,"x_max":907,"o":"m 700 926 l 907 926 l 907 0 l 738 0 l 306 564 l 306 0 l 99 0 l 99 926 l 290 926 l 700 375 l 700 926 m 389 -174 q 432 -140 421 -165 q 443 -69 443 -115 l 599 -69 q 544 -212 601 -158 q 389 -269 488 -267 l 389 -174 z "},"Ṇ":{"ha":1006,"x_min":99,"x_max":907,"o":"m 700 926 l 907 926 l 907 0 l 738 0 l 306 564 l 306 0 l 99 0 l 99 926 l 290 926 l 700 375 l 700 926 m 429 -208 l 429 -69 l 579 -69 l 579 -208 l 429 -208 z "},"Ŋ":{"ha":1072,"x_min":121,"x_max":949,"o":"m 949 926 l 949 -4 q 861 -201 946 -143 q 629 -260 776 -260 l 629 -111 q 719 -89 688 -111 q 751 -12 751 -67 l 751 -1 l 318 621 l 318 0 l 121 0 l 121 926 l 322 926 l 751 303 l 751 926 l 949 926 z "},"Ɲ":{"ha":1026,"x_min":10,"x_max":928,"o":"m 928 926 l 928 0 l 758 0 l 326 564 l 326 -6 q 242 -208 326 -147 q 10 -268 158 -268 l 10 -100 q 31 -101 17 -101 q 119 -6 119 -101 l 119 926 l 311 926 l 721 375 l 721 926 l 928 926 z "},"ǋ":{"ha":1428,"x_min":99,"x_max":1336,"o":"m 700 926 l 907 926 l 907 0 l 738 0 l 306 564 l 306 0 l 99 0 l 99 926 l 290 926 l 700 375 l 700 926 m 1122 808 l 1122 968 l 1336 968 l 1336 808 l 1122 808 m 1015 -100 q 1036 -101 1022 -101 q 1125 -6 1125 -101 l 1125 703 l 1332 703 l 1335 -6 q 1249 -208 1335 -147 q 1015 -268 1164 -268 l 1015 -100 z "},"Ṉ":{"ha":1006,"x_min":99,"x_max":907,"o":"m 700 926 l 907 926 l 907 0 l 738 0 l 306 564 l 306 0 l 99 0 l 99 926 l 290 926 l 700 375 l 700 926 m 307 -200 l 307 -68 l 690 -68 l 690 -200 l 307 -200 z "},"Ñ":{"ha":1006,"x_min":99,"x_max":907,"o":"m 700 926 l 907 926 l 907 0 l 738 0 l 306 564 l 306 0 l 99 0 l 99 926 l 290 926 l 700 375 l 700 926 m 258 1000 q 275 1097 256 1053 q 331 1168 294 1142 q 415 1194 368 1194 q 478 1181 450 1194 q 543 1143 507 1168 q 588 1115 569 1124 q 626 1106 607 1106 q 672 1188 678 1106 l 774 1188 q 731 1048 776 1100 q 618 996 686 996 q 540 1011 571 996 q 472 1053 508 1026 q 435 1078 447 1071 q 407 1085 422 1085 q 365 1060 379 1085 q 354 1000 351 1035 l 258 1000 z "},"O":{"ha":1024,"x_min":60,"x_max":964,"o":"m 511 -19 q 179 101 299 -19 q 60 463 60 222 q 177 822 60 699 q 511 944 294 944 q 844 824 724 944 q 964 464 964 704 q 847 104 964 228 q 511 -19 729 -19 m 511 165 q 676 235 621 165 q 732 464 732 304 q 677 692 732 624 q 511 761 622 761 q 347 692 401 761 q 292 461 292 622 q 347 234 292 303 q 511 165 401 165 z "},"Ó":{"ha":1024,"x_min":60,"x_max":964,"o":"m 511 -19 q 179 101 299 -19 q 60 463 60 222 q 177 822 60 699 q 511 944 294 944 q 844 824 724 944 q 964 464 964 704 q 847 104 964 228 q 511 -19 729 -19 m 511 165 q 676 235 621 165 q 732 464 732 304 q 677 692 732 624 q 511 761 622 761 q 347 692 401 761 q 292 461 292 622 q 347 234 292 303 q 511 165 401 165 m 461 1028 l 511 1185 l 728 1185 l 564 1028 l 461 1028 z "},"Ŏ":{"ha":1024,"x_min":60,"x_max":964,"o":"m 511 -19 q 179 101 299 -19 q 60 463 60 222 q 177 822 60 699 q 511 944 294 944 q 844 824 724 944 q 964 464 964 704 q 847 104 964 228 q 511 -19 729 -19 m 511 165 q 676 235 621 165 q 732 464 732 304 q 677 692 732 624 q 511 761 622 761 q 347 692 401 761 q 292 461 292 622 q 347 234 292 303 q 511 165 401 165 m 515 1003 q 306 1188 339 1003 l 421 1188 q 456 1131 432 1154 q 515 1107 479 1107 q 608 1188 579 1107 l 725 1188 q 663 1053 715 1103 q 515 1003 611 1003 z "},"Ǒ":{"ha":1024,"x_min":60,"x_max":964,"o":"m 511 -19 q 179 101 299 -19 q 60 463 60 222 q 177 822 60 699 q 511 944 294 944 q 844 824 724 944 q 964 464 964 704 q 847 104 964 228 q 511 -19 729 -19 m 511 165 q 676 235 621 165 q 732 464 732 304 q 677 692 732 624 q 511 761 622 761 q 347 692 401 761 q 292 461 292 622 q 347 234 292 303 q 511 165 401 165 m 431 1001 l 318 1169 l 450 1169 l 510 1089 l 569 1169 l 701 1169 l 600 1001 l 431 1001 z "},"Ô":{"ha":1024,"x_min":60,"x_max":964,"o":"m 511 -19 q 179 101 299 -19 q 60 463 60 222 q 177 822 60 699 q 511 944 294 944 q 844 824 724 944 q 964 464 964 704 q 847 104 964 228 q 511 -19 729 -19 m 511 165 q 676 235 621 165 q 732 464 732 304 q 677 692 732 624 q 511 761 622 761 q 347 692 401 761 q 292 461 292 622 q 347 234 292 303 q 511 165 401 165 m 310 1014 l 432 1182 l 600 1182 l 721 1014 l 583 1014 l 515 1096 l 447 1014 l 310 1014 z "},"Ố":{"ha":1024,"x_min":60,"x_max":964,"o":"m 511 -19 q 179 101 299 -19 q 60 463 60 222 q 177 822 60 699 q 511 944 294 944 q 844 824 724 944 q 964 464 964 704 q 847 104 964 228 q 511 -19 729 -19 m 511 165 q 676 235 621 165 q 732 464 732 304 q 677 692 732 624 q 511 761 622 761 q 347 692 401 761 q 292 461 292 622 q 347 234 292 303 q 511 165 401 165 m 311 1017 l 433 1185 l 601 1185 l 722 1017 l 585 1017 l 517 1099 l 449 1017 l 311 1017 m 682 1118 l 732 1275 l 949 1275 l 785 1118 l 682 1118 z "},"Ộ":{"ha":1024,"x_min":60,"x_max":964,"o":"m 511 -19 q 179 101 299 -19 q 60 463 60 222 q 177 822 60 699 q 511 944 294 944 q 844 824 724 944 q 964 464 964 704 q 847 104 964 228 q 511 -19 729 -19 m 511 165 q 676 235 621 165 q 732 464 732 304 q 677 692 732 624 q 511 761 622 761 q 347 692 401 761 q 292 461 292 622 q 347 234 292 303 q 511 165 401 165 m 440 -208 l 440 -69 l 590 -69 l 590 -208 l 440 -208 m 310 1014 l 432 1182 l 600 1182 l 721 1014 l 583 1014 l 515 1096 l 447 1014 l 310 1014 z "},"Ồ":{"ha":1024,"x_min":60,"x_max":964,"o":"m 511 -19 q 179 101 299 -19 q 60 463 60 222 q 177 822 60 699 q 511 944 294 944 q 844 824 724 944 q 964 464 964 704 q 847 104 964 228 q 511 -19 729 -19 m 511 165 q 676 235 621 165 q 732 464 732 304 q 677 692 732 624 q 511 761 622 761 q 347 692 401 761 q 292 461 292 622 q 347 234 292 303 q 511 165 401 165 m 319 1017 l 442 1185 l 610 1185 l 731 1017 l 593 1017 l 525 1099 l 457 1017 l 319 1017 m 225 1117 l 90 1271 l 274 1271 l 339 1117 l 225 1117 z "},"Ổ":{"ha":1024,"x_min":60,"x_max":964,"o":"m 511 -19 q 179 101 299 -19 q 60 463 60 222 q 177 822 60 699 q 511 944 294 944 q 844 824 724 944 q 964 464 964 704 q 847 104 964 228 q 511 -19 729 -19 m 511 165 q 676 235 621 165 q 732 464 732 304 q 677 692 732 624 q 511 761 622 761 q 347 692 401 761 q 292 461 292 622 q 347 234 292 303 q 511 165 401 165 m 297 1022 l 419 1190 l 588 1190 l 708 1022 l 571 1022 l 503 1104 l 435 1022 l 297 1022 m 681 1188 q 718 1199 704 1189 q 732 1221 732 1208 q 674 1254 732 1254 q 632 1250 656 1254 l 632 1331 q 713 1338 663 1338 q 825 1311 782 1338 q 868 1229 868 1285 q 847 1167 868 1190 q 789 1142 826 1143 l 789 1108 l 681 1108 l 681 1188 z "},"Ỗ":{"ha":1024,"x_min":60,"x_max":964,"o":"m 511 -19 q 179 101 299 -19 q 60 463 60 222 q 177 822 60 699 q 511 944 294 944 q 844 824 724 944 q 964 464 964 704 q 847 104 964 228 q 511 -19 729 -19 m 511 165 q 676 235 621 165 q 732 464 732 304 q 677 692 732 624 q 511 761 622 761 q 347 692 401 761 q 292 461 292 622 q 347 234 292 303 q 511 165 401 165 m 318 1000 l 440 1168 l 608 1168 l 729 1000 l 592 1000 l 524 1082 l 456 1000 l 318 1000 m 267 1228 q 283 1325 264 1281 q 340 1396 303 1369 q 424 1422 376 1422 q 487 1409 458 1422 q 551 1371 515 1396 q 597 1342 578 1351 q 635 1333 615 1333 q 681 1415 686 1333 l 782 1415 q 740 1276 785 1328 q 626 1224 694 1224 q 548 1239 579 1224 q 481 1281 517 1254 q 443 1306 456 1299 q 415 1313 431 1313 q 374 1288 388 1313 q 363 1228 360 1263 l 267 1228 z "},"Ȍ":{"ha":1024,"x_min":60,"x_max":964,"o":"m 511 -19 q 179 101 299 -19 q 60 463 60 222 q 177 822 60 699 q 511 944 294 944 q 844 824 724 944 q 964 464 964 704 q 847 104 964 228 q 511 -19 729 -19 m 511 165 q 676 235 621 165 q 732 464 732 304 q 677 692 732 624 q 511 761 622 761 q 347 692 401 761 q 292 461 292 622 q 347 234 292 303 q 511 165 401 165 m 356 1029 l 221 1183 l 404 1183 l 469 1029 l 356 1029 m 593 1029 l 458 1183 l 642 1183 l 707 1029 l 593 1029 z "},"Ö":{"ha":1024,"x_min":60,"x_max":964,"o":"m 511 -19 q 179 101 299 -19 q 60 463 60 222 q 177 822 60 699 q 511 944 294 944 q 844 824 724 944 q 964 464 964 704 q 847 104 964 228 q 511 -19 729 -19 m 511 165 q 676 235 621 165 q 732 464 732 304 q 677 692 732 624 q 511 761 622 761 q 347 692 401 761 q 292 461 292 622 q 347 234 292 303 q 511 165 401 165 m 294 1006 l 294 1144 l 472 1144 l 472 1006 l 294 1006 m 549 1006 l 549 1144 l 728 1144 l 728 1006 l 549 1006 z "},"Ȫ":{"ha":1024,"x_min":60,"x_max":964,"o":"m 511 -19 q 179 101 299 -19 q 60 463 60 222 q 177 822 60 699 q 511 944 294 944 q 844 824 724 944 q 964 464 964 704 q 847 104 964 228 q 511 -19 729 -19 m 511 165 q 676 235 621 165 q 732 464 732 304 q 677 692 732 624 q 511 761 622 761 q 347 692 401 761 q 292 461 292 622 q 347 234 292 303 q 511 165 401 165 m 294 1006 l 294 1144 l 472 1144 l 472 1006 l 294 1006 m 549 1006 l 549 1144 l 728 1144 l 728 1006 l 549 1006 m 318 1219 l 318 1351 l 701 1351 l 701 1219 l 318 1219 z "},"Ȱ":{"ha":1024,"x_min":60,"x_max":964,"o":"m 511 -19 q 179 101 299 -19 q 60 463 60 222 q 177 822 60 699 q 511 944 294 944 q 844 824 724 944 q 964 464 964 704 q 847 104 964 228 q 511 -19 729 -19 m 511 165 q 676 235 621 165 q 732 464 732 304 q 677 692 732 624 q 511 761 622 761 q 347 692 401 761 q 292 461 292 622 q 347 234 292 303 q 511 165 401 165 m 418 997 l 418 1136 l 586 1136 l 586 997 l 418 997 m 318 1211 l 318 1343 l 701 1343 l 701 1211 l 318 1211 z "},"Ọ":{"ha":1024,"x_min":60,"x_max":964,"o":"m 511 -19 q 179 101 299 -19 q 60 463 60 222 q 177 822 60 699 q 511 944 294 944 q 844 824 724 944 q 964 464 964 704 q 847 104 964 228 q 511 -19 729 -19 m 511 165 q 676 235 621 165 q 732 464 732 304 q 677 692 732 624 q 511 761 622 761 q 347 692 401 761 q 292 461 292 622 q 347 234 292 303 q 511 165 401 165 m 440 -208 l 440 -69 l 590 -69 l 590 -208 l 440 -208 z "},"Ò":{"ha":1024,"x_min":60,"x_max":964,"o":"m 511 -19 q 179 101 299 -19 q 60 463 60 222 q 177 822 60 699 q 511 944 294 944 q 844 824 724 944 q 964 464 964 704 q 847 104 964 228 q 511 -19 729 -19 m 511 165 q 676 235 621 165 q 732 464 732 304 q 677 692 732 624 q 511 761 622 761 q 347 692 401 761 q 292 461 292 622 q 347 234 292 303 q 511 165 401 165 m 465 1024 l 331 1178 l 514 1178 l 579 1024 l 465 1024 z "},"Ỏ":{"ha":1024,"x_min":60,"x_max":964,"o":"m 511 -19 q 179 101 299 -19 q 60 463 60 222 q 177 822 60 699 q 511 944 294 944 q 844 824 724 944 q 964 464 964 704 q 847 104 964 228 q 511 -19 729 -19 m 511 165 q 676 235 621 165 q 732 464 732 304 q 677 692 732 624 q 511 761 622 761 q 347 692 401 761 q 292 461 292 622 q 347 234 292 303 q 511 165 401 165 m 447 1086 q 485 1097 471 1088 q 499 1119 499 1107 q 440 1153 499 1153 q 399 1149 422 1153 l 399 1229 q 479 1236 429 1236 q 592 1210 549 1236 q 635 1128 635 1183 q 614 1065 635 1089 q 556 1040 593 1042 l 556 1007 l 447 1007 l 447 1086 z "},"Ơ":{"ha":1024,"x_min":60,"x_max":964,"o":"m 813 853 q 964 464 964 731 q 847 104 964 228 q 511 -19 729 -19 q 179 101 299 -19 q 60 463 60 222 q 177 822 60 699 q 511 944 294 944 q 664 926 596 944 q 723 947 700 929 q 746 992 746 964 l 746 1043 l 872 1043 l 872 965 q 813 853 872 890 m 511 165 q 676 235 621 165 q 732 464 732 304 q 677 692 732 624 q 511 761 622 761 q 347 692 401 761 q 292 461 292 622 q 347 234 292 303 q 511 165 401 165 z "},"Ớ":{"ha":1024,"x_min":60,"x_max":964,"o":"m 813 853 q 964 464 964 731 q 847 104 964 228 q 511 -19 729 -19 q 179 101 299 -19 q 60 463 60 222 q 177 822 60 699 q 511 944 294 944 q 664 926 596 944 q 723 947 700 929 q 746 992 746 964 l 746 1043 l 872 1043 l 872 965 q 813 853 872 890 m 511 165 q 676 235 621 165 q 732 464 732 304 q 677 692 732 624 q 511 761 622 761 q 347 692 401 761 q 292 461 292 622 q 347 234 292 303 q 511 165 401 165 m 461 1028 l 511 1185 l 728 1185 l 564 1028 l 461 1028 z "},"Ợ":{"ha":1024,"x_min":60,"x_max":964,"o":"m 813 853 q 964 464 964 731 q 847 104 964 228 q 511 -19 729 -19 q 179 101 299 -19 q 60 463 60 222 q 177 822 60 699 q 511 944 294 944 q 664 926 596 944 q 723 947 700 929 q 746 992 746 964 l 746 1043 l 872 1043 l 872 965 q 813 853 872 890 m 511 165 q 676 235 621 165 q 732 464 732 304 q 677 692 732 624 q 511 761 622 761 q 347 692 401 761 q 292 461 292 622 q 347 234 292 303 q 511 165 401 165 m 440 -208 l 440 -69 l 590 -69 l 590 -208 l 440 -208 z "},"Ờ":{"ha":1024,"x_min":60,"x_max":964,"o":"m 813 853 q 964 464 964 731 q 847 104 964 228 q 511 -19 729 -19 q 179 101 299 -19 q 60 463 60 222 q 177 822 60 699 q 511 944 294 944 q 664 926 596 944 q 723 947 700 929 q 746 992 746 964 l 746 1043 l 872 1043 l 872 965 q 813 853 872 890 m 511 165 q 676 235 621 165 q 732 464 732 304 q 677 692 732 624 q 511 761 622 761 q 347 692 401 761 q 292 461 292 622 q 347 234 292 303 q 511 165 401 165 m 465 1024 l 331 1178 l 514 1178 l 579 1024 l 465 1024 z "},"Ở":{"ha":1024,"x_min":60,"x_max":964,"o":"m 813 853 q 964 464 964 731 q 847 104 964 228 q 511 -19 729 -19 q 179 101 299 -19 q 60 463 60 222 q 177 822 60 699 q 511 944 294 944 q 664 926 596 944 q 723 947 700 929 q 746 992 746 964 l 746 1043 l 872 1043 l 872 965 q 813 853 872 890 m 511 165 q 676 235 621 165 q 732 464 732 304 q 677 692 732 624 q 511 761 622 761 q 347 692 401 761 q 292 461 292 622 q 347 234 292 303 q 511 165 401 165 m 447 1086 q 485 1097 471 1088 q 499 1119 499 1107 q 440 1153 499 1153 q 399 1149 422 1153 l 399 1229 q 479 1236 429 1236 q 592 1210 549 1236 q 635 1128 635 1183 q 614 1065 635 1089 q 556 1040 593 1042 l 556 1007 l 447 1007 l 447 1086 z "},"Ỡ":{"ha":1024,"x_min":60,"x_max":964,"o":"m 813 853 q 964 464 964 731 q 847 104 964 228 q 511 -19 729 -19 q 179 101 299 -19 q 60 463 60 222 q 177 822 60 699 q 511 944 294 944 q 664 926 596 944 q 723 947 700 929 q 746 992 746 964 l 746 1043 l 872 1043 l 872 965 q 813 853 872 890 m 511 165 q 676 235 621 165 q 732 464 732 304 q 677 692 732 624 q 511 761 622 761 q 347 692 401 761 q 292 461 292 622 q 347 234 292 303 q 511 165 401 165 m 269 1029 q 286 1126 267 1082 q 342 1197 306 1171 q 426 1224 379 1224 q 490 1210 461 1224 q 554 1172 518 1197 q 599 1144 581 1153 q 638 1135 618 1135 q 683 1217 689 1135 l 785 1217 q 742 1077 788 1129 q 629 1025 697 1025 q 551 1040 582 1025 q 483 1082 519 1056 q 446 1107 458 1100 q 418 1114 433 1114 q 376 1089 390 1114 q 365 1029 363 1064 l 269 1029 z "},"Ő":{"ha":1024,"x_min":60,"x_max":964,"o":"m 511 -19 q 179 101 299 -19 q 60 463 60 222 q 177 822 60 699 q 511 944 294 944 q 844 824 724 944 q 964 464 964 704 q 847 104 964 228 q 511 -19 729 -19 m 511 165 q 676 235 621 165 q 732 464 732 304 q 677 692 732 624 q 511 761 622 761 q 347 692 401 761 q 292 461 292 622 q 347 234 292 303 q 511 165 401 165 m 358 1026 l 443 1189 l 588 1189 l 463 1026 l 358 1026 m 556 1026 l 639 1189 l 783 1189 l 658 1026 l 556 1026 z "},"Ȏ":{"ha":1024,"x_min":60,"x_max":964,"o":"m 511 -19 q 179 101 299 -19 q 60 463 60 222 q 177 822 60 699 q 511 944 294 944 q 844 824 724 944 q 964 464 964 704 q 847 104 964 228 q 511 -19 729 -19 m 511 165 q 676 235 621 165 q 732 464 732 304 q 677 692 732 624 q 511 761 622 761 q 347 692 401 761 q 292 461 292 622 q 347 234 292 303 q 511 165 401 165 m 515 1185 q 663 1135 611 1185 q 725 1000 715 1085 l 608 1000 q 515 1081 579 1081 q 456 1057 479 1081 q 421 1000 432 1033 l 306 1000 q 515 1185 339 1185 z "},"Ō":{"ha":1024,"x_min":60,"x_max":964,"o":"m 511 -19 q 179 101 299 -19 q 60 463 60 222 q 177 822 60 699 q 511 944 294 944 q 844 824 724 944 q 964 464 964 704 q 847 104 964 228 q 511 -19 729 -19 m 511 165 q 676 235 621 165 q 732 464 732 304 q 677 692 732 624 q 511 761 622 761 q 347 692 401 761 q 292 461 292 622 q 347 234 292 303 q 511 165 401 165 m 318 1018 l 318 1150 l 701 1150 l 701 1018 l 318 1018 z "},"Ṓ":{"ha":1024,"x_min":60,"x_max":964,"o":"m 511 -19 q 179 101 299 -19 q 60 463 60 222 q 177 822 60 699 q 511 944 294 944 q 844 824 724 944 q 964 464 964 704 q 847 104 964 228 q 511 -19 729 -19 m 511 165 q 676 235 621 165 q 732 464 732 304 q 677 692 732 624 q 511 761 622 761 q 347 692 401 761 q 292 461 292 622 q 347 234 292 303 q 511 165 401 165 m 318 1018 l 318 1150 l 701 1150 l 701 1018 l 318 1018 m 461 1213 l 511 1369 l 728 1369 l 564 1213 l 461 1213 z "},"Ṑ":{"ha":1024,"x_min":60,"x_max":964,"o":"m 511 -19 q 179 101 299 -19 q 60 463 60 222 q 177 822 60 699 q 511 944 294 944 q 844 824 724 944 q 964 464 964 704 q 847 104 964 228 q 511 -19 729 -19 m 511 165 q 676 235 621 165 q 732 464 732 304 q 677 692 732 624 q 511 761 622 761 q 347 692 401 761 q 292 461 292 622 q 347 234 292 303 q 511 165 401 165 m 318 1018 l 318 1150 l 701 1150 l 701 1018 l 318 1018 m 465 1208 l 331 1363 l 514 1363 l 579 1208 l 465 1208 z "},"Ǫ":{"ha":1024,"x_min":60,"x_max":964,"o":"m 964 464 q 892 164 964 281 q 683 4 819 47 l 703 0 q 605 -53 642 -25 q 568 -107 568 -81 q 581 -146 568 -135 q 617 -157 593 -157 q 707 -110 657 -157 l 707 -228 q 652 -252 681 -243 q 581 -261 624 -261 q 447 -228 490 -261 q 404 -128 404 -194 q 472 -18 404 -67 q 168 113 276 -7 q 60 463 60 233 q 177 822 60 699 q 511 944 294 944 q 844 824 724 944 q 964 464 964 704 m 511 165 q 676 235 621 165 q 732 464 732 304 q 677 692 732 624 q 511 761 622 761 q 347 692 401 761 q 292 461 292 622 q 347 234 292 303 q 511 165 401 165 z "},"Ø":{"ha":1024,"x_min":33,"x_max":996,"o":"m 875 788 q 964 464 964 667 q 847 104 964 228 q 511 -19 729 -19 q 231 57 340 -19 l 181 0 l 33 0 l 151 135 q 60 463 60 254 q 177 822 60 699 q 511 944 294 944 q 794 867 683 944 l 846 925 l 996 925 l 875 788 m 292 461 q 308 314 292 372 l 658 713 q 511 761 606 761 q 347 692 401 761 q 292 461 292 622 m 732 464 q 717 608 732 544 l 367 211 q 511 165 418 165 q 676 235 621 165 q 732 464 732 304 z "},"Ǿ":{"ha":1024,"x_min":33,"x_max":996,"o":"m 875 788 q 964 464 964 667 q 847 104 964 228 q 511 -19 729 -19 q 231 57 340 -19 l 181 0 l 33 0 l 151 135 q 60 463 60 254 q 177 822 60 699 q 511 944 294 944 q 794 867 683 944 l 846 925 l 996 925 l 875 788 m 292 461 q 308 314 292 372 l 658 713 q 511 761 606 761 q 347 692 401 761 q 292 461 292 622 m 732 464 q 717 608 732 544 l 367 211 q 511 165 418 165 q 676 235 621 165 q 732 464 732 304 m 457 999 l 507 1156 l 724 1156 l 560 999 l 457 999 z "},"Õ":{"ha":1024,"x_min":60,"x_max":964,"o":"m 511 -19 q 179 101 299 -19 q 60 463 60 222 q 177 822 60 699 q 511 944 294 944 q 844 824 724 944 q 964 464 964 704 q 847 104 964 228 q 511 -19 729 -19 m 511 165 q 676 235 621 165 q 732 464 732 304 q 677 692 732 624 q 511 761 622 761 q 347 692 401 761 q 292 461 292 622 q 347 234 292 303 q 511 165 401 165 m 269 1029 q 286 1126 267 1082 q 342 1197 306 1171 q 426 1224 379 1224 q 490 1210 461 1224 q 554 1172 518 1197 q 599 1144 581 1153 q 638 1135 618 1135 q 683 1217 689 1135 l 785 1217 q 742 1077 788 1129 q 629 1025 697 1025 q 551 1040 582 1025 q 483 1082 519 1056 q 446 1107 458 1100 q 418 1114 433 1114 q 376 1089 390 1114 q 365 1029 363 1064 l 269 1029 z "},"Ṍ":{"ha":1024,"x_min":60,"x_max":964,"o":"m 511 -19 q 179 101 299 -19 q 60 463 60 222 q 177 822 60 699 q 511 944 294 944 q 844 824 724 944 q 964 464 964 704 q 847 104 964 228 q 511 -19 729 -19 m 511 165 q 676 235 621 165 q 732 464 732 304 q 677 692 732 624 q 511 761 622 761 q 347 692 401 761 q 292 461 292 622 q 347 234 292 303 q 511 165 401 165 m 269 1029 q 286 1126 267 1082 q 342 1197 306 1171 q 426 1224 379 1224 q 490 1210 461 1224 q 554 1172 518 1197 q 599 1144 581 1153 q 638 1135 618 1135 q 683 1217 689 1135 l 785 1217 q 742 1077 788 1129 q 629 1025 697 1025 q 551 1040 582 1025 q 483 1082 519 1056 q 446 1107 458 1100 q 418 1114 433 1114 q 376 1089 390 1114 q 365 1029 363 1064 l 269 1029 m 461 1308 l 511 1465 l 728 1465 l 564 1308 l 461 1308 z "},"Ṏ":{"ha":1024,"x_min":60,"x_max":964,"o":"m 511 -19 q 179 101 299 -19 q 60 463 60 222 q 177 822 60 699 q 511 944 294 944 q 844 824 724 944 q 964 464 964 704 q 847 104 964 228 q 511 -19 729 -19 m 511 165 q 676 235 621 165 q 732 464 732 304 q 677 692 732 624 q 511 761 622 761 q 347 692 401 761 q 292 461 292 622 q 347 234 292 303 q 511 165 401 165 m 269 1029 q 286 1126 267 1082 q 342 1197 306 1171 q 426 1224 379 1224 q 490 1210 461 1224 q 554 1172 518 1197 q 599 1144 581 1153 q 638 1135 618 1135 q 683 1217 689 1135 l 785 1217 q 742 1077 788 1129 q 629 1025 697 1025 q 551 1040 582 1025 q 483 1082 519 1056 q 446 1107 458 1100 q 418 1114 433 1114 q 376 1089 390 1114 q 365 1029 363 1064 l 269 1029 m 294 1286 l 294 1425 l 472 1425 l 472 1286 l 294 1286 m 549 1286 l 549 1425 l 728 1425 l 728 1286 l 549 1286 z "},"Ȭ":{"ha":1024,"x_min":60,"x_max":964,"o":"m 511 -19 q 179 101 299 -19 q 60 463 60 222 q 177 822 60 699 q 511 944 294 944 q 844 824 724 944 q 964 464 964 704 q 847 104 964 228 q 511 -19 729 -19 m 511 165 q 676 235 621 165 q 732 464 732 304 q 677 692 732 624 q 511 761 622 761 q 347 692 401 761 q 292 461 292 622 q 347 234 292 303 q 511 165 401 165 m 269 1029 q 286 1126 267 1082 q 342 1197 306 1171 q 426 1224 379 1224 q 490 1210 461 1224 q 554 1172 518 1197 q 599 1144 581 1153 q 638 1135 618 1135 q 683 1217 689 1135 l 785 1217 q 742 1077 788 1129 q 629 1025 697 1025 q 551 1040 582 1025 q 483 1082 519 1056 q 446 1107 458 1100 q 418 1114 433 1114 q 376 1089 390 1114 q 365 1029 363 1064 l 269 1029 m 318 1299 l 318 1431 l 701 1431 l 701 1299 l 318 1299 z "},"Œ":{"ha":1460,"x_min":60,"x_max":1369,"o":"m 960 753 l 960 551 l 1315 551 l 1315 376 l 960 376 l 960 174 l 1369 174 l 1369 0 l 735 0 l 735 25 q 511 -19 639 -19 q 179 101 299 -19 q 60 463 60 222 q 177 822 60 699 q 511 944 294 944 q 735 901 640 944 l 735 926 l 1369 926 l 1369 753 l 960 753 m 511 165 q 676 235 621 165 q 732 464 732 304 q 677 692 732 624 q 511 761 622 761 q 347 692 401 761 q 292 461 292 622 q 347 234 292 303 q 511 165 401 165 z "},"P":{"ha":922,"x_min":99,"x_max":864,"o":"m 324 0 l 99 0 l 99 926 l 515 926 q 773 851 682 926 q 864 625 864 776 q 772 388 864 471 q 515 304 679 304 l 324 304 l 324 0 m 488 478 q 588 513 556 478 q 621 610 621 549 q 488 751 621 751 l 324 751 l 324 478 l 488 478 z "},"Þ":{"ha":872,"x_min":119,"x_max":799,"o":"m 119 926 l 317 926 l 317 788 l 454 788 q 708 706 618 788 q 799 475 799 624 q 709 242 799 324 q 454 160 619 160 l 317 160 l 317 0 l 119 0 l 119 926 m 435 326 q 565 369 528 326 q 601 475 601 413 q 564 579 601 536 q 435 622 526 622 l 317 622 l 317 326 l 435 326 z "},"Q":{"ha":1024,"x_min":60,"x_max":964,"o":"m 790 42 q 872 -10 826 -10 q 916 -4 897 -10 q 963 18 935 1 l 963 -121 q 831 -146 917 -146 q 617 -22 675 -146 q 511 -29 561 -29 q 174 91 288 -29 q 60 463 60 211 q 172 831 60 708 q 511 954 283 954 q 850 834 736 954 q 964 464 964 714 q 790 42 964 156 m 511 781 q 346 708 400 781 q 292 461 292 635 q 307 296 292 365 l 307 301 q 383 366 332 339 q 496 393 435 393 q 707 261 635 393 q 732 464 732 336 q 677 708 732 636 q 511 781 622 781 m 347 199 q 415 143 375 160 q 511 126 456 126 q 568 132 532 126 q 519 209 549 182 q 453 236 489 236 q 347 199 393 236 z "},"R":{"ha":985,"x_min":99,"x_max":932,"o":"m 646 0 l 463 319 l 324 319 l 324 0 l 99 0 l 99 926 l 550 926 q 797 853 710 926 q 885 633 885 779 q 835 466 885 543 q 696 363 785 389 l 932 0 l 646 0 m 513 485 q 642 622 642 485 q 611 719 642 686 q 522 753 581 753 l 324 753 l 324 485 l 513 485 z "},"Ŕ":{"ha":985,"x_min":99,"x_max":932,"o":"m 646 0 l 463 319 l 324 319 l 324 0 l 99 0 l 99 926 l 550 926 q 797 853 710 926 q 885 633 885 779 q 835 466 885 543 q 696 363 785 389 l 932 0 l 646 0 m 513 485 q 642 622 642 485 q 611 719 642 686 q 522 753 581 753 l 324 753 l 324 485 l 513 485 m 401 999 l 451 1156 l 668 1156 l 504 999 l 401 999 z "},"Ř":{"ha":985,"x_min":99,"x_max":932,"o":"m 646 0 l 463 319 l 324 319 l 324 0 l 99 0 l 99 926 l 550 926 q 797 853 710 926 q 885 633 885 779 q 835 466 885 543 q 696 363 785 389 l 932 0 l 646 0 m 513 485 q 642 622 642 485 q 611 719 642 686 q 522 753 581 753 l 324 753 l 324 485 l 513 485 m 371 972 l 258 1140 l 390 1140 l 450 1060 l 510 1140 l 642 1140 l 540 972 l 371 972 z "},"Ŗ":{"ha":985,"x_min":99,"x_max":932,"o":"m 646 0 l 463 319 l 324 319 l 324 0 l 99 0 l 99 926 l 550 926 q 797 853 710 926 q 885 633 885 779 q 835 466 885 543 q 696 363 785 389 l 932 0 l 646 0 m 513 485 q 642 622 642 485 q 611 719 642 686 q 522 753 581 753 l 324 753 l 324 485 l 513 485 m 378 -174 q 421 -140 410 -165 q 432 -69 432 -115 l 588 -69 q 533 -212 590 -158 q 378 -269 476 -267 l 378 -174 z "},"Ȑ":{"ha":985,"x_min":99,"x_max":932,"o":"m 646 0 l 463 319 l 324 319 l 324 0 l 99 0 l 99 926 l 550 926 q 797 853 710 926 q 885 633 885 779 q 835 466 885 543 q 696 363 785 389 l 932 0 l 646 0 m 513 485 q 642 622 642 485 q 611 719 642 686 q 522 753 581 753 l 324 753 l 324 485 l 513 485 m 296 1000 l 161 1154 l 344 1154 l 410 1000 l 296 1000 m 533 1000 l 399 1154 l 582 1154 l 647 1000 l 533 1000 z "},"Ȓ":{"ha":985,"x_min":99,"x_max":932,"o":"m 646 0 l 463 319 l 324 319 l 324 0 l 99 0 l 99 926 l 550 926 q 797 853 710 926 q 885 633 885 779 q 835 466 885 543 q 696 363 785 389 l 932 0 l 646 0 m 513 485 q 642 622 642 485 q 611 719 642 686 q 522 753 581 753 l 324 753 l 324 485 l 513 485 m 456 1156 q 603 1106 551 1156 q 665 971 656 1056 l 549 971 q 456 1051 519 1051 q 396 1028 419 1051 q 361 971 372 1004 l 246 971 q 456 1156 279 1156 z "},"Ṟ":{"ha":985,"x_min":99,"x_max":932,"o":"m 646 0 l 463 319 l 324 319 l 324 0 l 99 0 l 99 926 l 550 926 q 797 853 710 926 q 885 633 885 779 q 835 466 885 543 q 696 363 785 389 l 932 0 l 646 0 m 513 485 q 642 622 642 485 q 611 719 642 686 q 522 753 581 753 l 324 753 l 324 485 l 513 485 m 296 -200 l 296 -68 l 679 -68 l 679 -200 l 296 -200 z "},"S":{"ha":801,"x_min":67,"x_max":742,"o":"m 410 -19 q 226 -5 304 -19 q 82 44 149 10 l 82 258 q 224 181 144 208 q 381 154 304 154 q 511 253 511 154 q 469 320 511 296 q 335 375 428 344 q 282 393 292 389 q 124 483 182 426 q 67 653 67 540 q 106 799 67 732 q 225 907 144 867 q 424 947 306 947 q 565 933 506 947 q 690 886 624 918 l 690 671 q 565 744 632 715 q 431 774 499 774 q 333 749 369 774 q 296 679 296 725 q 318 620 296 643 q 373 585 340 597 q 478 550 406 572 q 619 494 564 525 q 708 413 675 464 q 742 281 742 361 q 703 128 742 196 q 588 20 664 60 q 410 -19 513 -19 z "},"Ś":{"ha":801,"x_min":67,"x_max":742,"o":"m 410 -19 q 226 -5 304 -19 q 82 44 149 10 l 82 258 q 224 181 144 208 q 381 154 304 154 q 511 253 511 154 q 469 320 511 296 q 335 375 428 344 q 282 393 292 389 q 124 483 182 426 q 67 653 67 540 q 106 799 67 732 q 225 907 144 867 q 424 947 306 947 q 565 933 506 947 q 690 886 624 918 l 690 671 q 565 744 632 715 q 431 774 499 774 q 333 749 369 774 q 296 679 296 725 q 318 620 296 643 q 373 585 340 597 q 478 550 406 572 q 619 494 564 525 q 708 413 675 464 q 742 281 742 361 q 703 128 742 196 q 588 20 664 60 q 410 -19 513 -19 m 368 1028 l 418 1185 l 635 1185 l 471 1028 l 368 1028 z "},"Ṥ":{"ha":801,"x_min":67,"x_max":742,"o":"m 410 -19 q 226 -5 304 -19 q 82 44 149 10 l 82 258 q 224 181 144 208 q 381 154 304 154 q 511 253 511 154 q 469 320 511 296 q 335 375 428 344 q 282 393 292 389 q 124 483 182 426 q 67 653 67 540 q 106 799 67 732 q 225 907 144 867 q 424 947 306 947 q 565 933 506 947 q 690 886 624 918 l 690 671 q 565 744 632 715 q 431 774 499 774 q 333 749 369 774 q 296 679 296 725 q 318 620 296 643 q 373 585 340 597 q 478 550 406 572 q 619 494 564 525 q 708 413 675 464 q 742 281 742 361 q 703 128 742 196 q 588 20 664 60 q 410 -19 513 -19 m 425 1028 l 475 1185 l 692 1185 l 528 1028 l 425 1028 m 210 1032 l 210 1171 l 378 1171 l 378 1032 l 210 1032 z "},"Š":{"ha":801,"x_min":67,"x_max":742,"o":"m 410 -19 q 226 -5 304 -19 q 82 44 149 10 l 82 258 q 224 181 144 208 q 381 154 304 154 q 511 253 511 154 q 469 320 511 296 q 335 375 428 344 q 282 393 292 389 q 124 483 182 426 q 67 653 67 540 q 106 799 67 732 q 225 907 144 867 q 424 947 306 947 q 565 933 506 947 q 690 886 624 918 l 690 671 q 565 744 632 715 q 431 774 499 774 q 333 749 369 774 q 296 679 296 725 q 318 620 296 643 q 373 585 340 597 q 478 550 406 572 q 619 494 564 525 q 708 413 675 464 q 742 281 742 361 q 703 128 742 196 q 588 20 664 60 q 410 -19 513 -19 m 338 1001 l 225 1169 l 357 1169 l 417 1089 l 476 1169 l 608 1169 l 507 1001 l 338 1001 z "},"Ṧ":{"ha":801,"x_min":67,"x_max":742,"o":"m 410 -19 q 226 -5 304 -19 q 82 44 149 10 l 82 258 q 224 181 144 208 q 381 154 304 154 q 511 253 511 154 q 469 320 511 296 q 335 375 428 344 q 282 393 292 389 q 124 483 182 426 q 67 653 67 540 q 106 799 67 732 q 225 907 144 867 q 424 947 306 947 q 565 933 506 947 q 690 886 624 918 l 690 671 q 565 744 632 715 q 431 774 499 774 q 333 749 369 774 q 296 679 296 725 q 318 620 296 643 q 373 585 340 597 q 478 550 406 572 q 619 494 564 525 q 708 413 675 464 q 742 281 742 361 q 703 128 742 196 q 588 20 664 60 q 410 -19 513 -19 m 338 1001 l 225 1169 l 357 1169 l 417 1089 l 476 1169 l 608 1169 l 507 1001 l 338 1001 m 329 1222 l 329 1361 l 497 1361 l 497 1222 l 329 1222 z "},"Ş":{"ha":801,"x_min":67,"x_max":742,"o":"m 742 281 q 706 135 742 200 q 603 28 671 69 q 442 -18 536 -12 l 381 -169 l 194 -169 l 303 -15 q 82 44 175 -3 l 82 258 q 224 181 144 208 q 381 154 304 154 q 511 253 511 154 q 469 320 511 296 q 335 375 428 344 q 282 393 292 389 q 124 483 182 426 q 67 653 67 540 q 106 799 67 732 q 225 907 144 867 q 424 947 306 947 q 565 933 506 947 q 690 886 624 918 l 690 671 q 565 744 632 715 q 431 774 499 774 q 333 749 369 774 q 296 679 296 725 q 318 620 296 643 q 373 585 340 597 q 478 550 406 572 q 619 494 564 525 q 708 413 675 464 q 742 281 742 361 z "},"Ŝ":{"ha":801,"x_min":67,"x_max":742,"o":"m 410 -19 q 226 -5 304 -19 q 82 44 149 10 l 82 258 q 224 181 144 208 q 381 154 304 154 q 511 253 511 154 q 469 320 511 296 q 335 375 428 344 q 282 393 292 389 q 124 483 182 426 q 67 653 67 540 q 106 799 67 732 q 225 907 144 867 q 424 947 306 947 q 565 933 506 947 q 690 886 624 918 l 690 671 q 565 744 632 715 q 431 774 499 774 q 333 749 369 774 q 296 679 296 725 q 318 620 296 643 q 373 585 340 597 q 478 550 406 572 q 619 494 564 525 q 708 413 675 464 q 742 281 742 361 q 703 128 742 196 q 588 20 664 60 q 410 -19 513 -19 m 217 1014 l 339 1182 l 507 1182 l 628 1014 l 490 1014 l 422 1096 l 354 1014 l 217 1014 z "},"Ș":{"ha":801,"x_min":67,"x_max":742,"o":"m 410 -19 q 226 -5 304 -19 q 82 44 149 10 l 82 258 q 224 181 144 208 q 381 154 304 154 q 511 253 511 154 q 469 320 511 296 q 335 375 428 344 q 282 393 292 389 q 124 483 182 426 q 67 653 67 540 q 106 799 67 732 q 225 907 144 867 q 424 947 306 947 q 565 933 506 947 q 690 886 624 918 l 690 671 q 565 744 632 715 q 431 774 499 774 q 333 749 369 774 q 296 679 296 725 q 318 620 296 643 q 373 585 340 597 q 478 550 406 572 q 619 494 564 525 q 708 413 675 464 q 742 281 742 361 q 703 128 742 196 q 588 20 664 60 q 410 -19 513 -19 m 254 -174 q 297 -140 286 -165 q 308 -69 308 -115 l 464 -69 q 410 -212 467 -158 q 254 -269 353 -267 l 254 -174 z "},"Ṡ":{"ha":801,"x_min":67,"x_max":742,"o":"m 410 -19 q 226 -5 304 -19 q 82 44 149 10 l 82 258 q 224 181 144 208 q 381 154 304 154 q 511 253 511 154 q 469 320 511 296 q 335 375 428 344 q 282 393 292 389 q 124 483 182 426 q 67 653 67 540 q 106 799 67 732 q 225 907 144 867 q 424 947 306 947 q 565 933 506 947 q 690 886 624 918 l 690 671 q 565 744 632 715 q 431 774 499 774 q 333 749 369 774 q 296 679 296 725 q 318 620 296 643 q 373 585 340 597 q 478 550 406 572 q 619 494 564 525 q 708 413 675 464 q 742 281 742 361 q 703 128 742 196 q 588 20 664 60 q 410 -19 513 -19 m 325 997 l 325 1136 l 493 1136 l 493 997 l 325 997 z "},"Ṣ":{"ha":801,"x_min":67,"x_max":742,"o":"m 410 -19 q 226 -5 304 -19 q 82 44 149 10 l 82 258 q 224 181 144 208 q 381 154 304 154 q 511 253 511 154 q 469 320 511 296 q 335 375 428 344 q 282 393 292 389 q 124 483 182 426 q 67 653 67 540 q 106 799 67 732 q 225 907 144 867 q 424 947 306 947 q 565 933 506 947 q 690 886 624 918 l 690 671 q 565 744 632 715 q 431 774 499 774 q 333 749 369 774 q 296 679 296 725 q 318 620 296 643 q 373 585 340 597 q 478 550 406 572 q 619 494 564 525 q 708 413 675 464 q 742 281 742 361 q 703 128 742 196 q 588 20 664 60 q 410 -19 513 -19 m 294 -208 l 294 -69 l 444 -69 l 444 -208 l 294 -208 z "},"Ṩ":{"ha":801,"x_min":67,"x_max":742,"o":"m 410 -19 q 226 -5 304 -19 q 82 44 149 10 l 82 258 q 224 181 144 208 q 381 154 304 154 q 511 253 511 154 q 469 320 511 296 q 335 375 428 344 q 282 393 292 389 q 124 483 182 426 q 67 653 67 540 q 106 799 67 732 q 225 907 144 867 q 424 947 306 947 q 565 933 506 947 q 690 886 624 918 l 690 671 q 565 744 632 715 q 431 774 499 774 q 333 749 369 774 q 296 679 296 725 q 318 620 296 643 q 373 585 340 597 q 478 550 406 572 q 619 494 564 525 q 708 413 675 464 q 742 281 742 361 q 703 128 742 196 q 588 20 664 60 q 410 -19 513 -19 m 294 -208 l 294 -69 l 444 -69 l 444 -208 l 294 -208 m 325 997 l 325 1136 l 493 1136 l 493 997 l 325 997 z "},"ẞ":{"ha":1006,"x_min":99,"x_max":942,"o":"m 761 569 q 895 455 849 525 q 942 275 942 385 q 901 125 942 194 q 785 13 860 56 q 615 -29 710 -29 q 513 -13 567 -29 q 418 31 458 3 l 418 233 q 585 144 497 144 q 676 176 642 144 q 710 271 710 208 q 645 417 710 357 q 482 513 581 476 l 482 543 l 692 710 q 508 785 614 785 q 374 735 425 785 q 322 590 322 686 l 321 0 l 99 0 l 99 611 q 202 858 99 771 q 490 946 306 946 q 910 714 774 946 l 910 689 l 761 569 z "},"Ə":{"ha":1026,"x_min":56,"x_max":967,"o":"m 489 946 q 740 886 632 946 q 908 713 849 826 q 967 443 967 600 q 843 95 967 219 q 496 -29 719 -29 q 60 497 56 -29 l 732 497 q 645 699 718 635 q 439 764 572 764 q 268 742 356 764 q 122 692 181 719 l 122 878 q 489 946 274 946 m 504 139 q 656 190 594 139 q 732 357 717 242 l 279 357 q 344 188 292 236 q 504 139 397 139 z "},"T":{"ha":815,"x_min":33,"x_max":782,"o":"m 293 0 l 293 753 l 33 753 l 33 926 l 782 926 l 782 753 l 518 753 l 518 0 l 293 0 z "},"Ŧ":{"ha":815,"x_min":33,"x_max":782,"o":"m 782 753 l 518 753 l 518 526 l 615 526 l 615 400 l 518 400 l 518 0 l 293 0 l 293 400 l 199 400 l 199 526 l 293 526 l 293 753 l 33 753 l 33 926 l 782 926 l 782 753 z "},"Ť":{"ha":803,"x_min":17,"x_max":786,"o":"m 369 1006 l 219 1175 l 342 1175 l 401 1103 l 461 1175 l 583 1175 l 433 1006 l 369 1006 m 301 0 l 301 746 l 17 746 l 17 926 l 786 926 l 786 746 l 499 746 l 499 0 l 301 0 z "},"Ţ":{"ha":815,"x_min":33,"x_max":782,"o":"m 33 926 l 782 926 l 782 753 l 518 753 l 518 0 l 488 0 l 418 -169 l 232 -169 l 351 0 l 293 0 l 293 753 l 33 753 l 33 926 z "},"Ṯ":{"ha":815,"x_min":33,"x_max":782,"o":"m 293 0 l 293 753 l 33 753 l 33 926 l 782 926 l 782 753 l 518 753 l 518 0 l 293 0 m 210 -200 l 210 -68 l 593 -68 l 593 -200 l 210 -200 z "},"U":{"ha":1008,"x_min":99,"x_max":910,"o":"m 525 -29 q 204 63 310 -29 q 99 346 99 154 l 99 926 l 333 926 l 333 356 q 376 197 333 249 q 514 146 419 146 q 649 199 601 146 q 696 356 696 251 l 696 926 l 910 926 l 910 346 q 806 65 910 158 q 525 -29 703 -29 z "},"Ú":{"ha":1008,"x_min":99,"x_max":910,"o":"m 525 -29 q 204 63 310 -29 q 99 346 99 154 l 99 926 l 333 926 l 333 356 q 376 197 333 249 q 514 146 419 146 q 649 199 601 146 q 696 356 696 251 l 696 926 l 910 926 l 910 346 q 806 65 910 158 q 525 -29 703 -29 m 450 1008 l 500 1165 l 717 1165 l 553 1008 l 450 1008 z "},"Ŭ":{"ha":1008,"x_min":99,"x_max":910,"o":"m 525 -29 q 204 63 310 -29 q 99 346 99 154 l 99 926 l 333 926 l 333 356 q 376 197 333 249 q 514 146 419 146 q 649 199 601 146 q 696 356 696 251 l 696 926 l 910 926 l 910 346 q 806 65 910 158 q 525 -29 703 -29 m 504 983 q 294 1168 328 983 l 410 1168 q 444 1111 421 1135 q 504 1088 468 1088 q 597 1168 568 1088 l 714 1168 q 652 1033 704 1083 q 504 983 600 983 z "},"Ǔ":{"ha":1008,"x_min":99,"x_max":910,"o":"m 525 -29 q 204 63 310 -29 q 99 346 99 154 l 99 926 l 333 926 l 333 356 q 376 197 333 249 q 514 146 419 146 q 649 199 601 146 q 696 356 696 251 l 696 926 l 910 926 l 910 346 q 806 65 910 158 q 525 -29 703 -29 m 419 982 l 307 1150 l 439 1150 l 499 1069 l 558 1150 l 690 1150 l 589 982 l 419 982 z "},"Û":{"ha":1008,"x_min":99,"x_max":910,"o":"m 525 -29 q 204 63 310 -29 q 99 346 99 154 l 99 926 l 333 926 l 333 356 q 376 197 333 249 q 514 146 419 146 q 649 199 601 146 q 696 356 696 251 l 696 926 l 910 926 l 910 346 q 806 65 910 158 q 525 -29 703 -29 m 299 994 l 421 1163 l 589 1163 l 710 994 l 572 994 l 504 1076 l 436 994 l 299 994 z "},"Ȕ":{"ha":1008,"x_min":99,"x_max":910,"o":"m 525 -29 q 204 63 310 -29 q 99 346 99 154 l 99 926 l 333 926 l 333 356 q 376 197 333 249 q 514 146 419 146 q 649 199 601 146 q 696 356 696 251 l 696 926 l 910 926 l 910 346 q 806 65 910 158 q 525 -29 703 -29 m 344 1010 l 210 1164 l 393 1164 l 458 1010 l 344 1010 m 582 1010 l 447 1164 l 631 1164 l 696 1010 l 582 1010 z "},"Ü":{"ha":1008,"x_min":99,"x_max":910,"o":"m 525 -29 q 204 63 310 -29 q 99 346 99 154 l 99 926 l 333 926 l 333 356 q 376 197 333 249 q 514 146 419 146 q 649 199 601 146 q 696 356 696 251 l 696 926 l 910 926 l 910 346 q 806 65 910 158 q 525 -29 703 -29 m 283 986 l 283 1125 l 461 1125 l 461 986 l 283 986 m 538 986 l 538 1125 l 717 1125 l 717 986 l 538 986 z "},"Ụ":{"ha":1008,"x_min":99,"x_max":910,"o":"m 525 -29 q 204 63 310 -29 q 99 346 99 154 l 99 926 l 333 926 l 333 356 q 376 197 333 249 q 514 146 419 146 q 649 199 601 146 q 696 356 696 251 l 696 926 l 910 926 l 910 346 q 806 65 910 158 q 525 -29 703 -29 m 429 -208 l 429 -69 l 579 -69 l 579 -208 l 429 -208 z "},"Ù":{"ha":1008,"x_min":99,"x_max":910,"o":"m 525 -29 q 204 63 310 -29 q 99 346 99 154 l 99 926 l 333 926 l 333 356 q 376 197 333 249 q 514 146 419 146 q 649 199 601 146 q 696 356 696 251 l 696 926 l 910 926 l 910 346 q 806 65 910 158 q 525 -29 703 -29 m 454 1004 l 319 1158 l 503 1158 l 568 1004 l 454 1004 z "},"Ủ":{"ha":1008,"x_min":99,"x_max":910,"o":"m 525 -29 q 204 63 310 -29 q 99 346 99 154 l 99 926 l 333 926 l 333 356 q 376 197 333 249 q 514 146 419 146 q 649 199 601 146 q 696 356 696 251 l 696 926 l 910 926 l 910 346 q 806 65 910 158 q 525 -29 703 -29 m 436 1067 q 474 1078 460 1068 q 488 1100 488 1088 q 429 1133 488 1133 q 388 1129 411 1133 l 388 1210 q 468 1217 418 1217 q 581 1190 538 1217 q 624 1108 624 1164 q 603 1046 624 1069 q 544 1021 582 1022 l 544 988 l 436 988 l 436 1067 z "},"Ư":{"ha":1131,"x_min":99,"x_max":1056,"o":"m 1056 1043 l 1056 965 q 910 819 1056 850 l 910 346 q 806 65 910 158 q 525 -29 703 -29 q 204 63 310 -29 q 99 346 99 154 l 99 926 l 333 926 l 333 356 q 376 197 333 249 q 514 146 419 146 q 649 199 601 146 q 696 356 696 251 l 696 926 l 850 926 q 908 947 886 931 q 929 992 929 964 l 929 1043 l 1056 1043 z "},"Ứ":{"ha":1131,"x_min":99,"x_max":1056,"o":"m 1056 1043 l 1056 965 q 910 819 1056 850 l 910 346 q 806 65 910 158 q 525 -29 703 -29 q 204 63 310 -29 q 99 346 99 154 l 99 926 l 333 926 l 333 356 q 376 197 333 249 q 514 146 419 146 q 649 199 601 146 q 696 356 696 251 l 696 926 l 850 926 q 908 947 886 931 q 929 992 929 964 l 929 1043 l 1056 1043 m 450 1008 l 500 1165 l 717 1165 l 553 1008 l 450 1008 z "},"Ự":{"ha":1131,"x_min":99,"x_max":1056,"o":"m 1056 1043 l 1056 965 q 910 819 1056 850 l 910 346 q 806 65 910 158 q 525 -29 703 -29 q 204 63 310 -29 q 99 346 99 154 l 99 926 l 333 926 l 333 356 q 376 197 333 249 q 514 146 419 146 q 649 199 601 146 q 696 356 696 251 l 696 926 l 850 926 q 908 947 886 931 q 929 992 929 964 l 929 1043 l 1056 1043 m 429 -208 l 429 -69 l 579 -69 l 579 -208 l 429 -208 z "},"Ừ":{"ha":1131,"x_min":99,"x_max":1056,"o":"m 1056 1043 l 1056 965 q 910 819 1056 850 l 910 346 q 806 65 910 158 q 525 -29 703 -29 q 204 63 310 -29 q 99 346 99 154 l 99 926 l 333 926 l 333 356 q 376 197 333 249 q 514 146 419 146 q 649 199 601 146 q 696 356 696 251 l 696 926 l 850 926 q 908 947 886 931 q 929 992 929 964 l 929 1043 l 1056 1043 m 454 1004 l 319 1158 l 503 1158 l 568 1004 l 454 1004 z "},"Ử":{"ha":1131,"x_min":99,"x_max":1056,"o":"m 1056 1043 l 1056 965 q 910 819 1056 850 l 910 346 q 806 65 910 158 q 525 -29 703 -29 q 204 63 310 -29 q 99 346 99 154 l 99 926 l 333 926 l 333 356 q 376 197 333 249 q 514 146 419 146 q 649 199 601 146 q 696 356 696 251 l 696 926 l 850 926 q 908 947 886 931 q 929 992 929 964 l 929 1043 l 1056 1043 m 436 1067 q 474 1078 460 1068 q 488 1100 488 1088 q 429 1133 488 1133 q 388 1129 411 1133 l 388 1210 q 468 1217 418 1217 q 581 1190 538 1217 q 624 1108 624 1164 q 603 1046 624 1069 q 544 1021 582 1022 l 544 988 l 436 988 l 436 1067 z "},"Ữ":{"ha":1131,"x_min":99,"x_max":1056,"o":"m 1056 1043 l 1056 965 q 910 819 1056 850 l 910 346 q 806 65 910 158 q 525 -29 703 -29 q 204 63 310 -29 q 99 346 99 154 l 99 926 l 333 926 l 333 356 q 376 197 333 249 q 514 146 419 146 q 649 199 601 146 q 696 356 696 251 l 696 926 l 850 926 q 908 947 886 931 q 929 992 929 964 l 929 1043 l 1056 1043 m 258 1010 q 275 1107 256 1063 q 331 1178 294 1151 q 415 1204 368 1204 q 478 1191 450 1204 q 543 1153 507 1178 q 588 1124 569 1133 q 626 1115 607 1115 q 672 1197 678 1115 l 774 1197 q 731 1058 776 1110 q 618 1006 686 1006 q 540 1021 571 1006 q 472 1063 508 1036 q 435 1088 447 1081 q 407 1094 422 1094 q 365 1069 379 1094 q 354 1010 351 1044 l 258 1010 z "},"Ű":{"ha":1008,"x_min":99,"x_max":910,"o":"m 525 -29 q 204 63 310 -29 q 99 346 99 154 l 99 926 l 333 926 l 333 356 q 376 197 333 249 q 514 146 419 146 q 649 199 601 146 q 696 356 696 251 l 696 926 l 910 926 l 910 346 q 806 65 910 158 q 525 -29 703 -29 m 347 1007 l 432 1169 l 576 1169 l 451 1007 l 347 1007 m 544 1007 l 628 1169 l 772 1169 l 647 1007 l 544 1007 z "},"Ȗ":{"ha":1008,"x_min":99,"x_max":910,"o":"m 525 -29 q 204 63 310 -29 q 99 346 99 154 l 99 926 l 333 926 l 333 356 q 376 197 333 249 q 514 146 419 146 q 649 199 601 146 q 696 356 696 251 l 696 926 l 910 926 l 910 346 q 806 65 910 158 q 525 -29 703 -29 m 504 1165 q 652 1115 600 1165 q 714 981 704 1065 l 597 981 q 504 1061 568 1061 q 444 1038 468 1061 q 410 981 421 1014 l 294 981 q 504 1165 328 1165 z "},"Ū":{"ha":1008,"x_min":99,"x_max":910,"o":"m 525 -29 q 204 63 310 -29 q 99 346 99 154 l 99 926 l 333 926 l 333 356 q 376 197 333 249 q 514 146 419 146 q 649 199 601 146 q 696 356 696 251 l 696 926 l 910 926 l 910 346 q 806 65 910 158 q 525 -29 703 -29 m 307 999 l 307 1131 l 690 1131 l 690 999 l 307 999 z "},"Ṻ":{"ha":1008,"x_min":99,"x_max":910,"o":"m 525 -29 q 204 63 310 -29 q 99 346 99 154 l 99 926 l 333 926 l 333 356 q 376 197 333 249 q 514 146 419 146 q 649 199 601 146 q 696 356 696 251 l 696 926 l 910 926 l 910 346 q 806 65 910 158 q 525 -29 703 -29 m 307 999 l 307 1131 l 690 1131 l 690 999 l 307 999 m 283 1171 l 283 1310 l 461 1310 l 461 1171 l 283 1171 m 538 1171 l 538 1310 l 717 1310 l 717 1171 l 538 1171 z "},"Ų":{"ha":1008,"x_min":99,"x_max":910,"o":"m 910 926 l 910 346 q 851 119 910 207 q 686 -6 793 31 q 597 -55 631 -29 q 564 -107 564 -81 q 576 -146 564 -135 q 613 -157 589 -157 q 703 -110 653 -157 l 703 -228 q 648 -252 676 -243 q 576 -261 619 -261 q 443 -228 486 -261 q 400 -128 400 -194 q 457 -26 400 -72 q 188 78 276 -12 q 99 346 99 169 l 99 926 l 333 926 l 333 356 q 376 197 333 249 q 514 146 419 146 q 649 199 601 146 q 696 356 696 251 l 696 926 l 910 926 z "},"Ů":{"ha":1008,"x_min":99,"x_max":910,"o":"m 525 -29 q 204 63 310 -29 q 99 346 99 154 l 99 926 l 333 926 l 333 356 q 376 197 333 249 q 514 146 419 146 q 649 199 601 146 q 696 356 696 251 l 696 926 l 910 926 l 910 346 q 806 65 910 158 q 525 -29 703 -29 m 503 933 q 380 967 422 933 q 338 1065 338 1001 q 380 1163 338 1129 q 503 1197 422 1197 q 626 1163 583 1197 q 668 1065 668 1129 q 626 967 668 1000 q 503 933 583 933 m 503 1014 q 554 1026 539 1014 q 569 1065 569 1038 q 554 1104 569 1093 q 503 1115 539 1115 q 451 1104 467 1115 q 436 1065 436 1093 q 451 1026 436 1038 q 503 1014 467 1014 z "},"Ũ":{"ha":1008,"x_min":99,"x_max":910,"o":"m 525 -29 q 204 63 310 -29 q 99 346 99 154 l 99 926 l 333 926 l 333 356 q 376 197 333 249 q 514 146 419 146 q 649 199 601 146 q 696 356 696 251 l 696 926 l 910 926 l 910 346 q 806 65 910 158 q 525 -29 703 -29 m 258 1010 q 275 1107 256 1063 q 331 1178 294 1151 q 415 1204 368 1204 q 478 1191 450 1204 q 543 1153 507 1178 q 588 1124 569 1133 q 626 1115 607 1115 q 672 1197 678 1115 l 774 1197 q 731 1058 776 1110 q 618 1006 686 1006 q 540 1021 571 1006 q 472 1063 508 1036 q 435 1088 447 1081 q 407 1094 422 1094 q 365 1069 379 1094 q 354 1010 351 1044 l 258 1010 z "},"Ṹ":{"ha":1008,"x_min":99,"x_max":910,"o":"m 525 -29 q 204 63 310 -29 q 99 346 99 154 l 99 926 l 333 926 l 333 356 q 376 197 333 249 q 514 146 419 146 q 649 199 601 146 q 696 356 696 251 l 696 926 l 910 926 l 910 346 q 806 65 910 158 q 525 -29 703 -29 m 258 1010 q 275 1107 256 1063 q 331 1178 294 1151 q 415 1204 368 1204 q 478 1191 450 1204 q 543 1153 507 1178 q 588 1124 569 1133 q 626 1115 607 1115 q 672 1197 678 1115 l 774 1197 q 731 1058 776 1110 q 618 1006 686 1006 q 540 1021 571 1006 q 472 1063 508 1036 q 435 1088 447 1081 q 407 1094 422 1094 q 365 1069 379 1094 q 354 1010 351 1044 l 258 1010 m 450 1289 l 500 1446 l 717 1446 l 553 1289 l 450 1289 z "},"V":{"ha":985,"x_min":18,"x_max":967,"o":"m 728 925 l 967 926 l 604 0 l 364 0 l 18 926 l 278 926 l 503 250 l 728 925 z "},"W":{"ha":1403,"x_min":35,"x_max":1368,"o":"m 1122 926 l 1368 926 l 1108 0 l 886 0 l 701 601 l 517 0 l 294 0 l 35 926 l 281 926 l 426 279 l 614 926 l 788 926 l 976 278 l 1122 926 z "},"Ẃ":{"ha":1403,"x_min":35,"x_max":1368,"o":"m 1122 926 l 1368 926 l 1108 0 l 886 0 l 701 601 l 517 0 l 294 0 l 35 926 l 281 926 l 426 279 l 614 926 l 788 926 l 976 278 l 1122 926 m 647 999 l 697 1156 l 914 1156 l 750 999 l 647 999 z "},"Ŵ":{"ha":1403,"x_min":35,"x_max":1368,"o":"m 1122 926 l 1368 926 l 1108 0 l 886 0 l 701 601 l 517 0 l 294 0 l 35 926 l 281 926 l 426 279 l 614 926 l 788 926 l 976 278 l 1122 926 m 496 985 l 618 1153 l 786 1153 l 907 985 l 769 985 l 701 1067 l 633 985 l 496 985 z "},"Ẅ":{"ha":1403,"x_min":35,"x_max":1368,"o":"m 1122 926 l 1368 926 l 1108 0 l 886 0 l 701 601 l 517 0 l 294 0 l 35 926 l 281 926 l 426 279 l 614 926 l 788 926 l 976 278 l 1122 926 m 481 976 l 481 1115 l 658 1115 l 658 976 l 481 976 m 735 976 l 735 1115 l 914 1115 l 914 976 l 735 976 z "},"Ẁ":{"ha":1403,"x_min":35,"x_max":1368,"o":"m 1122 926 l 1368 926 l 1108 0 l 886 0 l 701 601 l 517 0 l 294 0 l 35 926 l 281 926 l 426 279 l 614 926 l 788 926 l 976 278 l 1122 926 m 651 994 l 517 1149 l 700 1149 l 765 994 l 651 994 z "},"X":{"ha":943,"x_min":17,"x_max":928,"o":"m 928 0 l 649 0 l 449 293 l 271 0 l 28 0 l 335 461 l 17 926 l 296 926 l 497 632 l 669 926 l 918 926 l 614 461 l 928 0 z "},"Y":{"ha":961,"x_min":29,"x_max":929,"o":"m 929 926 l 606 397 l 606 0 l 381 0 l 381 401 l 29 926 l 306 926 l 515 575 l 706 926 l 929 926 z "},"Ý":{"ha":961,"x_min":29,"x_max":929,"o":"m 929 926 l 606 397 l 606 0 l 381 0 l 381 401 l 29 926 l 306 926 l 515 575 l 706 926 l 929 926 m 461 999 l 511 1156 l 728 1156 l 564 999 l 461 999 z "},"Ŷ":{"ha":961,"x_min":29,"x_max":929,"o":"m 929 926 l 606 397 l 606 0 l 381 0 l 381 401 l 29 926 l 306 926 l 515 575 l 706 926 l 929 926 m 310 985 l 432 1153 l 600 1153 l 721 985 l 583 985 l 515 1067 l 447 985 l 310 985 z "},"Ÿ":{"ha":961,"x_min":29,"x_max":929,"o":"m 929 926 l 606 397 l 606 0 l 381 0 l 381 401 l 29 926 l 306 926 l 515 575 l 706 926 l 929 926 m 294 976 l 294 1115 l 472 1115 l 472 976 l 294 976 m 549 976 l 549 1115 l 728 1115 l 728 976 l 549 976 z "},"Ẏ":{"ha":961,"x_min":29,"x_max":929,"o":"m 929 926 l 606 397 l 606 0 l 381 0 l 381 401 l 29 926 l 306 926 l 515 575 l 706 926 l 929 926 m 418 968 l 418 1107 l 586 1107 l 586 968 l 418 968 z "},"Ỵ":{"ha":961,"x_min":29,"x_max":929,"o":"m 929 926 l 606 397 l 606 0 l 381 0 l 381 401 l 29 926 l 306 926 l 515 575 l 706 926 l 929 926 m 406 -208 l 406 -69 l 556 -69 l 556 -208 l 406 -208 z "},"Ỳ":{"ha":961,"x_min":29,"x_max":929,"o":"m 929 926 l 606 397 l 606 0 l 381 0 l 381 401 l 29 926 l 306 926 l 515 575 l 706 926 l 929 926 m 465 994 l 331 1149 l 514 1149 l 579 994 l 465 994 z "},"Ỷ":{"ha":961,"x_min":29,"x_max":929,"o":"m 929 926 l 606 397 l 606 0 l 381 0 l 381 401 l 29 926 l 306 926 l 515 575 l 706 926 l 929 926 m 447 1057 q 485 1068 471 1058 q 499 1090 499 1078 q 440 1124 499 1124 q 399 1119 422 1124 l 399 1200 q 479 1207 429 1207 q 592 1181 549 1207 q 635 1099 635 1154 q 614 1036 635 1060 q 556 1011 593 1013 l 556 978 l 447 978 l 447 1057 z "},"Ȳ":{"ha":961,"x_min":29,"x_max":929,"o":"m 929 926 l 606 397 l 606 0 l 381 0 l 381 401 l 29 926 l 306 926 l 515 575 l 706 926 l 929 926 m 318 989 l 318 1121 l 701 1121 l 701 989 l 318 989 z "},"Ỹ":{"ha":961,"x_min":29,"x_max":929,"o":"m 929 926 l 606 397 l 606 0 l 381 0 l 381 401 l 29 926 l 306 926 l 515 575 l 706 926 l 929 926 m 269 1000 q 286 1097 267 1053 q 342 1168 306 1142 q 426 1194 379 1194 q 490 1181 461 1194 q 554 1143 518 1168 q 599 1115 581 1124 q 638 1106 618 1106 q 683 1188 689 1106 l 785 1188 q 742 1048 788 1100 q 629 996 697 996 q 551 1011 582 996 q 483 1053 519 1026 q 446 1078 458 1071 q 418 1085 433 1085 q 376 1060 390 1085 q 365 1000 363 1035 l 269 1000 z "},"Z":{"ha":881,"x_min":75,"x_max":803,"o":"m 803 926 l 803 765 l 358 175 l 803 175 l 803 0 l 75 0 l 75 164 l 531 750 l 82 750 l 82 926 l 803 926 z "},"Ź":{"ha":881,"x_min":75,"x_max":803,"o":"m 803 926 l 803 765 l 358 175 l 803 175 l 803 0 l 75 0 l 75 164 l 531 750 l 82 750 l 82 926 l 803 926 m 396 999 l 446 1156 l 663 1156 l 499 999 l 396 999 z "},"Ž":{"ha":881,"x_min":75,"x_max":803,"o":"m 803 926 l 803 765 l 358 175 l 803 175 l 803 0 l 75 0 l 75 164 l 531 750 l 82 750 l 82 926 l 803 926 m 365 972 l 253 1140 l 385 1140 l 444 1060 l 504 1140 l 636 1140 l 535 972 l 365 972 z "},"Ż":{"ha":881,"x_min":75,"x_max":803,"o":"m 803 926 l 803 765 l 358 175 l 803 175 l 803 0 l 75 0 l 75 164 l 531 750 l 82 750 l 82 926 l 803 926 m 353 968 l 353 1107 l 521 1107 l 521 968 l 353 968 z "},"a":{"ha":794,"x_min":54,"x_max":703,"o":"m 399 724 q 608 670 514 724 q 703 478 703 617 l 701 146 q 614 19 700 58 q 363 -21 528 -21 q 54 219 54 -21 q 117 378 54 321 q 306 435 181 435 q 408 422 357 435 q 497 388 460 408 l 497 432 q 342 553 497 553 q 219 531 282 553 q 118 479 156 510 l 118 663 q 233 706 156 688 q 399 724 310 724 m 369 125 q 469 135 442 125 q 497 174 497 144 l 497 282 q 390 299 449 299 q 291 278 322 299 q 260 215 260 258 q 292 150 260 175 q 369 125 325 125 z "},"á":{"ha":794,"x_min":54,"x_max":703,"o":"m 399 724 q 608 670 514 724 q 703 478 703 617 l 701 146 q 614 19 700 58 q 363 -21 528 -21 q 54 219 54 -21 q 117 378 54 321 q 306 435 181 435 q 408 422 357 435 q 497 388 460 408 l 497 432 q 342 553 497 553 q 219 531 282 553 q 118 479 156 510 l 118 663 q 233 706 156 688 q 399 724 310 724 m 369 125 q 469 135 442 125 q 497 174 497 144 l 497 282 q 390 299 449 299 q 291 278 322 299 q 260 215 260 258 q 292 150 260 175 q 369 125 325 125 m 329 794 l 394 967 l 597 967 l 443 794 l 329 794 z "},"ă":{"ha":794,"x_min":54,"x_max":703,"o":"m 399 724 q 608 670 514 724 q 703 478 703 617 l 701 146 q 614 19 700 58 q 363 -21 528 -21 q 54 219 54 -21 q 117 378 54 321 q 306 435 181 435 q 408 422 357 435 q 497 388 460 408 l 497 432 q 342 553 497 553 q 219 531 282 553 q 118 479 156 510 l 118 663 q 233 706 156 688 q 399 724 310 724 m 369 125 q 469 135 442 125 q 497 174 497 144 l 497 282 q 390 299 449 299 q 291 278 322 299 q 260 215 260 258 q 292 150 260 175 q 369 125 325 125 m 394 776 q 185 961 218 776 l 300 961 q 335 904 311 928 q 394 881 358 881 q 488 961 458 881 l 604 961 q 542 826 594 876 q 394 776 490 776 z "},"ắ":{"ha":794,"x_min":54,"x_max":703,"o":"m 399 724 q 608 670 514 724 q 703 478 703 617 l 701 146 q 614 19 700 58 q 363 -21 528 -21 q 54 219 54 -21 q 117 378 54 321 q 306 435 181 435 q 408 422 357 435 q 497 388 460 408 l 497 432 q 342 553 497 553 q 219 531 282 553 q 118 479 156 510 l 118 663 q 233 706 156 688 q 399 724 310 724 m 369 125 q 469 135 442 125 q 497 174 497 144 l 497 282 q 390 299 449 299 q 291 278 322 299 q 260 215 260 258 q 292 150 260 175 q 369 125 325 125 m 394 776 q 185 961 218 776 l 300 961 q 335 904 311 928 q 394 881 358 881 q 488 961 458 881 l 604 961 q 542 826 594 876 q 394 776 490 776 m 335 999 l 385 1156 l 601 1156 l 438 999 l 335 999 z "},"ặ":{"ha":758,"x_min":54,"x_max":703,"o":"m 386 747 q 258 786 301 747 q 215 894 215 825 l 324 894 q 340 851 326 865 q 386 836 354 836 q 433 851 419 836 q 450 894 447 865 l 558 894 q 515 786 558 825 q 386 747 471 747 m 399 724 q 608 670 514 724 q 703 478 703 617 l 701 146 q 614 19 700 58 q 363 -21 528 -21 q 54 219 54 -21 q 117 378 54 321 q 306 435 181 435 q 408 422 357 435 q 497 388 460 408 l 497 432 q 342 553 497 553 q 219 531 282 553 q 118 479 156 510 l 118 663 q 233 706 156 688 q 399 724 310 724 m 369 125 q 469 135 442 125 q 497 174 497 144 l 497 282 q 390 299 449 299 q 291 278 322 299 q 260 215 260 258 q 292 150 260 175 q 369 125 325 125 m 315 -208 l 315 -69 l 465 -69 l 465 -208 l 315 -208 z "},"ằ":{"ha":794,"x_min":54,"x_max":703,"o":"m 399 724 q 608 670 514 724 q 703 478 703 617 l 701 146 q 614 19 700 58 q 363 -21 528 -21 q 54 219 54 -21 q 117 378 54 321 q 306 435 181 435 q 408 422 357 435 q 497 388 460 408 l 497 432 q 342 553 497 553 q 219 531 282 553 q 118 479 156 510 l 118 663 q 233 706 156 688 q 399 724 310 724 m 369 125 q 469 135 442 125 q 497 174 497 144 l 497 282 q 390 299 449 299 q 291 278 322 299 q 260 215 260 258 q 292 150 260 175 q 369 125 325 125 m 394 776 q 185 961 218 776 l 300 961 q 335 904 311 928 q 394 881 358 881 q 488 961 458 881 l 604 961 q 542 826 594 876 q 394 776 490 776 m 340 983 l 186 1156 l 389 1156 l 453 983 l 340 983 z "},"ẳ":{"ha":794,"x_min":54,"x_max":703,"o":"m 399 724 q 608 670 514 724 q 703 478 703 617 l 701 146 q 614 19 700 58 q 363 -21 528 -21 q 54 219 54 -21 q 117 378 54 321 q 306 435 181 435 q 408 422 357 435 q 497 388 460 408 l 497 432 q 342 553 497 553 q 219 531 282 553 q 118 479 156 510 l 118 663 q 233 706 156 688 q 399 724 310 724 m 369 125 q 469 135 442 125 q 497 174 497 144 l 497 282 q 390 299 449 299 q 291 278 322 299 q 260 215 260 258 q 292 150 260 175 q 369 125 325 125 m 389 776 q 179 961 213 776 l 294 961 q 329 904 306 928 q 389 881 353 881 q 482 961 453 881 l 599 961 q 537 826 589 876 q 389 776 485 776 m 342 1063 q 379 1074 365 1064 q 393 1096 393 1083 q 335 1129 393 1129 q 293 1125 317 1129 l 293 1206 q 374 1213 324 1213 q 486 1186 443 1213 q 529 1104 529 1160 q 508 1042 529 1065 q 450 1017 488 1018 l 450 983 l 342 983 l 342 1063 z "},"ẵ":{"ha":794,"x_min":54,"x_max":703,"o":"m 399 724 q 608 670 514 724 q 703 478 703 617 l 701 146 q 614 19 700 58 q 363 -21 528 -21 q 54 219 54 -21 q 117 378 54 321 q 306 435 181 435 q 408 422 357 435 q 497 388 460 408 l 497 432 q 342 553 497 553 q 219 531 282 553 q 118 479 156 510 l 118 663 q 233 706 156 688 q 399 724 310 724 m 369 125 q 469 135 442 125 q 497 174 497 144 l 497 282 q 390 299 449 299 q 291 278 322 299 q 260 215 260 258 q 292 150 260 175 q 369 125 325 125 m 394 776 q 185 961 218 776 l 300 961 q 335 904 311 928 q 394 881 358 881 q 488 961 458 881 l 604 961 q 542 826 594 876 q 394 776 490 776 m 147 1008 q 164 1106 144 1061 q 220 1176 183 1150 q 304 1203 257 1203 q 367 1190 339 1203 q 432 1151 396 1176 q 477 1123 458 1132 q 515 1114 496 1114 q 561 1196 567 1114 l 663 1196 q 620 1056 665 1108 q 507 1004 575 1004 q 428 1019 460 1004 q 361 1061 397 1035 q 324 1086 336 1079 q 296 1093 311 1093 q 254 1068 268 1093 q 243 1008 240 1043 l 147 1008 z "},"ǎ":{"ha":794,"x_min":54,"x_max":703,"o":"m 399 724 q 608 670 514 724 q 703 478 703 617 l 701 146 q 614 19 700 58 q 363 -21 528 -21 q 54 219 54 -21 q 117 378 54 321 q 306 435 181 435 q 408 422 357 435 q 497 388 460 408 l 497 432 q 342 553 497 553 q 219 531 282 553 q 118 479 156 510 l 118 663 q 233 706 156 688 q 399 724 310 724 m 369 125 q 469 135 442 125 q 497 174 497 144 l 497 282 q 390 299 449 299 q 291 278 322 299 q 260 215 260 258 q 292 150 260 175 q 369 125 325 125 m 310 813 l 197 981 l 329 981 l 389 900 l 449 981 l 581 981 l 479 813 l 310 813 z "},"â":{"ha":794,"x_min":54,"x_max":703,"o":"m 399 724 q 608 670 514 724 q 703 478 703 617 l 701 146 q 614 19 700 58 q 363 -21 528 -21 q 54 219 54 -21 q 117 378 54 321 q 306 435 181 435 q 408 422 357 435 q 497 388 460 408 l 497 432 q 342 553 497 553 q 219 531 282 553 q 118 479 156 510 l 118 663 q 233 706 156 688 q 399 724 310 724 m 369 125 q 469 135 442 125 q 497 174 497 144 l 497 282 q 390 299 449 299 q 291 278 322 299 q 260 215 260 258 q 292 150 260 175 q 369 125 325 125 m 199 803 l 321 971 l 489 971 l 610 803 l 472 803 l 404 885 l 336 803 l 199 803 z "},"ấ":{"ha":794,"x_min":54,"x_max":828,"o":"m 399 724 q 608 670 514 724 q 703 478 703 617 l 701 146 q 614 19 700 58 q 363 -21 528 -21 q 54 219 54 -21 q 117 378 54 321 q 306 435 181 435 q 408 422 357 435 q 497 388 460 408 l 497 432 q 342 553 497 553 q 219 531 282 553 q 118 479 156 510 l 118 663 q 233 706 156 688 q 399 724 310 724 m 369 125 q 469 135 442 125 q 497 174 497 144 l 497 282 q 390 299 449 299 q 291 278 322 299 q 260 215 260 258 q 292 150 260 175 q 369 125 325 125 m 190 783 l 313 951 l 481 951 l 601 783 l 464 783 l 396 865 l 328 783 l 190 783 m 561 885 l 611 1042 l 828 1042 l 664 885 l 561 885 z "},"ậ":{"ha":758,"x_min":54,"x_max":703,"o":"m 399 724 q 608 670 514 724 q 703 478 703 617 l 701 146 q 614 19 700 58 q 363 -21 528 -21 q 54 219 54 -21 q 117 378 54 321 q 306 435 181 435 q 408 422 357 435 q 497 388 460 408 l 497 432 q 342 553 497 553 q 219 531 282 553 q 118 479 156 510 l 118 663 q 233 706 156 688 q 399 724 310 724 m 369 125 q 469 135 442 125 q 497 174 497 144 l 497 282 q 390 299 449 299 q 291 278 322 299 q 260 215 260 258 q 292 150 260 175 q 369 125 325 125 m 317 -208 l 317 -69 l 467 -69 l 467 -208 l 317 -208 m 199 803 l 321 971 l 489 971 l 610 803 l 472 803 l 404 885 l 336 803 l 199 803 z "},"ầ":{"ha":794,"x_min":-31,"x_max":703,"o":"m 399 724 q 608 670 514 724 q 703 478 703 617 l 701 146 q 614 19 700 58 q 363 -21 528 -21 q 54 219 54 -21 q 117 378 54 321 q 306 435 181 435 q 408 422 357 435 q 497 388 460 408 l 497 432 q 342 553 497 553 q 219 531 282 553 q 118 479 156 510 l 118 663 q 233 706 156 688 q 399 724 310 724 m 369 125 q 469 135 442 125 q 497 174 497 144 l 497 282 q 390 299 449 299 q 291 278 322 299 q 260 215 260 258 q 292 150 260 175 q 369 125 325 125 m 199 783 l 321 951 l 489 951 l 610 783 l 472 783 l 404 865 l 336 783 l 199 783 m 104 883 l -31 1038 l 153 1038 l 218 883 l 104 883 z "},"ẩ":{"ha":794,"x_min":54,"x_max":747,"o":"m 399 724 q 608 670 514 724 q 703 478 703 617 l 701 146 q 614 19 700 58 q 363 -21 528 -21 q 54 219 54 -21 q 117 378 54 321 q 306 435 181 435 q 408 422 357 435 q 497 388 460 408 l 497 432 q 342 553 497 553 q 219 531 282 553 q 118 479 156 510 l 118 663 q 233 706 156 688 q 399 724 310 724 m 369 125 q 469 135 442 125 q 497 174 497 144 l 497 282 q 390 299 449 299 q 291 278 322 299 q 260 215 260 258 q 292 150 260 175 q 369 125 325 125 m 176 789 l 299 957 l 467 957 l 588 789 l 450 789 l 382 871 l 314 789 l 176 789 m 560 954 q 597 965 583 956 q 611 988 611 975 q 553 1021 611 1021 q 511 1017 535 1021 l 511 1097 q 592 1104 542 1104 q 704 1078 661 1104 q 747 996 747 1051 q 726 933 747 957 q 668 908 706 910 l 668 875 l 560 875 l 560 954 z "},"ẫ":{"ha":794,"x_min":54,"x_max":703,"o":"m 399 724 q 608 670 514 724 q 703 478 703 617 l 701 146 q 614 19 700 58 q 363 -21 528 -21 q 54 219 54 -21 q 117 378 54 321 q 306 435 181 435 q 408 422 357 435 q 497 388 460 408 l 497 432 q 342 553 497 553 q 219 531 282 553 q 118 479 156 510 l 118 663 q 233 706 156 688 q 399 724 310 724 m 369 125 q 469 135 442 125 q 497 174 497 144 l 497 282 q 390 299 449 299 q 291 278 322 299 q 260 215 260 258 q 292 150 260 175 q 369 125 325 125 m 197 767 l 319 935 l 488 935 l 608 767 l 471 767 l 403 849 l 335 767 l 197 767 m 146 994 q 163 1092 143 1047 q 219 1163 182 1136 q 303 1189 256 1189 q 366 1176 338 1189 q 431 1138 394 1163 q 476 1109 457 1118 q 514 1100 494 1100 q 560 1182 565 1100 l 661 1182 q 619 1042 664 1094 q 506 990 574 990 q 427 1006 458 990 q 360 1047 396 1021 q 322 1072 335 1065 q 294 1079 310 1079 q 253 1054 267 1079 q 242 994 239 1029 l 146 994 z "},"ȁ":{"ha":794,"x_min":54,"x_max":703,"o":"m 399 724 q 608 670 514 724 q 703 478 703 617 l 701 146 q 614 19 700 58 q 363 -21 528 -21 q 54 219 54 -21 q 117 378 54 321 q 306 435 181 435 q 408 422 357 435 q 497 388 460 408 l 497 432 q 342 553 497 553 q 219 531 282 553 q 118 479 156 510 l 118 663 q 233 706 156 688 q 399 724 310 724 m 369 125 q 469 135 442 125 q 497 174 497 144 l 497 282 q 390 299 449 299 q 291 278 322 299 q 260 215 260 258 q 292 150 260 175 q 369 125 325 125 m 242 794 l 88 967 l 290 967 l 354 794 l 242 794 m 497 794 l 343 967 l 546 967 l 610 794 l 497 794 z "},"ä":{"ha":794,"x_min":54,"x_max":703,"o":"m 399 724 q 608 670 514 724 q 703 478 703 617 l 701 146 q 614 19 700 58 q 363 -21 528 -21 q 54 219 54 -21 q 117 378 54 321 q 306 435 181 435 q 408 422 357 435 q 497 388 460 408 l 497 432 q 342 553 497 553 q 219 531 282 553 q 118 479 156 510 l 118 663 q 233 706 156 688 q 399 724 310 724 m 369 125 q 469 135 442 125 q 497 174 497 144 l 497 282 q 390 299 449 299 q 291 278 322 299 q 260 215 260 258 q 292 150 260 175 q 369 125 325 125 m 188 804 l 188 943 l 365 943 l 365 804 l 188 804 m 442 804 l 442 943 l 621 943 l 621 804 l 442 804 z "},"ạ":{"ha":758,"x_min":54,"x_max":703,"o":"m 399 724 q 608 670 514 724 q 703 478 703 617 l 701 146 q 614 19 700 58 q 363 -21 528 -21 q 54 219 54 -21 q 117 378 54 321 q 306 435 181 435 q 408 422 357 435 q 497 388 460 408 l 497 432 q 342 553 497 553 q 219 531 282 553 q 118 479 156 510 l 118 663 q 233 706 156 688 q 399 724 310 724 m 369 125 q 469 135 442 125 q 497 174 497 144 l 497 282 q 390 299 449 299 q 291 278 322 299 q 260 215 260 258 q 292 150 260 175 q 369 125 325 125 m 317 -208 l 317 -69 l 467 -69 l 467 -208 l 317 -208 z "},"à":{"ha":794,"x_min":54,"x_max":703,"o":"m 399 724 q 608 670 514 724 q 703 478 703 617 l 701 146 q 614 19 700 58 q 363 -21 528 -21 q 54 219 54 -21 q 117 378 54 321 q 306 435 181 435 q 408 422 357 435 q 497 388 460 408 l 497 432 q 342 553 497 553 q 219 531 282 553 q 118 479 156 510 l 118 663 q 233 706 156 688 q 399 724 310 724 m 369 125 q 469 135 442 125 q 497 174 497 144 l 497 282 q 390 299 449 299 q 291 278 322 299 q 260 215 260 258 q 292 150 260 175 q 369 125 325 125 m 342 794 l 188 967 l 390 967 l 454 794 l 342 794 z "},"ả":{"ha":794,"x_min":54,"x_max":703,"o":"m 399 724 q 608 670 514 724 q 703 478 703 617 l 701 146 q 614 19 700 58 q 363 -21 528 -21 q 54 219 54 -21 q 117 378 54 321 q 306 435 181 435 q 408 422 357 435 q 497 388 460 408 l 497 432 q 342 553 497 553 q 219 531 282 553 q 118 479 156 510 l 118 663 q 233 706 156 688 q 399 724 310 724 m 369 125 q 469 135 442 125 q 497 174 497 144 l 497 282 q 390 299 449 299 q 291 278 322 299 q 260 215 260 258 q 292 150 260 175 q 369 125 325 125 m 349 861 q 386 872 372 863 q 400 894 400 882 q 342 928 400 928 q 300 924 324 928 l 300 1004 q 381 1011 331 1011 q 493 985 450 1011 q 536 903 536 958 q 515 840 536 864 q 457 815 494 817 l 457 782 l 349 782 l 349 861 z "},"ȃ":{"ha":794,"x_min":54,"x_max":703,"o":"m 399 724 q 608 670 514 724 q 703 478 703 617 l 701 146 q 614 19 700 58 q 363 -21 528 -21 q 54 219 54 -21 q 117 378 54 321 q 306 435 181 435 q 408 422 357 435 q 497 388 460 408 l 497 432 q 342 553 497 553 q 219 531 282 553 q 118 479 156 510 l 118 663 q 233 706 156 688 q 399 724 310 724 m 369 125 q 469 135 442 125 q 497 174 497 144 l 497 282 q 390 299 449 299 q 291 278 322 299 q 260 215 260 258 q 292 150 260 175 q 369 125 325 125 m 394 943 q 542 893 490 943 q 604 758 594 843 l 488 758 q 394 839 458 839 q 335 815 358 839 q 300 758 311 792 l 185 758 q 394 943 218 943 z "},"ā":{"ha":794,"x_min":54,"x_max":703,"o":"m 399 724 q 608 670 514 724 q 703 478 703 617 l 701 146 q 614 19 700 58 q 363 -21 528 -21 q 54 219 54 -21 q 117 378 54 321 q 306 435 181 435 q 408 422 357 435 q 497 388 460 408 l 497 432 q 342 553 497 553 q 219 531 282 553 q 118 479 156 510 l 118 663 q 233 706 156 688 q 399 724 310 724 m 369 125 q 469 135 442 125 q 497 174 497 144 l 497 282 q 390 299 449 299 q 291 278 322 299 q 260 215 260 258 q 292 150 260 175 q 369 125 325 125 m 197 796 l 197 928 l 581 928 l 581 796 l 197 796 z "},"ą":{"ha":794,"x_min":54,"x_max":703,"o":"m 399 724 q 608 670 514 724 q 703 478 703 617 l 701 146 q 582 6 700 44 q 496 -79 496 -39 q 508 -118 496 -107 q 544 -129 521 -129 q 635 -82 585 -129 l 635 -200 q 580 -224 608 -215 q 508 -233 551 -233 q 375 -200 418 -233 q 332 -100 332 -167 q 365 -21 332 -58 l 363 -21 q 54 219 54 -21 q 117 378 54 321 q 306 435 181 435 q 408 422 357 435 q 497 388 460 408 l 497 432 q 342 553 497 553 q 219 531 282 553 q 118 479 156 510 l 118 663 q 233 706 156 688 q 399 724 310 724 m 260 215 q 292 150 260 175 q 369 125 325 125 q 469 135 442 125 q 497 174 497 144 l 497 282 q 390 299 449 299 q 291 278 322 299 q 260 215 260 258 z "},"å":{"ha":794,"x_min":54,"x_max":703,"o":"m 399 724 q 608 670 514 724 q 703 478 703 617 l 701 146 q 614 19 700 58 q 363 -21 528 -21 q 54 219 54 -21 q 117 378 54 321 q 306 435 181 435 q 408 422 357 435 q 497 388 460 408 l 497 432 q 342 553 497 553 q 219 531 282 553 q 118 479 156 510 l 118 663 q 233 706 156 688 q 399 724 310 724 m 369 125 q 469 135 442 125 q 497 174 497 144 l 497 282 q 390 299 449 299 q 291 278 322 299 q 260 215 260 258 q 292 150 260 175 q 369 125 325 125 m 394 772 q 272 806 314 772 q 229 904 229 840 q 272 1002 229 968 q 394 1036 314 1036 q 517 1002 475 1036 q 560 904 560 968 q 517 806 560 839 q 394 772 475 772 m 394 853 q 446 865 431 853 q 461 904 461 876 q 446 943 461 932 q 394 954 431 954 q 343 943 358 954 q 328 904 328 932 q 343 865 328 876 q 394 853 358 853 z "},"ǻ":{"ha":794,"x_min":54,"x_max":703,"o":"m 399 724 q 608 670 514 724 q 703 478 703 617 l 701 146 q 614 19 700 58 q 363 -21 528 -21 q 54 219 54 -21 q 117 378 54 321 q 306 435 181 435 q 408 422 357 435 q 497 388 460 408 l 497 432 q 342 553 497 553 q 219 531 282 553 q 118 479 156 510 l 118 663 q 233 706 156 688 q 399 724 310 724 m 369 125 q 469 135 442 125 q 497 174 497 144 l 497 282 q 390 299 449 299 q 291 278 322 299 q 260 215 260 258 q 292 150 260 175 q 369 125 325 125 m 394 772 q 272 806 314 772 q 229 904 229 840 q 272 1002 229 968 q 394 1036 314 1036 q 517 1002 475 1036 q 560 904 560 968 q 517 806 560 839 q 394 772 475 772 m 394 853 q 446 865 431 853 q 461 904 461 876 q 446 943 461 932 q 394 954 431 954 q 343 943 358 954 q 328 904 328 932 q 343 865 328 876 q 394 853 358 853 m 329 1085 l 394 1257 l 597 1257 l 443 1085 l 329 1085 z "},"ã":{"ha":794,"x_min":54,"x_max":703,"o":"m 399 724 q 608 670 514 724 q 703 478 703 617 l 701 146 q 614 19 700 58 q 363 -21 528 -21 q 54 219 54 -21 q 117 378 54 321 q 306 435 181 435 q 408 422 357 435 q 497 388 460 408 l 497 432 q 342 553 497 553 q 219 531 282 553 q 118 479 156 510 l 118 663 q 233 706 156 688 q 399 724 310 724 m 369 125 q 469 135 442 125 q 497 174 497 144 l 497 282 q 390 299 449 299 q 291 278 322 299 q 260 215 260 258 q 292 150 260 175 q 369 125 325 125 m 147 786 q 164 883 144 839 q 220 954 183 928 q 304 981 257 981 q 367 967 339 981 q 432 929 396 954 q 477 901 458 910 q 515 892 496 892 q 561 974 567 892 l 663 974 q 620 834 665 886 q 507 782 575 782 q 428 797 460 782 q 361 839 397 813 q 324 864 336 857 q 296 871 311 871 q 254 846 268 871 q 243 786 240 821 l 147 786 z "},"æ":{"ha":1226,"x_min":54,"x_max":1175,"o":"m 849 722 q 1096 614 1017 722 q 1174 297 1175 506 l 701 297 q 751 180 703 218 q 901 142 799 142 q 1011 160 956 142 q 1107 204 1067 179 l 1107 26 q 853 -31 1008 -31 q 710 -8 775 -31 q 599 56 646 14 q 340 -29 475 -29 q 133 27 211 -29 q 54 211 54 83 q 122 374 54 313 q 317 435 190 435 q 413 422 364 435 q 497 389 461 410 l 497 429 q 342 550 497 550 q 219 528 282 550 q 118 476 156 507 l 118 663 q 233 706 156 688 q 399 724 310 724 q 519 708 458 724 q 626 656 581 693 q 849 722 713 722 m 840 564 q 708 429 729 564 l 968 429 q 928 533 958 501 q 840 564 899 564 m 260 204 q 293 141 260 165 q 378 117 326 117 q 459 124 418 117 q 526 149 500 132 q 497 278 497 207 l 497 282 q 390 299 449 299 q 260 204 260 299 z "},"ǽ":{"ha":1226,"x_min":54,"x_max":1174,"o":"m 849 722 q 1096 614 1017 722 q 1174 297 1175 506 l 701 297 q 751 180 703 218 q 901 142 799 142 q 1011 160 956 142 q 1107 204 1067 179 l 1107 26 q 853 -31 1008 -31 q 710 -8 775 -31 q 599 56 646 14 q 340 -29 475 -29 q 133 27 211 -29 q 54 211 54 83 q 122 374 54 313 q 317 435 190 435 q 413 422 364 435 q 497 389 461 410 l 497 429 q 342 550 497 550 q 219 528 282 550 q 118 476 156 507 l 118 663 q 233 706 156 688 q 399 724 310 724 q 519 708 458 724 q 626 656 581 693 q 849 722 713 722 m 840 564 q 708 429 729 564 l 968 429 q 928 533 958 501 q 840 564 899 564 m 260 204 q 293 141 260 165 q 378 117 326 117 q 459 124 418 117 q 526 149 500 132 q 497 278 497 207 l 497 282 q 390 299 449 299 q 260 204 260 299 m 551 785 l 617 957 l 819 957 l 665 785 l 551 785 z "},"b":{"ha":835,"x_min":92,"x_max":783,"o":"m 465 722 q 701 628 619 722 q 783 354 783 533 q 414 -21 782 -21 q 92 163 92 -21 l 92 963 l 294 963 l 294 678 q 380 711 332 700 q 465 722 428 722 m 411 151 q 576 342 576 151 q 415 557 576 557 q 353 549 386 557 q 294 528 319 542 l 294 217 q 411 151 294 151 z "},"c":{"ha":697,"x_min":53,"x_max":644,"o":"m 421 -18 q 235 22 318 -18 q 102 144 151 63 q 53 342 53 225 q 153 626 53 529 q 419 722 253 722 q 538 710 478 722 q 643 678 597 699 l 643 500 q 542 538 586 525 q 453 551 497 551 q 310 506 361 551 q 258 365 258 461 q 306 207 258 258 q 463 156 354 156 q 644 211 544 156 l 644 35 q 541 -5 594 8 q 421 -18 488 -18 z "},"ć":{"ha":697,"x_min":53,"x_max":644,"o":"m 421 -18 q 235 22 318 -18 q 102 144 151 63 q 53 342 53 225 q 153 626 53 529 q 419 722 253 722 q 538 710 478 722 q 643 678 597 699 l 643 500 q 542 538 586 525 q 453 551 497 551 q 310 506 361 551 q 258 365 258 461 q 306 207 258 258 q 463 156 354 156 q 644 211 544 156 l 644 35 q 541 -5 594 8 q 421 -18 488 -18 m 335 785 l 400 957 l 603 957 l 449 785 l 335 785 z "},"č":{"ha":697,"x_min":53,"x_max":644,"o":"m 421 -18 q 235 22 318 -18 q 102 144 151 63 q 53 342 53 225 q 153 626 53 529 q 419 722 253 722 q 538 710 478 722 q 643 678 597 699 l 643 500 q 542 538 586 525 q 453 551 497 551 q 310 506 361 551 q 258 365 258 461 q 306 207 258 258 q 463 156 354 156 q 644 211 544 156 l 644 35 q 541 -5 594 8 q 421 -18 488 -18 m 315 803 l 203 971 l 335 971 l 394 890 l 454 971 l 586 971 l 485 803 l 315 803 z "},"ç":{"ha":697,"x_min":53,"x_max":644,"o":"m 644 35 q 482 -15 568 -6 l 413 -185 l 226 -185 l 347 -12 q 135 99 217 8 q 53 342 53 190 q 153 626 53 529 q 419 722 253 722 q 538 710 478 722 q 643 678 597 699 l 643 500 q 542 538 586 525 q 453 551 497 551 q 310 506 361 551 q 258 365 258 461 q 306 207 258 258 q 463 156 354 156 q 644 211 544 156 l 644 35 z "},"ḉ":{"ha":697,"x_min":53,"x_max":644,"o":"m 603 957 l 449 785 l 335 785 l 400 957 l 603 957 m 644 35 q 482 -15 568 -6 l 413 -185 l 226 -185 l 347 -12 q 135 99 217 8 q 53 342 53 190 q 153 626 53 529 q 419 722 253 722 q 538 710 478 722 q 643 678 597 699 l 643 500 q 542 538 586 525 q 453 551 497 551 q 310 506 361 551 q 258 365 258 461 q 306 207 258 258 q 463 156 354 156 q 644 211 544 156 l 644 35 z "},"ĉ":{"ha":697,"x_min":53,"x_max":644,"o":"m 421 -18 q 235 22 318 -18 q 102 144 151 63 q 53 342 53 225 q 153 626 53 529 q 419 722 253 722 q 538 710 478 722 q 643 678 597 699 l 643 500 q 542 538 586 525 q 453 551 497 551 q 310 506 361 551 q 258 365 258 461 q 306 207 258 258 q 463 156 354 156 q 644 211 544 156 l 644 35 q 541 -5 594 8 q 421 -18 488 -18 m 204 793 l 326 961 l 494 961 l 615 793 l 478 793 l 410 875 l 342 793 l 204 793 z "},"ċ":{"ha":697,"x_min":53,"x_max":644,"o":"m 421 -18 q 235 22 318 -18 q 102 144 151 63 q 53 342 53 225 q 153 626 53 529 q 419 722 253 722 q 538 710 478 722 q 643 678 597 699 l 643 500 q 542 538 586 525 q 453 551 497 551 q 310 506 361 551 q 258 365 258 461 q 306 207 258 258 q 463 156 354 156 q 644 211 544 156 l 644 35 q 541 -5 594 8 q 421 -18 488 -18 m 303 785 l 303 924 l 471 924 l 471 785 l 303 785 z "},"d":{"ha":846,"x_min":53,"x_max":754,"o":"m 754 992 l 754 183 q 708 72 754 118 q 588 3 663 26 q 428 -21 513 -21 q 151 64 249 -21 q 53 357 53 149 q 138 628 53 532 q 389 725 224 725 q 549 689 488 725 l 549 992 l 754 992 m 549 529 q 440 558 493 558 q 304 511 347 558 q 261 351 261 464 q 301 203 261 254 q 436 153 342 153 q 518 167 488 153 q 549 206 549 181 l 549 529 z "},"ð":{"ha":808,"x_min":53,"x_max":749,"o":"m 626 822 q 716 636 683 740 q 749 414 749 532 q 665 80 749 190 q 408 -31 581 -31 q 141 63 229 -31 q 53 349 53 157 q 128 626 53 529 q 339 722 203 722 q 510 664 449 722 q 439 786 485 728 l 269 754 l 242 872 l 336 889 q 236 960 310 911 l 236 968 l 485 968 q 540 924 510 953 l 700 951 l 733 843 l 626 822 m 408 135 q 517 202 483 135 q 551 435 551 269 q 546 519 551 485 q 483 567 518 550 q 408 583 447 583 q 257 349 257 583 q 293 185 257 236 q 408 135 329 135 z "},"ď":{"ha":1017,"x_min":53,"x_max":1056,"o":"m 754 992 l 754 183 q 708 72 754 118 q 588 3 663 26 q 428 -21 513 -21 q 151 64 249 -21 q 53 357 53 149 q 138 628 53 532 q 389 725 224 725 q 549 689 488 725 l 549 992 l 754 992 m 549 529 q 440 558 493 558 q 304 511 347 558 q 261 351 261 464 q 301 203 261 254 q 436 153 342 153 q 518 167 488 153 q 549 206 549 181 l 549 529 m 783 708 l 886 981 l 1056 981 l 928 708 l 783 708 z "},"đ":{"ha":846,"x_min":53,"x_max":836,"o":"m 836 771 l 754 771 l 754 183 q 708 72 754 118 q 588 3 663 26 q 428 -21 513 -21 q 151 64 249 -21 q 53 357 53 149 q 138 628 53 532 q 389 725 224 725 q 549 689 488 725 l 549 771 l 419 771 l 419 897 l 549 897 l 549 992 l 754 992 l 754 897 l 836 897 l 836 771 m 549 529 q 440 558 493 558 q 304 511 347 558 q 261 351 261 464 q 301 203 261 254 q 436 153 342 153 q 518 167 488 153 q 549 206 549 181 l 549 529 z "},"ḏ":{"ha":846,"x_min":53,"x_max":754,"o":"m 754 992 l 754 183 q 708 72 754 118 q 588 3 663 26 q 428 -21 513 -21 q 151 64 249 -21 q 53 357 53 149 q 138 628 53 532 q 389 725 224 725 q 549 689 488 725 l 549 992 l 754 992 m 549 529 q 440 558 493 558 q 304 511 347 558 q 261 351 261 464 q 301 203 261 254 q 436 153 342 153 q 518 167 488 153 q 549 206 549 181 l 549 529 m 246 -200 l 246 -68 l 629 -68 l 629 -200 l 246 -200 z "},"ǆ":{"ha":1529,"x_min":53,"x_max":1467,"o":"m 754 992 l 754 183 q 708 72 754 118 q 588 3 663 26 q 428 -21 513 -21 q 151 64 249 -21 q 53 357 53 149 q 138 628 53 532 q 389 725 224 725 q 549 689 488 725 l 549 992 l 754 992 m 549 529 q 440 558 493 558 q 304 511 347 558 q 261 351 261 464 q 301 203 261 254 q 436 153 342 153 q 518 167 488 153 q 549 206 549 181 l 549 529 m 1467 703 l 1467 542 l 1160 165 l 1467 165 l 1467 0 l 908 0 l 908 164 l 1249 547 l 917 547 l 917 703 l 1467 703 m 1113 783 l 1000 951 l 1132 951 l 1192 871 l 1251 951 l 1383 951 l 1282 783 l 1113 783 z "},"e":{"ha":781,"x_min":53,"x_max":732,"o":"m 403 726 q 728 297 732 726 l 264 297 q 460 151 290 151 q 560 166 511 151 q 665 204 610 181 l 665 26 q 410 -21 551 -21 q 222 23 303 -21 q 97 149 142 67 q 53 342 53 231 q 144 626 53 525 q 403 726 235 726 m 394 568 q 263 429 283 568 l 522 429 q 483 536 513 504 q 394 568 453 568 z "},"é":{"ha":781,"x_min":53,"x_max":728,"o":"m 403 726 q 728 297 732 726 l 264 297 q 460 151 290 151 q 560 166 511 151 q 665 204 610 181 l 665 26 q 410 -21 551 -21 q 222 23 303 -21 q 97 149 142 67 q 53 342 53 231 q 144 626 53 525 q 403 726 235 726 m 394 568 q 263 429 283 568 l 522 429 q 483 536 513 504 q 394 568 453 568 m 336 785 l 401 957 l 604 957 l 450 785 l 336 785 z "},"ĕ":{"ha":781,"x_min":53,"x_max":728,"o":"m 403 726 q 728 297 732 726 l 264 297 q 460 151 290 151 q 560 166 511 151 q 665 204 610 181 l 665 26 q 410 -21 551 -21 q 222 23 303 -21 q 97 149 142 67 q 53 342 53 231 q 144 626 53 525 q 403 726 235 726 m 394 568 q 263 429 283 568 l 522 429 q 483 536 513 504 q 394 568 453 568 m 401 767 q 192 951 225 767 l 307 951 q 342 894 318 918 q 401 871 365 871 q 494 951 465 871 l 611 951 q 549 817 601 867 q 401 767 497 767 z "},"ě":{"ha":781,"x_min":53,"x_max":728,"o":"m 403 726 q 728 297 732 726 l 264 297 q 460 151 290 151 q 560 166 511 151 q 665 204 610 181 l 665 26 q 410 -21 551 -21 q 222 23 303 -21 q 97 149 142 67 q 53 342 53 231 q 144 626 53 525 q 403 726 235 726 m 394 568 q 263 429 283 568 l 522 429 q 483 536 513 504 q 394 568 453 568 m 317 803 l 204 971 l 336 971 l 396 890 l 456 971 l 588 971 l 486 803 l 317 803 z "},"ḝ":{"ha":781,"x_min":53,"x_max":732,"o":"m 401 767 q 192 951 226 767 l 307 951 q 342 894 318 918 q 401 871 365 871 q 494 951 465 871 l 611 951 q 549 817 601 867 q 401 767 497 767 m 403 726 q 728 297 732 726 l 264 297 q 460 151 290 151 q 560 166 511 151 q 665 204 610 181 l 665 26 q 542 -10 607 1 l 471 -185 l 285 -185 l 400 -21 q 217 25 296 -19 q 96 151 139 69 q 53 342 53 232 q 144 626 53 525 q 403 726 235 726 m 394 568 q 263 429 283 568 l 522 429 q 483 536 513 504 q 394 568 453 568 z "},"ê":{"ha":781,"x_min":53,"x_max":728,"o":"m 403 726 q 728 297 732 726 l 264 297 q 460 151 290 151 q 560 166 511 151 q 665 204 610 181 l 665 26 q 410 -21 551 -21 q 222 23 303 -21 q 97 149 142 67 q 53 342 53 231 q 144 626 53 525 q 403 726 235 726 m 394 568 q 263 429 283 568 l 522 429 q 483 536 513 504 q 394 568 453 568 m 206 793 l 328 961 l 496 961 l 617 793 l 479 793 l 411 875 l 343 793 l 206 793 z "},"ế":{"ha":781,"x_min":53,"x_max":835,"o":"m 403 726 q 728 297 732 726 l 264 297 q 460 151 290 151 q 560 166 511 151 q 665 204 610 181 l 665 26 q 410 -21 551 -21 q 222 23 303 -21 q 97 149 142 67 q 53 342 53 231 q 144 626 53 525 q 403 726 235 726 m 394 568 q 263 429 283 568 l 522 429 q 483 536 513 504 q 394 568 453 568 m 197 774 l 319 942 l 488 942 l 608 774 l 471 774 l 403 856 l 335 774 l 197 774 m 568 875 l 618 1032 l 835 1032 l 671 875 l 568 875 z "},"ệ":{"ha":781,"x_min":53,"x_max":728,"o":"m 403 726 q 728 297 732 726 l 264 297 q 460 151 290 151 q 560 166 511 151 q 665 204 610 181 l 665 26 q 410 -21 551 -21 q 222 23 303 -21 q 97 149 142 67 q 53 342 53 231 q 144 626 53 525 q 403 726 235 726 m 394 568 q 263 429 283 568 l 522 429 q 483 536 513 504 q 394 568 453 568 m 206 793 l 328 961 l 496 961 l 617 793 l 479 793 l 411 875 l 343 793 l 206 793 m 336 -208 l 336 -69 l 486 -69 l 486 -208 l 336 -208 z "},"ề":{"ha":781,"x_min":-24,"x_max":728,"o":"m 403 726 q 728 297 732 726 l 264 297 q 460 151 290 151 q 560 166 511 151 q 665 204 610 181 l 665 26 q 410 -21 551 -21 q 222 23 303 -21 q 97 149 142 67 q 53 342 53 231 q 144 626 53 525 q 403 726 235 726 m 394 568 q 263 429 283 568 l 522 429 q 483 536 513 504 q 394 568 453 568 m 206 774 l 328 942 l 496 942 l 617 774 l 479 774 l 411 856 l 343 774 l 206 774 m 111 874 l -24 1028 l 160 1028 l 225 874 l 111 874 z "},"ể":{"ha":781,"x_min":53,"x_max":754,"o":"m 403 726 q 728 297 732 726 l 264 297 q 460 151 290 151 q 560 166 511 151 q 665 204 610 181 l 665 26 q 410 -21 551 -21 q 222 23 303 -21 q 97 149 142 67 q 53 342 53 231 q 144 626 53 525 q 403 726 235 726 m 394 568 q 263 429 283 568 l 522 429 q 483 536 513 504 q 394 568 453 568 m 183 779 l 306 947 l 474 947 l 594 779 l 457 779 l 389 861 l 321 779 l 183 779 m 567 944 q 604 956 590 946 q 618 978 618 965 q 560 1011 618 1011 q 518 1007 542 1011 l 518 1088 q 599 1094 549 1094 q 711 1068 668 1094 q 754 986 754 1042 q 733 924 754 947 q 675 899 713 900 l 675 865 l 567 865 l 567 944 z "},"ễ":{"ha":781,"x_min":53,"x_max":728,"o":"m 403 726 q 728 297 732 726 l 264 297 q 460 151 290 151 q 560 166 511 151 q 665 204 610 181 l 665 26 q 410 -21 551 -21 q 222 23 303 -21 q 97 149 142 67 q 53 342 53 231 q 144 626 53 525 q 403 726 235 726 m 394 568 q 263 429 283 568 l 522 429 q 483 536 513 504 q 394 568 453 568 m 204 757 l 326 925 l 494 925 l 615 757 l 478 757 l 410 839 l 342 757 l 204 757 m 153 985 q 169 1082 150 1038 q 226 1153 189 1126 q 310 1179 263 1179 q 373 1166 344 1179 q 438 1128 401 1153 q 483 1099 464 1108 q 521 1090 501 1090 q 567 1172 572 1090 l 668 1172 q 626 1033 671 1085 q 513 981 581 981 q 434 996 465 981 q 367 1038 403 1011 q 329 1063 342 1056 q 301 1069 317 1069 q 260 1044 274 1069 q 249 985 246 1019 l 153 985 z "},"ȅ":{"ha":781,"x_min":53,"x_max":728,"o":"m 403 726 q 728 297 732 726 l 264 297 q 460 151 290 151 q 560 166 511 151 q 665 204 610 181 l 665 26 q 410 -21 551 -21 q 222 23 303 -21 q 97 149 142 67 q 53 342 53 231 q 144 626 53 525 q 403 726 235 726 m 394 568 q 263 429 283 568 l 522 429 q 483 536 513 504 q 394 568 453 568 m 249 785 l 94 957 l 297 957 l 361 785 l 249 785 m 504 785 l 350 957 l 553 957 l 617 785 l 504 785 z "},"ë":{"ha":781,"x_min":53,"x_max":728,"o":"m 403 726 q 728 297 732 726 l 264 297 q 460 151 290 151 q 560 166 511 151 q 665 204 610 181 l 665 26 q 410 -21 551 -21 q 222 23 303 -21 q 97 149 142 67 q 53 342 53 231 q 144 626 53 525 q 403 726 235 726 m 394 568 q 263 429 283 568 l 522 429 q 483 536 513 504 q 394 568 453 568 m 194 794 l 194 933 l 372 933 l 372 794 l 194 794 m 449 794 l 449 933 l 628 933 l 628 794 l 449 794 z "},"ė":{"ha":781,"x_min":53,"x_max":728,"o":"m 403 726 q 728 297 732 726 l 264 297 q 460 151 290 151 q 560 166 511 151 q 665 204 610 181 l 665 26 q 410 -21 551 -21 q 222 23 303 -21 q 97 149 142 67 q 53 342 53 231 q 144 626 53 525 q 403 726 235 726 m 394 568 q 263 429 283 568 l 522 429 q 483 536 513 504 q 394 568 453 568 m 304 785 l 304 924 l 472 924 l 472 785 l 304 785 z "},"ẹ":{"ha":781,"x_min":53,"x_max":728,"o":"m 403 726 q 728 297 732 726 l 264 297 q 460 151 290 151 q 560 166 511 151 q 665 204 610 181 l 665 26 q 410 -21 551 -21 q 222 23 303 -21 q 97 149 142 67 q 53 342 53 231 q 144 626 53 525 q 403 726 235 726 m 394 568 q 263 429 283 568 l 522 429 q 483 536 513 504 q 394 568 453 568 m 336 -208 l 336 -69 l 486 -69 l 486 -208 l 336 -208 z "},"è":{"ha":781,"x_min":53,"x_max":728,"o":"m 403 726 q 728 297 732 726 l 264 297 q 460 151 290 151 q 560 166 511 151 q 665 204 610 181 l 665 26 q 410 -21 551 -21 q 222 23 303 -21 q 97 149 142 67 q 53 342 53 231 q 144 626 53 525 q 403 726 235 726 m 394 568 q 263 429 283 568 l 522 429 q 483 536 513 504 q 394 568 453 568 m 349 785 l 194 957 l 397 957 l 461 785 l 349 785 z "},"ẻ":{"ha":781,"x_min":53,"x_max":728,"o":"m 403 726 q 728 297 732 726 l 264 297 q 460 151 290 151 q 560 166 511 151 q 665 204 610 181 l 665 26 q 410 -21 551 -21 q 222 23 303 -21 q 97 149 142 67 q 53 342 53 231 q 144 626 53 525 q 403 726 235 726 m 394 568 q 263 429 283 568 l 522 429 q 483 536 513 504 q 394 568 453 568 m 356 851 q 393 863 379 853 q 407 885 407 872 q 349 918 407 918 q 307 914 331 918 l 307 994 q 388 1001 338 1001 q 500 975 457 1001 q 543 893 543 949 q 522 831 543 854 q 464 806 501 807 l 464 772 l 356 772 l 356 851 z "},"ȇ":{"ha":781,"x_min":53,"x_max":728,"o":"m 403 726 q 728 297 732 726 l 264 297 q 460 151 290 151 q 560 166 511 151 q 665 204 610 181 l 665 26 q 410 -21 551 -21 q 222 23 303 -21 q 97 149 142 67 q 53 342 53 231 q 144 626 53 525 q 403 726 235 726 m 394 568 q 263 429 283 568 l 522 429 q 483 536 513 504 q 394 568 453 568 m 401 933 q 549 883 497 933 q 611 749 601 833 l 494 749 q 401 829 465 829 q 342 806 365 829 q 307 749 318 782 l 192 749 q 401 933 225 933 z "},"ē":{"ha":781,"x_min":53,"x_max":728,"o":"m 403 726 q 728 297 732 726 l 264 297 q 460 151 290 151 q 560 166 511 151 q 665 204 610 181 l 665 26 q 410 -21 551 -21 q 222 23 303 -21 q 97 149 142 67 q 53 342 53 231 q 144 626 53 525 q 403 726 235 726 m 394 568 q 263 429 283 568 l 522 429 q 483 536 513 504 q 394 568 453 568 m 204 786 l 204 918 l 588 918 l 588 786 l 204 786 z "},"ḗ":{"ha":781,"x_min":53,"x_max":728,"o":"m 403 726 q 728 297 732 726 l 264 297 q 460 151 290 151 q 560 166 511 151 q 665 204 610 181 l 665 26 q 410 -21 551 -21 q 222 23 303 -21 q 97 149 142 67 q 53 342 53 231 q 144 626 53 525 q 403 726 235 726 m 394 568 q 263 429 283 568 l 522 429 q 483 536 513 504 q 394 568 453 568 m 204 786 l 204 918 l 588 918 l 588 786 l 204 786 m 336 981 l 401 1153 l 604 1153 l 450 981 l 336 981 z "},"ḕ":{"ha":781,"x_min":53,"x_max":728,"o":"m 403 726 q 728 297 732 726 l 264 297 q 460 151 290 151 q 560 166 511 151 q 665 204 610 181 l 665 26 q 410 -21 551 -21 q 222 23 303 -21 q 97 149 142 67 q 53 342 53 231 q 144 626 53 525 q 403 726 235 726 m 394 568 q 263 429 283 568 l 522 429 q 483 536 513 504 q 394 568 453 568 m 204 786 l 204 918 l 588 918 l 588 786 l 204 786 m 349 981 l 194 1153 l 397 1153 l 461 981 l 349 981 z "},"ę":{"ha":781,"x_min":53,"x_max":732,"o":"m 403 726 q 728 297 732 726 l 264 297 q 460 151 290 151 q 560 166 511 151 q 665 204 610 181 l 665 26 l 642 17 l 643 17 q 545 -36 582 -8 q 508 -90 508 -64 q 521 -129 508 -118 q 557 -140 533 -140 q 647 -93 597 -140 l 647 -211 q 592 -235 621 -226 q 521 -244 564 -244 q 388 -211 431 -244 q 344 -111 344 -178 q 389 -21 344 -62 q 213 28 289 -17 q 94 153 136 72 q 53 342 53 233 q 144 626 53 525 q 403 726 235 726 m 394 568 q 263 429 283 568 l 522 429 q 483 536 513 504 q 394 568 453 568 z "},"ẽ":{"ha":781,"x_min":53,"x_max":728,"o":"m 403 726 q 728 297 732 726 l 264 297 q 460 151 290 151 q 560 166 511 151 q 665 204 610 181 l 665 26 q 410 -21 551 -21 q 222 23 303 -21 q 97 149 142 67 q 53 342 53 231 q 144 626 53 525 q 403 726 235 726 m 394 568 q 263 429 283 568 l 522 429 q 483 536 513 504 q 394 568 453 568 m 154 776 q 171 874 151 829 q 227 944 190 918 q 311 971 264 971 q 374 958 346 971 q 439 919 403 944 q 484 891 465 900 q 522 882 503 882 q 568 964 574 882 l 669 964 q 627 824 672 876 q 514 772 582 772 q 435 788 467 772 q 368 829 404 803 q 331 854 343 847 q 303 861 318 861 q 261 836 275 861 q 250 776 247 811 l 154 776 z "},"ə":{"ha":781,"x_min":49,"x_max":728,"o":"m 371 714 q 558 670 478 714 q 683 544 639 626 q 728 351 728 463 q 637 67 728 168 q 378 -33 546 -33 q 53 396 49 -33 l 517 396 q 321 542 490 542 q 220 527 269 542 q 115 489 171 513 l 115 667 q 371 714 229 714 m 386 125 q 518 264 497 125 l 258 264 q 298 157 268 189 q 386 125 328 125 z "},"f":{"ha":547,"x_min":42,"x_max":506,"o":"m 144 544 l 42 544 l 42 703 l 146 703 l 146 719 q 219 940 147 878 q 414 1001 290 1001 q 463 997 436 1001 q 506 988 489 993 l 506 806 q 475 828 490 821 q 436 836 460 836 q 375 815 397 836 q 353 744 353 794 l 353 703 l 506 703 l 506 544 l 351 544 l 351 0 l 144 0 l 144 544 z "},"g":{"ha":824,"x_min":53,"x_max":742,"o":"m 446 722 q 662 673 582 722 q 742 533 742 624 l 742 -8 q 649 -232 742 -154 q 383 -310 556 -310 q 228 -297 294 -310 q 124 -264 161 -285 l 124 -82 q 236 -119 164 -101 q 375 -137 308 -137 q 502 -101 465 -137 q 539 0 539 -65 l 539 40 q 361 -21 468 -21 q 133 73 214 -14 q 53 329 53 160 q 153 635 53 549 q 446 722 254 722 m 258 342 q 301 190 258 246 q 414 133 343 133 q 539 165 483 133 l 539 488 q 428 558 539 558 q 258 342 258 558 z "},"ğ":{"ha":824,"x_min":53,"x_max":742,"o":"m 446 722 q 662 673 582 722 q 742 533 742 624 l 742 -8 q 649 -232 742 -154 q 383 -310 556 -310 q 228 -297 294 -310 q 124 -264 161 -285 l 124 -82 q 236 -119 164 -101 q 375 -137 308 -137 q 502 -101 465 -137 q 539 0 539 -65 l 539 40 q 361 -21 468 -21 q 133 73 214 -14 q 53 329 53 160 q 153 635 53 549 q 446 722 254 722 m 258 342 q 301 190 258 246 q 414 133 343 133 q 539 165 483 133 l 539 488 q 428 558 539 558 q 258 342 258 558 m 453 776 q 243 961 276 776 l 358 961 q 393 904 369 928 q 453 881 417 881 q 546 961 517 881 l 663 961 q 601 826 653 876 q 453 776 549 776 z "},"ǧ":{"ha":824,"x_min":53,"x_max":742,"o":"m 446 722 q 662 673 582 722 q 742 533 742 624 l 742 -8 q 649 -232 742 -154 q 383 -310 556 -310 q 228 -297 294 -310 q 124 -264 161 -285 l 124 -82 q 236 -119 164 -101 q 375 -137 308 -137 q 502 -101 465 -137 q 539 0 539 -65 l 539 40 q 361 -21 468 -21 q 133 73 214 -14 q 53 329 53 160 q 153 635 53 549 q 446 722 254 722 m 258 342 q 301 190 258 246 q 414 133 343 133 q 539 165 483 133 l 539 488 q 428 558 539 558 q 258 342 258 558 m 368 813 l 256 981 l 388 981 l 447 900 l 507 981 l 639 981 l 538 813 l 368 813 z "},"ĝ":{"ha":824,"x_min":53,"x_max":742,"o":"m 446 722 q 662 673 582 722 q 742 533 742 624 l 742 -8 q 649 -232 742 -154 q 383 -310 556 -310 q 228 -297 294 -310 q 124 -264 161 -285 l 124 -82 q 236 -119 164 -101 q 375 -137 308 -137 q 502 -101 465 -137 q 539 0 539 -65 l 539 40 q 361 -21 468 -21 q 133 73 214 -14 q 53 329 53 160 q 153 635 53 549 q 446 722 254 722 m 258 342 q 301 190 258 246 q 414 133 343 133 q 539 165 483 133 l 539 488 q 428 558 539 558 q 258 342 258 558 m 257 803 l 379 971 l 547 971 l 668 803 l 531 803 l 463 885 l 394 803 l 257 803 z "},"ģ":{"ha":824,"x_min":53,"x_max":742,"o":"m 358 792 q 413 935 356 881 q 568 992 469 989 l 568 896 q 525 863 536 888 q 514 792 514 838 l 358 792 m 446 722 q 662 673 582 722 q 742 533 742 624 l 742 -8 q 649 -232 742 -154 q 383 -310 556 -310 q 228 -297 294 -310 q 124 -264 161 -285 l 124 -82 q 236 -119 164 -101 q 375 -137 308 -137 q 502 -101 465 -137 q 539 0 539 -65 l 539 40 q 361 -21 468 -21 q 133 73 214 -14 q 53 329 53 160 q 153 635 53 549 q 446 722 254 722 m 258 342 q 301 190 258 246 q 414 133 343 133 q 539 165 483 133 l 539 488 q 428 558 539 558 q 258 342 258 558 z "},"ġ":{"ha":824,"x_min":53,"x_max":742,"o":"m 446 722 q 662 673 582 722 q 742 533 742 624 l 742 -8 q 649 -232 742 -154 q 383 -310 556 -310 q 228 -297 294 -310 q 124 -264 161 -285 l 124 -82 q 236 -119 164 -101 q 375 -137 308 -137 q 502 -101 465 -137 q 539 0 539 -65 l 539 40 q 361 -21 468 -21 q 133 73 214 -14 q 53 329 53 160 q 153 635 53 549 q 446 722 254 722 m 258 342 q 301 190 258 246 q 414 133 343 133 q 539 165 483 133 l 539 488 q 428 558 539 558 q 258 342 258 558 m 356 794 l 356 933 l 524 933 l 524 794 l 356 794 z "},"ḡ":{"ha":824,"x_min":53,"x_max":742,"o":"m 446 722 q 662 673 582 722 q 742 533 742 624 l 742 -8 q 649 -232 742 -154 q 383 -310 556 -310 q 228 -297 294 -310 q 124 -264 161 -285 l 124 -82 q 236 -119 164 -101 q 375 -137 308 -137 q 502 -101 465 -137 q 539 0 539 -65 l 539 40 q 361 -21 468 -21 q 133 73 214 -14 q 53 329 53 160 q 153 635 53 549 q 446 722 254 722 m 258 342 q 301 190 258 246 q 414 133 343 133 q 539 165 483 133 l 539 488 q 428 558 539 558 q 258 342 258 558 m 256 796 l 256 928 l 639 928 l 639 796 l 256 796 z "},"h":{"ha":849,"x_min":92,"x_max":757,"o":"m 499 722 q 689 661 621 722 q 757 461 757 600 l 757 0 l 550 0 l 550 418 q 417 551 550 551 q 351 542 385 551 q 300 518 318 532 l 297 0 l 92 0 l 92 981 l 300 981 l 300 671 q 499 722 396 722 z "},"ħ":{"ha":849,"x_min":-4,"x_max":757,"o":"m 499 722 q 689 661 621 722 q 757 461 757 600 l 757 0 l 550 0 l 550 418 q 417 551 550 551 q 351 542 385 551 q 300 518 318 532 l 297 0 l 92 0 l 92 763 l -4 763 l -4 889 l 92 889 l 92 981 l 300 981 l 300 889 l 413 889 l 413 763 l 300 763 l 300 671 q 499 722 396 722 z "},"ḫ":{"ha":849,"x_min":92,"x_max":757,"o":"m 499 722 q 689 661 621 722 q 757 461 757 600 l 757 0 l 550 0 l 550 418 q 417 551 550 551 q 351 542 385 551 q 300 518 318 532 l 297 0 l 92 0 l 92 981 l 300 981 l 300 671 q 499 722 396 722 m 417 -233 q 207 -49 240 -233 l 322 -49 q 357 -106 333 -82 q 417 -129 381 -129 q 510 -49 481 -129 l 626 -49 q 565 -183 617 -133 q 417 -233 513 -233 z "},"ĥ":{"ha":849,"x_min":-15,"x_max":757,"o":"m 499 722 q 689 661 621 722 q 757 461 757 600 l 757 0 l 550 0 l 550 418 q 417 551 550 551 q 351 542 385 551 q 300 518 318 532 l 297 0 l 92 0 l 92 981 l 300 981 l 300 671 q 499 722 396 722 m -15 1035 l 107 1203 l 275 1203 l 396 1035 l 258 1035 l 190 1117 l 122 1035 l -15 1035 z "},"i":{"ha":397,"x_min":92,"x_max":306,"o":"m 92 799 l 92 958 l 306 958 l 306 799 l 92 799 m 96 0 l 96 693 l 303 693 l 304 0 l 96 0 z "},"ı":{"ha":392,"x_min":92,"x_max":300,"o":"m 92 0 l 92 693 l 299 693 l 300 0 l 92 0 z "},"í":{"ha":461,"x_min":135,"x_max":411,"o":"m 182 775 l 267 938 l 411 938 l 286 775 l 182 775 m 135 0 l 135 693 l 332 693 l 332 0 l 135 0 z "},"ĭ":{"ha":392,"x_min":-14,"x_max":406,"o":"m 92 0 l 92 693 l 299 693 l 300 0 l 92 0 m 196 747 q -14 932 19 747 l 101 932 q 136 875 113 899 q 196 851 160 851 q 289 932 260 851 l 406 932 q 344 797 396 847 q 196 747 292 747 z "},"ǐ":{"ha":392,"x_min":-1,"x_max":382,"o":"m 92 0 l 92 693 l 299 693 l 300 0 l 92 0 m 111 783 l -1 951 l 131 951 l 190 871 l 250 951 l 382 951 l 281 783 l 111 783 z "},"î":{"ha":461,"x_min":51,"x_max":415,"o":"m 51 775 l 201 944 l 265 944 l 415 775 l 293 775 l 233 847 l 174 775 l 51 775 m 135 0 l 135 693 l 332 693 l 332 0 l 135 0 z "},"ȉ":{"ha":392,"x_min":-111,"x_max":411,"o":"m 92 0 l 92 693 l 299 693 l 300 0 l 92 0 m 43 765 l -111 938 l 92 938 l 156 765 l 43 765 m 299 765 l 144 938 l 347 938 l 411 765 l 299 765 z "},"ï":{"ha":461,"x_min":44,"x_max":421,"o":"m 44 775 l 44 914 l 194 914 l 194 775 l 44 775 m 272 775 l 272 914 l 421 914 l 421 775 l 272 775 m 135 0 l 135 693 l 332 693 l 332 0 l 135 0 z "},"ḯ":{"ha":392,"x_min":-11,"x_max":422,"o":"m 92 0 l 92 693 l 299 693 l 300 0 l 92 0 m -11 775 l -11 914 l 167 914 l 167 775 l -11 775 m 243 775 l 243 914 l 422 914 l 422 775 l 243 775 m 131 986 l 196 1158 l 399 1158 l 244 986 l 131 986 z "},"ị":{"ha":461,"x_min":131,"x_max":336,"o":"m 131 786 l 131 946 l 336 946 l 336 786 l 131 786 m 135 0 l 135 693 l 332 693 l 332 0 l 135 0 m 158 -208 l 158 -69 l 308 -69 l 308 -208 l 158 -208 z "},"ì":{"ha":461,"x_min":56,"x_max":332,"o":"m 181 782 l 56 944 l 200 944 l 285 782 l 181 782 m 135 0 l 135 693 l 332 693 l 332 0 l 135 0 z "},"ỉ":{"ha":461,"x_min":135,"x_max":338,"o":"m 197 854 q 227 862 215 856 q 239 879 239 868 q 225 903 239 896 q 189 911 211 911 q 149 907 172 911 l 149 976 q 210 982 174 982 q 301 957 264 982 q 338 883 338 932 q 314 830 338 847 q 268 808 290 813 l 268 775 l 197 775 l 197 854 m 135 0 l 135 693 l 332 693 l 332 0 l 135 0 z "},"ȋ":{"ha":392,"x_min":-14,"x_max":406,"o":"m 92 0 l 92 693 l 299 693 l 300 0 l 92 0 m 196 914 q 344 864 292 914 q 406 729 396 814 l 289 729 q 196 810 260 810 q 136 786 160 810 q 101 729 113 763 l -14 729 q 196 914 19 914 z "},"ĳ":{"ha":819,"x_min":92,"x_max":728,"o":"m 92 799 l 92 958 l 306 958 l 306 799 l 92 799 m 96 0 l 96 693 l 303 693 l 304 0 l 96 0 m 514 808 l 514 968 l 728 968 l 728 808 l 514 808 m 407 -100 q 428 -101 414 -101 q 517 -6 517 -101 l 517 703 l 724 703 l 726 -6 q 641 -208 726 -147 q 407 -268 556 -268 l 407 -100 z "},"ī":{"ha":461,"x_min":71,"x_max":396,"o":"m 71 781 l 71 889 l 396 889 l 396 781 l 71 781 m 135 0 l 135 693 l 332 693 l 332 0 l 135 0 z "},"į":{"ha":397,"x_min":7,"x_max":310,"o":"m 306 958 l 306 799 l 92 799 l 92 958 l 306 958 m 219 -156 q 310 -108 260 -156 l 310 -226 q 255 -251 283 -242 q 183 -260 226 -260 q 50 -226 93 -260 q 7 -126 7 -193 q 101 0 7 -56 l 96 0 l 96 693 l 303 693 l 304 1 l 306 1 l 304 1 l 304 0 l 303 0 q 171 -107 171 -56 q 183 -145 171 -135 q 219 -156 196 -156 z "},"ĩ":{"ha":392,"x_min":-51,"x_max":464,"o":"m 92 0 l 92 693 l 299 693 l 300 0 l 92 0 m -51 757 q -35 854 -54 810 q 22 925 -15 899 q 106 951 58 951 q 169 938 140 951 q 233 900 197 925 q 278 872 260 881 q 317 863 297 863 q 363 944 368 863 l 464 944 q 422 805 467 857 q 308 753 376 753 q 230 768 261 753 q 163 810 199 783 q 125 835 138 828 q 97 842 113 842 q 56 817 69 842 q 44 757 42 792 l -51 757 z "},"j":{"ha":422,"x_min":10,"x_max":331,"o":"m 117 808 l 117 968 l 331 968 l 331 808 l 117 808 m 10 -100 q 31 -101 17 -101 q 119 -6 119 -101 l 119 703 l 326 703 l 329 -6 q 244 -208 329 -147 q 10 -268 158 -268 l 10 -100 z "},"ȷ":{"ha":425,"x_min":4,"x_max":324,"o":"m 4 -119 q 94 -97 63 -119 q 126 -18 126 -74 l 126 693 l 324 693 l 324 -6 q 239 -208 324 -147 q 4 -268 154 -268 l 4 -119 z "},"ĵ":{"ha":419,"x_min":4,"x_max":407,"o":"m 43 775 l 193 944 l 257 944 l 407 775 l 285 775 l 225 847 l 165 775 l 43 775 m 4 -119 q 94 -97 63 -119 q 126 -18 126 -74 l 126 693 l 324 693 l 324 -6 q 239 -208 324 -147 q 4 -268 154 -268 l 4 -119 z "},"k":{"ha":817,"x_min":92,"x_max":781,"o":"m 781 0 l 518 0 l 299 290 l 297 0 l 92 0 l 92 968 l 300 968 l 299 443 l 511 703 l 763 703 l 472 397 l 781 0 z "},"ķ":{"ha":856,"x_min":124,"x_max":803,"o":"m 124 0 l 124 954 l 321 954 l 321 474 l 517 693 l 771 693 l 485 383 l 803 0 l 561 0 l 363 247 l 321 203 l 321 0 l 124 0 m 328 -183 q 370 -147 358 -175 q 382 -69 382 -118 l 499 -69 q 477 -172 500 -126 q 415 -242 454 -217 q 328 -269 375 -267 l 328 -183 z "},"ĸ":{"ha":856,"x_min":124,"x_max":803,"o":"m 124 0 l 124 693 l 321 693 l 321 474 l 517 693 l 771 693 l 485 383 l 803 0 l 561 0 l 363 247 l 321 203 l 321 0 l 124 0 z "},"l":{"ha":389,"x_min":92,"x_max":297,"o":"m 297 0 l 92 0 l 92 968 l 297 968 l 297 0 z "},"ĺ":{"ha":389,"x_min":92,"x_max":407,"o":"m 297 0 l 92 0 l 92 968 l 297 968 l 297 0 m 140 1008 l 190 1165 l 407 1165 l 243 1008 l 140 1008 z "},"ľ":{"ha":518,"x_min":140,"x_max":575,"o":"m 140 0 l 140 957 l 338 957 l 338 0 l 140 0 m 403 843 q 446 881 433 851 q 457 957 458 910 l 574 957 q 552 856 575 900 q 490 785 529 811 q 403 757 450 760 l 403 843 z "},"ļ":{"ha":389,"x_min":79,"x_max":297,"o":"m 297 0 l 92 0 l 92 968 l 297 968 l 297 0 m 79 -174 q 122 -140 111 -165 q 133 -69 133 -115 l 289 -69 q 235 -212 292 -158 q 79 -269 178 -267 l 79 -174 z "},"ŀ":{"ha":389,"x_min":92,"x_max":297,"o":"m 297 0 l 92 0 l 92 968 l 297 968 l 297 0 m 106 278 l 106 446 l 279 446 l 279 278 l 106 278 z "},"ḷ":{"ha":389,"x_min":92,"x_max":297,"o":"m 297 0 l 92 0 l 92 968 l 297 968 l 297 0 m 119 -208 l 119 -69 l 269 -69 l 269 -208 l 119 -208 z "},"ǉ":{"ha":811,"x_min":92,"x_max":719,"o":"m 297 0 l 92 0 l 92 968 l 297 968 l 297 0 m 506 808 l 506 968 l 719 968 l 719 808 l 506 808 m 399 -100 q 419 -101 406 -101 q 508 -6 508 -101 l 508 703 l 715 703 l 718 -6 q 633 -208 718 -147 q 399 -268 547 -268 l 399 -100 z "},"ḻ":{"ha":389,"x_min":1,"x_max":385,"o":"m 297 0 l 92 0 l 92 968 l 297 968 l 297 0 m 1 -200 l 1 -68 l 385 -68 l 385 -200 l 1 -200 z "},"ł":{"ha":532,"x_min":32,"x_max":511,"o":"m 156 0 l 156 351 l 32 281 l 32 426 l 156 497 l 156 957 l 353 957 l 353 608 l 511 700 l 511 554 l 353 463 l 353 0 l 156 0 z "},"m":{"ha":1272,"x_min":92,"x_max":1181,"o":"m 892 722 q 1110 665 1039 722 q 1181 472 1181 607 l 1181 0 l 974 0 l 974 431 q 838 551 974 551 q 742 525 781 551 q 744 472 744 492 l 744 0 l 538 0 l 538 431 q 401 551 538 551 q 299 528 346 551 l 299 0 l 92 0 l 92 643 q 257 697 146 672 q 456 722 368 722 q 663 672 596 722 q 777 709 717 696 q 892 722 838 722 z "},"ṃ":{"ha":1272,"x_min":92,"x_max":1181,"o":"m 892 722 q 1110 665 1039 722 q 1181 472 1181 607 l 1181 0 l 974 0 l 974 431 q 838 551 974 551 q 742 525 781 551 q 744 472 744 492 l 744 0 l 538 0 l 538 431 q 401 551 538 551 q 299 528 346 551 l 299 0 l 92 0 l 92 643 q 257 697 146 672 q 456 722 368 722 q 663 672 596 722 q 777 709 717 696 q 892 722 838 722 m 561 -208 l 561 -69 l 711 -69 l 711 -208 l 561 -208 z "},"n":{"ha":846,"x_min":92,"x_max":754,"o":"m 92 643 q 257 697 146 672 q 456 722 368 722 q 679 664 604 722 q 754 472 754 606 l 754 0 l 547 0 l 547 431 q 411 551 547 551 q 349 544 381 551 q 299 528 317 538 l 299 0 l 92 0 l 92 643 z "},"ń":{"ha":846,"x_min":92,"x_max":754,"o":"m 92 643 q 257 697 146 672 q 456 722 368 722 q 679 664 604 722 q 754 472 754 606 l 754 0 l 547 0 l 547 431 q 411 551 547 551 q 349 544 381 551 q 299 528 317 538 l 299 0 l 92 0 l 92 643 m 357 785 l 422 957 l 625 957 l 471 785 l 357 785 z "},"ŉ":{"ha":871,"x_min":47,"x_max":749,"o":"m 47 808 q 91 845 79 817 q 101 922 103 874 l 219 922 q 170 781 221 836 q 47 722 119 725 l 47 808 m 114 625 q 248 676 163 649 q 443 704 333 704 q 667 629 585 704 q 749 421 749 554 l 749 0 l 551 0 l 551 447 q 525 519 551 490 q 415 547 499 547 q 311 533 360 547 l 311 0 l 114 0 l 114 625 z "},"ň":{"ha":846,"x_min":92,"x_max":754,"o":"m 92 643 q 257 697 146 672 q 456 722 368 722 q 679 664 604 722 q 754 472 754 606 l 754 0 l 547 0 l 547 431 q 411 551 547 551 q 349 544 381 551 q 299 528 317 538 l 299 0 l 92 0 l 92 643 m 338 803 l 225 971 l 357 971 l 417 890 l 476 971 l 608 971 l 507 803 l 338 803 z "},"ņ":{"ha":846,"x_min":92,"x_max":754,"o":"m 92 643 q 257 697 146 672 q 456 722 368 722 q 679 664 604 722 q 754 472 754 606 l 754 0 l 547 0 l 547 431 q 411 551 547 551 q 349 544 381 551 q 299 528 317 538 l 299 0 l 92 0 l 92 643 m 307 -174 q 350 -140 339 -165 q 361 -69 361 -115 l 517 -69 q 463 -212 519 -158 q 307 -269 406 -267 l 307 -174 z "},"ṅ":{"ha":846,"x_min":92,"x_max":754,"o":"m 92 643 q 257 697 146 672 q 456 722 368 722 q 679 664 604 722 q 754 472 754 606 l 754 0 l 547 0 l 547 431 q 411 551 547 551 q 349 544 381 551 q 299 528 317 538 l 299 0 l 92 0 l 92 643 m 325 785 l 325 924 l 493 924 l 493 785 l 325 785 z "},"ṇ":{"ha":846,"x_min":92,"x_max":754,"o":"m 92 643 q 257 697 146 672 q 456 722 368 722 q 679 664 604 722 q 754 472 754 606 l 754 0 l 547 0 l 547 431 q 411 551 547 551 q 349 544 381 551 q 299 528 317 538 l 299 0 l 92 0 l 92 643 m 347 -208 l 347 -69 l 497 -69 l 497 -208 l 347 -208 z "},"ŋ":{"ha":864,"x_min":89,"x_max":728,"o":"m 89 592 q 232 667 139 631 q 414 704 325 704 q 643 645 558 704 q 728 457 728 586 l 728 -4 q 641 -202 728 -144 q 403 -260 554 -260 l 403 -101 q 493 -78 461 -101 q 525 0 525 -56 l 525 397 q 497 491 525 457 q 397 525 468 525 q 343 517 367 525 q 292 496 319 508 l 292 0 l 89 0 l 89 592 z "},"ɲ":{"ha":846,"x_min":-19,"x_max":754,"o":"m 92 643 q 257 697 146 672 q 456 722 368 722 q 679 664 604 722 q 754 472 754 606 l 754 0 l 547 0 l 547 431 q 411 551 547 551 q 349 544 381 551 q 299 528 317 538 l 299 7 q 215 -195 299 -135 q -19 -256 131 -256 l -19 -87 q 3 -89 -11 -89 q 92 7 92 -89 l 92 643 z "},"ǌ":{"ha":1268,"x_min":92,"x_max":1176,"o":"m 92 643 q 257 697 146 672 q 456 722 368 722 q 679 664 604 722 q 754 472 754 606 l 754 0 l 547 0 l 547 431 q 411 551 547 551 q 349 544 381 551 q 299 528 317 538 l 299 0 l 92 0 l 92 643 m 963 808 l 963 968 l 1176 968 l 1176 808 l 963 808 m 856 -100 q 876 -101 863 -101 q 965 -6 965 -101 l 965 703 l 1172 703 l 1175 -6 q 1090 -208 1175 -147 q 856 -268 1004 -268 l 856 -100 z "},"ṉ":{"ha":846,"x_min":92,"x_max":754,"o":"m 92 643 q 257 697 146 672 q 456 722 368 722 q 679 664 604 722 q 754 472 754 606 l 754 0 l 547 0 l 547 431 q 411 551 547 551 q 349 544 381 551 q 299 528 317 538 l 299 0 l 92 0 l 92 643 m 229 -200 l 229 -68 l 613 -68 l 613 -200 l 229 -200 z "},"ñ":{"ha":846,"x_min":92,"x_max":754,"o":"m 92 643 q 257 697 146 672 q 456 722 368 722 q 679 664 604 722 q 754 472 754 606 l 754 0 l 547 0 l 547 431 q 411 551 547 551 q 349 544 381 551 q 299 528 317 538 l 299 0 l 92 0 l 92 643 m 175 776 q 192 874 172 829 q 248 944 211 918 q 332 971 285 971 q 395 958 367 971 q 460 919 424 944 q 505 891 486 900 q 543 882 524 882 q 589 964 594 882 l 690 964 q 648 824 693 876 q 535 772 603 772 q 456 788 488 772 q 389 829 425 803 q 351 854 364 847 q 324 861 339 861 q 282 836 296 861 q 271 776 268 811 l 175 776 z "},"o":{"ha":819,"x_min":53,"x_max":768,"o":"m 408 -21 q 142 74 231 -21 q 53 354 53 168 q 141 638 53 549 q 408 726 229 726 q 678 635 588 726 q 768 354 768 544 q 675 75 768 171 q 408 -21 582 -21 m 408 144 q 524 198 485 144 q 563 354 563 251 q 524 515 563 467 q 408 563 486 563 q 292 515 328 563 q 257 354 257 467 q 294 196 257 247 q 408 144 331 144 z "},"ó":{"ha":819,"x_min":53,"x_max":768,"o":"m 408 -21 q 142 74 231 -21 q 53 354 53 168 q 141 638 53 549 q 408 726 229 726 q 678 635 588 726 q 768 354 768 544 q 675 75 768 171 q 408 -21 582 -21 m 408 144 q 524 198 485 144 q 563 354 563 251 q 524 515 563 467 q 408 563 486 563 q 292 515 328 563 q 257 354 257 467 q 294 196 257 247 q 408 144 331 144 m 346 794 l 411 967 l 614 967 l 460 794 l 346 794 z "},"ŏ":{"ha":819,"x_min":53,"x_max":768,"o":"m 408 -21 q 142 74 231 -21 q 53 354 53 168 q 141 638 53 549 q 408 726 229 726 q 678 635 588 726 q 768 354 768 544 q 675 75 768 171 q 408 -21 582 -21 m 408 144 q 524 198 485 144 q 563 354 563 251 q 524 515 563 467 q 408 563 486 563 q 292 515 328 563 q 257 354 257 467 q 294 196 257 247 q 408 144 331 144 m 411 776 q 201 961 235 776 l 317 961 q 351 904 328 928 q 411 881 375 881 q 504 961 475 881 l 621 961 q 559 826 611 876 q 411 776 507 776 z "},"ǒ":{"ha":819,"x_min":53,"x_max":768,"o":"m 408 -21 q 142 74 231 -21 q 53 354 53 168 q 141 638 53 549 q 408 726 229 726 q 678 635 588 726 q 768 354 768 544 q 675 75 768 171 q 408 -21 582 -21 m 408 144 q 524 198 485 144 q 563 354 563 251 q 524 515 563 467 q 408 563 486 563 q 292 515 328 563 q 257 354 257 467 q 294 196 257 247 q 408 144 331 144 m 326 813 l 214 981 l 346 981 l 406 900 l 465 981 l 597 981 l 496 813 l 326 813 z "},"ô":{"ha":819,"x_min":53,"x_max":768,"o":"m 408 -21 q 142 74 231 -21 q 53 354 53 168 q 141 638 53 549 q 408 726 229 726 q 678 635 588 726 q 768 354 768 544 q 675 75 768 171 q 408 -21 582 -21 m 408 144 q 524 198 485 144 q 563 354 563 251 q 524 515 563 467 q 408 563 486 563 q 292 515 328 563 q 257 354 257 467 q 294 196 257 247 q 408 144 331 144 m 215 803 l 338 971 l 506 971 l 626 803 l 489 803 l 421 885 l 353 803 l 215 803 z "},"ố":{"ha":819,"x_min":53,"x_max":844,"o":"m 408 -21 q 142 74 231 -21 q 53 354 53 168 q 141 638 53 549 q 408 726 229 726 q 678 635 588 726 q 768 354 768 544 q 675 75 768 171 q 408 -21 582 -21 m 408 144 q 524 198 485 144 q 563 354 563 251 q 524 515 563 467 q 408 563 486 563 q 292 515 328 563 q 257 354 257 467 q 294 196 257 247 q 408 144 331 144 m 207 783 l 329 951 l 497 951 l 618 783 l 481 783 l 413 865 l 344 783 l 207 783 m 578 885 l 628 1042 l 844 1042 l 681 885 l 578 885 z "},"ộ":{"ha":819,"x_min":53,"x_max":768,"o":"m 408 -21 q 142 74 231 -21 q 53 354 53 168 q 141 638 53 549 q 408 726 229 726 q 678 635 588 726 q 768 354 768 544 q 675 75 768 171 q 408 -21 582 -21 m 408 144 q 524 198 485 144 q 563 354 563 251 q 524 515 563 467 q 408 563 486 563 q 292 515 328 563 q 257 354 257 467 q 294 196 257 247 q 408 144 331 144 m 215 803 l 338 971 l 506 971 l 626 803 l 489 803 l 421 885 l 353 803 l 215 803 m 336 -208 l 336 -69 l 486 -69 l 486 -208 l 336 -208 z "},"ồ":{"ha":819,"x_min":-14,"x_max":768,"o":"m 408 -21 q 142 74 231 -21 q 53 354 53 168 q 141 638 53 549 q 408 726 229 726 q 678 635 588 726 q 768 354 768 544 q 675 75 768 171 q 408 -21 582 -21 m 408 144 q 524 198 485 144 q 563 354 563 251 q 524 515 563 467 q 408 563 486 563 q 292 515 328 563 q 257 354 257 467 q 294 196 257 247 q 408 144 331 144 m 215 783 l 338 951 l 506 951 l 626 783 l 489 783 l 421 865 l 353 783 l 215 783 m 121 883 l -14 1038 l 169 1038 l 235 883 l 121 883 z "},"ổ":{"ha":819,"x_min":53,"x_max":768,"o":"m 408 -21 q 142 74 231 -21 q 53 354 53 168 q 141 638 53 549 q 408 726 229 726 q 678 635 588 726 q 768 354 768 544 q 675 75 768 171 q 408 -21 582 -21 m 408 144 q 524 198 485 144 q 563 354 563 251 q 524 515 563 467 q 408 563 486 563 q 292 515 328 563 q 257 354 257 467 q 294 196 257 247 q 408 144 331 144 m 193 789 l 315 957 l 483 957 l 604 789 l 467 789 l 399 871 l 331 789 l 193 789 m 576 954 q 614 965 600 956 q 628 988 628 975 q 569 1021 628 1021 q 528 1017 551 1021 l 528 1097 q 608 1104 558 1104 q 721 1078 678 1104 q 764 996 764 1051 q 743 933 764 957 q 685 908 722 910 l 685 875 l 576 875 l 576 954 z "},"ỗ":{"ha":819,"x_min":53,"x_max":768,"o":"m 408 -21 q 142 74 231 -21 q 53 354 53 168 q 141 638 53 549 q 408 726 229 726 q 678 635 588 726 q 768 354 768 544 q 675 75 768 171 q 408 -21 582 -21 m 408 144 q 524 198 485 144 q 563 354 563 251 q 524 515 563 467 q 408 563 486 563 q 292 515 328 563 q 257 354 257 467 q 294 196 257 247 q 408 144 331 144 m 214 767 l 336 935 l 504 935 l 625 767 l 488 767 l 419 849 l 351 767 l 214 767 m 163 994 q 179 1092 160 1047 q 235 1163 199 1136 q 319 1189 272 1189 q 383 1176 354 1189 q 447 1138 411 1163 q 492 1109 474 1118 q 531 1100 511 1100 q 576 1182 582 1100 l 678 1182 q 635 1042 681 1094 q 522 990 590 990 q 444 1006 475 990 q 376 1047 413 1021 q 339 1072 351 1065 q 311 1079 326 1079 q 269 1054 283 1079 q 258 994 256 1029 l 163 994 z "},"ȍ":{"ha":819,"x_min":53,"x_max":768,"o":"m 408 -21 q 142 74 231 -21 q 53 354 53 168 q 141 638 53 549 q 408 726 229 726 q 678 635 588 726 q 768 354 768 544 q 675 75 768 171 q 408 -21 582 -21 m 408 144 q 524 198 485 144 q 563 354 563 251 q 524 515 563 467 q 408 563 486 563 q 292 515 328 563 q 257 354 257 467 q 294 196 257 247 q 408 144 331 144 m 258 794 l 104 967 l 307 967 l 371 794 l 258 794 m 514 794 l 360 967 l 563 967 l 626 794 l 514 794 z "},"ö":{"ha":819,"x_min":53,"x_max":768,"o":"m 408 -21 q 142 74 231 -21 q 53 354 53 168 q 141 638 53 549 q 408 726 229 726 q 678 635 588 726 q 768 354 768 544 q 675 75 768 171 q 408 -21 582 -21 m 408 144 q 524 198 485 144 q 563 354 563 251 q 524 515 563 467 q 408 563 486 563 q 292 515 328 563 q 257 354 257 467 q 294 196 257 247 q 408 144 331 144 m 204 804 l 204 943 l 382 943 l 382 804 l 204 804 m 458 804 l 458 943 l 638 943 l 638 804 l 458 804 z "},"ȫ":{"ha":819,"x_min":53,"x_max":768,"o":"m 408 -21 q 142 74 231 -21 q 53 354 53 168 q 141 638 53 549 q 408 726 229 726 q 678 635 588 726 q 768 354 768 544 q 675 75 768 171 q 408 -21 582 -21 m 408 144 q 524 198 485 144 q 563 354 563 251 q 524 515 563 467 q 408 563 486 563 q 292 515 328 563 q 257 354 257 467 q 294 196 257 247 q 408 144 331 144 m 204 804 l 204 943 l 382 943 l 382 804 l 204 804 m 458 804 l 458 943 l 638 943 l 638 804 l 458 804 m 214 1017 l 214 1149 l 597 1149 l 597 1017 l 214 1017 z "},"ȱ":{"ha":819,"x_min":53,"x_max":768,"o":"m 408 -21 q 142 74 231 -21 q 53 354 53 168 q 141 638 53 549 q 408 726 229 726 q 678 635 588 726 q 768 354 768 544 q 675 75 768 171 q 408 -21 582 -21 m 408 144 q 524 198 485 144 q 563 354 563 251 q 524 515 563 467 q 408 563 486 563 q 292 515 328 563 q 257 354 257 467 q 294 196 257 247 q 408 144 331 144 m 314 794 l 314 933 l 482 933 l 482 794 l 314 794 m 214 1017 l 214 1149 l 597 1149 l 597 1017 l 214 1017 z "},"ọ":{"ha":819,"x_min":53,"x_max":768,"o":"m 408 -21 q 142 74 231 -21 q 53 354 53 168 q 141 638 53 549 q 408 726 229 726 q 678 635 588 726 q 768 354 768 544 q 675 75 768 171 q 408 -21 582 -21 m 408 144 q 524 198 485 144 q 563 354 563 251 q 524 515 563 467 q 408 563 486 563 q 292 515 328 563 q 257 354 257 467 q 294 196 257 247 q 408 144 331 144 m 336 -208 l 336 -69 l 486 -69 l 486 -208 l 336 -208 z "},"ò":{"ha":819,"x_min":53,"x_max":768,"o":"m 408 -21 q 142 74 231 -21 q 53 354 53 168 q 141 638 53 549 q 408 726 229 726 q 678 635 588 726 q 768 354 768 544 q 675 75 768 171 q 408 -21 582 -21 m 408 144 q 524 198 485 144 q 563 354 563 251 q 524 515 563 467 q 408 563 486 563 q 292 515 328 563 q 257 354 257 467 q 294 196 257 247 q 408 144 331 144 m 358 794 l 204 967 l 407 967 l 471 794 l 358 794 z "},"ỏ":{"ha":819,"x_min":53,"x_max":768,"o":"m 408 -21 q 142 74 231 -21 q 53 354 53 168 q 141 638 53 549 q 408 726 229 726 q 678 635 588 726 q 768 354 768 544 q 675 75 768 171 q 408 -21 582 -21 m 408 144 q 524 198 485 144 q 563 354 563 251 q 524 515 563 467 q 408 563 486 563 q 292 515 328 563 q 257 354 257 467 q 294 196 257 247 q 408 144 331 144 m 365 861 q 403 872 389 863 q 417 894 417 882 q 358 928 417 928 q 317 924 340 928 l 317 1004 q 397 1011 347 1011 q 510 985 467 1011 q 553 903 553 958 q 532 840 553 864 q 474 815 511 817 l 474 782 l 365 782 l 365 861 z "},"ơ":{"ha":819,"x_min":53,"x_max":783,"o":"m 783 742 q 697 614 783 653 q 768 354 768 525 q 675 75 768 171 q 408 -21 582 -21 q 142 74 231 -21 q 53 354 53 168 q 141 638 53 549 q 408 726 229 726 q 571 701 503 726 q 633 722 610 704 q 657 768 657 740 l 657 819 l 783 819 l 783 742 m 408 144 q 524 198 485 144 q 563 354 563 251 q 524 515 563 467 q 408 563 486 563 q 292 515 328 563 q 257 354 257 467 q 294 196 257 247 q 408 144 331 144 z "},"ớ":{"ha":819,"x_min":53,"x_max":783,"o":"m 783 742 q 697 614 783 653 q 768 354 768 525 q 675 75 768 171 q 408 -21 582 -21 q 142 74 231 -21 q 53 354 53 168 q 141 638 53 549 q 408 726 229 726 q 571 701 503 726 q 633 722 610 704 q 657 768 657 740 l 657 819 l 783 819 l 783 742 m 408 144 q 524 198 485 144 q 563 354 563 251 q 524 515 563 467 q 408 563 486 563 q 292 515 328 563 q 257 354 257 467 q 294 196 257 247 q 408 144 331 144 m 346 794 l 411 967 l 614 967 l 460 794 l 346 794 z "},"ợ":{"ha":819,"x_min":53,"x_max":783,"o":"m 783 742 q 697 614 783 653 q 768 354 768 525 q 675 75 768 171 q 408 -21 582 -21 q 142 74 231 -21 q 53 354 53 168 q 141 638 53 549 q 408 726 229 726 q 571 701 503 726 q 633 722 610 704 q 657 768 657 740 l 657 819 l 783 819 l 783 742 m 408 144 q 524 198 485 144 q 563 354 563 251 q 524 515 563 467 q 408 563 486 563 q 292 515 328 563 q 257 354 257 467 q 294 196 257 247 q 408 144 331 144 m 336 -208 l 336 -69 l 486 -69 l 486 -208 l 336 -208 z "},"ờ":{"ha":819,"x_min":53,"x_max":783,"o":"m 783 742 q 697 614 783 653 q 768 354 768 525 q 675 75 768 171 q 408 -21 582 -21 q 142 74 231 -21 q 53 354 53 168 q 141 638 53 549 q 408 726 229 726 q 571 701 503 726 q 633 722 610 704 q 657 768 657 740 l 657 819 l 783 819 l 783 742 m 408 144 q 524 198 485 144 q 563 354 563 251 q 524 515 563 467 q 408 563 486 563 q 292 515 328 563 q 257 354 257 467 q 294 196 257 247 q 408 144 331 144 m 358 794 l 204 967 l 407 967 l 471 794 l 358 794 z "},"ở":{"ha":819,"x_min":53,"x_max":783,"o":"m 783 742 q 697 614 783 653 q 768 354 768 525 q 675 75 768 171 q 408 -21 582 -21 q 142 74 231 -21 q 53 354 53 168 q 141 638 53 549 q 408 726 229 726 q 571 701 503 726 q 633 722 610 704 q 657 768 657 740 l 657 819 l 783 819 l 783 742 m 408 144 q 524 198 485 144 q 563 354 563 251 q 524 515 563 467 q 408 563 486 563 q 292 515 328 563 q 257 354 257 467 q 294 196 257 247 q 408 144 331 144 m 365 861 q 403 872 389 863 q 417 894 417 882 q 358 928 417 928 q 317 924 340 928 l 317 1004 q 397 1011 347 1011 q 510 985 467 1011 q 553 903 553 958 q 532 840 553 864 q 474 815 511 817 l 474 782 l 365 782 l 365 861 z "},"ỡ":{"ha":819,"x_min":53,"x_max":783,"o":"m 783 742 q 697 614 783 653 q 768 354 768 525 q 675 75 768 171 q 408 -21 582 -21 q 142 74 231 -21 q 53 354 53 168 q 141 638 53 549 q 408 726 229 726 q 571 701 503 726 q 633 722 610 704 q 657 768 657 740 l 657 819 l 783 819 l 783 742 m 408 144 q 524 198 485 144 q 563 354 563 251 q 524 515 563 467 q 408 563 486 563 q 292 515 328 563 q 257 354 257 467 q 294 196 257 247 q 408 144 331 144 m 157 793 q 174 890 154 846 q 230 961 193 935 q 314 988 267 988 q 377 974 349 988 q 442 936 406 961 q 487 908 468 917 q 525 899 506 899 q 571 981 576 899 l 672 981 q 630 841 675 893 q 517 789 585 789 q 438 804 469 789 q 371 846 407 819 q 333 871 346 864 q 306 878 321 878 q 264 853 278 878 q 253 793 250 828 l 157 793 z "},"ő":{"ha":819,"x_min":53,"x_max":768,"o":"m 408 -21 q 142 74 231 -21 q 53 354 53 168 q 141 638 53 549 q 408 726 229 726 q 678 635 588 726 q 768 354 768 544 q 675 75 768 171 q 408 -21 582 -21 m 408 144 q 524 198 485 144 q 563 354 563 251 q 524 515 563 467 q 408 563 486 563 q 292 515 328 563 q 257 354 257 467 q 294 196 257 247 q 408 144 331 144 m 254 804 l 339 967 l 483 967 l 358 804 l 254 804 m 451 804 l 535 967 l 679 967 l 554 804 l 451 804 z "},"ȏ":{"ha":819,"x_min":53,"x_max":768,"o":"m 408 -21 q 142 74 231 -21 q 53 354 53 168 q 141 638 53 549 q 408 726 229 726 q 678 635 588 726 q 768 354 768 544 q 675 75 768 171 q 408 -21 582 -21 m 408 144 q 524 198 485 144 q 563 354 563 251 q 524 515 563 467 q 408 563 486 563 q 292 515 328 563 q 257 354 257 467 q 294 196 257 247 q 408 144 331 144 m 411 943 q 559 893 507 943 q 621 758 611 843 l 504 758 q 411 839 475 839 q 351 815 375 839 q 317 758 328 792 l 201 758 q 411 943 235 943 z "},"ō":{"ha":819,"x_min":53,"x_max":768,"o":"m 408 -21 q 142 74 231 -21 q 53 354 53 168 q 141 638 53 549 q 408 726 229 726 q 678 635 588 726 q 768 354 768 544 q 675 75 768 171 q 408 -21 582 -21 m 408 144 q 524 198 485 144 q 563 354 563 251 q 524 515 563 467 q 408 563 486 563 q 292 515 328 563 q 257 354 257 467 q 294 196 257 247 q 408 144 331 144 m 214 796 l 214 928 l 597 928 l 597 796 l 214 796 z "},"ṓ":{"ha":819,"x_min":53,"x_max":768,"o":"m 408 -21 q 142 74 231 -21 q 53 354 53 168 q 141 638 53 549 q 408 726 229 726 q 678 635 588 726 q 768 354 768 544 q 675 75 768 171 q 408 -21 582 -21 m 408 144 q 524 198 485 144 q 563 354 563 251 q 524 515 563 467 q 408 563 486 563 q 292 515 328 563 q 257 354 257 467 q 294 196 257 247 q 408 144 331 144 m 214 796 l 214 928 l 597 928 l 597 796 l 214 796 m 346 990 l 411 1163 l 614 1163 l 460 990 l 346 990 z "},"ṑ":{"ha":819,"x_min":53,"x_max":768,"o":"m 408 -21 q 142 74 231 -21 q 53 354 53 168 q 141 638 53 549 q 408 726 229 726 q 678 635 588 726 q 768 354 768 544 q 675 75 768 171 q 408 -21 582 -21 m 408 144 q 524 198 485 144 q 563 354 563 251 q 524 515 563 467 q 408 563 486 563 q 292 515 328 563 q 257 354 257 467 q 294 196 257 247 q 408 144 331 144 m 214 796 l 214 928 l 597 928 l 597 796 l 214 796 m 358 990 l 204 1163 l 407 1163 l 471 990 l 358 990 z "},"ǫ":{"ha":819,"x_min":53,"x_max":768,"o":"m 768 354 q 715 128 768 217 q 563 4 663 40 l 578 0 q 480 -53 517 -25 q 443 -107 443 -81 q 456 -146 443 -135 q 492 -157 468 -157 q 582 -110 532 -157 l 582 -228 q 527 -252 556 -243 q 456 -261 499 -261 q 322 -228 365 -261 q 279 -128 279 -194 q 349 -18 279 -67 q 127 91 201 -3 q 53 354 53 185 q 141 638 53 549 q 408 726 229 726 q 678 635 588 726 q 768 354 768 544 m 257 354 q 294 196 257 247 q 408 144 331 144 q 524 198 485 144 q 563 354 563 251 q 524 515 563 467 q 408 563 486 563 q 292 515 328 563 q 257 354 257 467 z "},"ø":{"ha":835,"x_min":26,"x_max":807,"o":"m 715 586 q 768 354 768 497 q 675 75 768 171 q 408 -21 582 -21 q 226 14 300 -21 l 214 0 l 26 0 l 117 106 q 53 354 53 196 q 141 638 53 549 q 408 726 229 726 q 611 685 531 726 l 618 693 l 807 693 l 715 586 m 257 354 q 263 276 257 308 l 490 544 q 408 563 458 563 q 292 515 328 563 q 257 354 257 467 m 563 354 q 560 404 563 374 l 346 156 q 408 144 369 144 q 524 198 485 144 q 563 354 563 251 z "},"ǿ":{"ha":835,"x_min":26,"x_max":807,"o":"m 715 586 q 768 354 768 497 q 675 75 768 171 q 408 -21 582 -21 q 226 14 300 -21 l 214 0 l 26 0 l 117 106 q 53 354 53 196 q 141 638 53 549 q 408 726 229 726 q 611 685 531 726 l 618 693 l 807 693 l 715 586 m 257 354 q 263 276 257 308 l 490 544 q 408 563 458 563 q 292 515 328 563 q 257 354 257 467 m 563 354 q 560 404 563 374 l 346 156 q 408 144 369 144 q 524 198 485 144 q 563 354 563 251 m 353 765 l 418 938 l 621 938 l 467 765 l 353 765 z "},"õ":{"ha":819,"x_min":53,"x_max":768,"o":"m 408 -21 q 142 74 231 -21 q 53 354 53 168 q 141 638 53 549 q 408 726 229 726 q 678 635 588 726 q 768 354 768 544 q 675 75 768 171 q 408 -21 582 -21 m 408 144 q 524 198 485 144 q 563 354 563 251 q 524 515 563 467 q 408 563 486 563 q 292 515 328 563 q 257 354 257 467 q 294 196 257 247 q 408 144 331 144 m 164 786 q 181 883 161 839 q 237 954 200 928 q 321 981 274 981 q 384 967 356 981 q 449 929 413 954 q 494 901 475 910 q 532 892 513 892 q 578 974 583 892 l 679 974 q 637 834 682 886 q 524 782 592 782 q 445 797 476 782 q 378 839 414 813 q 340 864 353 857 q 313 871 328 871 q 271 846 285 871 q 260 786 257 821 l 164 786 z "},"ṍ":{"ha":819,"x_min":53,"x_max":768,"o":"m 408 -21 q 142 74 231 -21 q 53 354 53 168 q 141 638 53 549 q 408 726 229 726 q 678 635 588 726 q 768 354 768 544 q 675 75 768 171 q 408 -21 582 -21 m 408 144 q 524 198 485 144 q 563 354 563 251 q 524 515 563 467 q 408 563 486 563 q 292 515 328 563 q 257 354 257 467 q 294 196 257 247 q 408 144 331 144 m 164 786 q 181 883 161 839 q 237 954 200 928 q 321 981 274 981 q 384 967 356 981 q 449 929 413 954 q 494 901 475 910 q 532 892 513 892 q 578 974 583 892 l 679 974 q 637 834 682 886 q 524 782 592 782 q 445 797 476 782 q 378 839 414 813 q 340 864 353 857 q 313 871 328 871 q 271 846 285 871 q 260 786 257 821 l 164 786 m 346 1061 l 411 1233 l 614 1233 l 460 1061 l 346 1061 z "},"ṏ":{"ha":819,"x_min":53,"x_max":768,"o":"m 408 -21 q 142 74 231 -21 q 53 354 53 168 q 141 638 53 549 q 408 726 229 726 q 678 635 588 726 q 768 354 768 544 q 675 75 768 171 q 408 -21 582 -21 m 408 144 q 524 198 485 144 q 563 354 563 251 q 524 515 563 467 q 408 563 486 563 q 292 515 328 563 q 257 354 257 467 q 294 196 257 247 q 408 144 331 144 m 164 786 q 181 883 161 839 q 237 954 200 928 q 321 981 274 981 q 384 967 356 981 q 449 929 413 954 q 494 901 475 910 q 532 892 513 892 q 578 974 583 892 l 679 974 q 637 834 682 886 q 524 782 592 782 q 445 797 476 782 q 378 839 414 813 q 340 864 353 857 q 313 871 328 871 q 271 846 285 871 q 260 786 257 821 l 164 786 m 204 1071 l 204 1210 l 382 1210 l 382 1071 l 204 1071 m 458 1071 l 458 1210 l 638 1210 l 638 1071 l 458 1071 z "},"ȭ":{"ha":819,"x_min":53,"x_max":768,"o":"m 408 -21 q 142 74 231 -21 q 53 354 53 168 q 141 638 53 549 q 408 726 229 726 q 678 635 588 726 q 768 354 768 544 q 675 75 768 171 q 408 -21 582 -21 m 408 144 q 524 198 485 144 q 563 354 563 251 q 524 515 563 467 q 408 563 486 563 q 292 515 328 563 q 257 354 257 467 q 294 196 257 247 q 408 144 331 144 m 164 786 q 181 883 161 839 q 237 954 200 928 q 321 981 274 981 q 384 967 356 981 q 449 929 413 954 q 494 901 475 910 q 532 892 513 892 q 578 974 583 892 l 679 974 q 637 834 682 886 q 524 782 592 782 q 445 797 476 782 q 378 839 414 813 q 340 864 353 857 q 313 871 328 871 q 271 846 285 871 q 260 786 257 821 l 164 786 m 214 1063 l 214 1194 l 597 1194 l 597 1063 l 214 1063 z "},"œ":{"ha":1293,"x_min":53,"x_max":1244,"o":"m 915 726 q 1240 297 1244 726 l 776 297 q 972 151 803 151 q 1073 166 1024 151 q 1178 204 1122 181 l 1178 26 q 922 -21 1064 -21 q 781 2 846 -21 q 669 69 717 25 q 408 -21 576 -21 q 142 74 231 -21 q 53 354 53 168 q 141 638 53 549 q 408 726 229 726 q 672 642 582 726 q 915 726 761 726 m 907 568 q 775 429 796 568 l 1035 429 q 995 536 1025 504 q 907 568 965 568 m 408 144 q 524 198 485 144 q 563 354 563 251 q 524 515 563 467 q 408 563 486 563 q 292 515 328 563 q 257 354 257 467 q 294 196 257 247 q 408 144 331 144 z "},"p":{"ha":835,"x_min":92,"x_max":782,"o":"m 426 726 q 689 638 596 726 q 782 344 782 550 q 699 79 782 179 q 471 -21 615 -21 q 294 17 365 -21 l 294 -251 l 92 -251 l 92 554 q 185 682 92 639 q 426 726 279 725 m 410 146 q 535 193 494 146 q 575 351 575 240 q 540 502 575 451 q 418 553 504 553 q 294 506 294 553 l 294 175 q 350 153 319 160 q 410 146 381 146 z "},"þ":{"ha":826,"x_min":92,"x_max":774,"o":"m 428 703 q 774 325 774 703 q 736 140 774 221 q 628 15 699 60 q 463 -31 558 -31 q 297 6 365 -31 l 297 -257 l 92 -257 l 92 968 l 297 968 l 297 692 q 428 703 371 703 m 411 136 q 528 182 489 136 q 568 332 568 228 q 534 479 568 429 q 419 529 500 529 q 348 521 383 529 q 297 497 313 513 l 297 165 q 411 136 346 136 z "},"q":{"ha":835,"x_min":53,"x_max":743,"o":"m 428 722 q 743 526 743 722 l 743 -271 l 540 -271 l 540 21 q 374 -21 476 -21 q 136 72 219 -21 q 53 338 53 165 q 151 633 53 544 q 428 722 250 722 m 258 350 q 303 195 258 244 q 425 146 349 146 q 540 175 492 146 l 540 486 q 507 533 540 517 q 425 550 474 550 q 298 498 338 550 q 258 350 258 446 z "},"r":{"ha":594,"x_min":92,"x_max":565,"o":"m 92 629 q 165 669 113 647 q 281 708 217 692 q 406 724 346 724 q 565 689 521 724 l 565 538 q 406 550 510 550 q 299 543 340 550 l 299 0 l 92 0 l 92 629 z "},"ŕ":{"ha":594,"x_min":92,"x_max":565,"o":"m 92 629 q 165 669 113 647 q 281 708 217 692 q 406 724 346 724 q 565 689 521 724 l 565 538 q 406 550 510 550 q 299 543 340 550 l 299 0 l 92 0 l 92 629 m 213 785 l 278 957 l 481 957 l 326 785 l 213 785 z "},"ř":{"ha":594,"x_min":81,"x_max":565,"o":"m 92 629 q 165 669 113 647 q 281 708 217 692 q 406 724 346 724 q 565 689 521 724 l 565 538 q 406 550 510 550 q 299 543 340 550 l 299 0 l 92 0 l 92 629 m 193 803 l 81 971 l 213 971 l 272 890 l 332 971 l 464 971 l 363 803 l 193 803 z "},"ŗ":{"ha":594,"x_min":60,"x_max":565,"o":"m 92 629 q 165 669 113 647 q 281 708 217 692 q 406 724 346 724 q 565 689 521 724 l 565 538 q 406 550 510 550 q 299 543 340 550 l 299 0 l 92 0 l 92 629 m 60 -174 q 103 -140 92 -165 q 114 -69 114 -115 l 269 -69 q 215 -212 272 -158 q 60 -269 158 -267 l 60 -174 z "},"ȑ":{"ha":594,"x_min":-29,"x_max":565,"o":"m 92 629 q 165 669 113 647 q 281 708 217 692 q 406 724 346 724 q 565 689 521 724 l 565 538 q 406 550 510 550 q 299 543 340 550 l 299 0 l 92 0 l 92 629 m 125 785 l -29 957 l 174 957 l 238 785 l 125 785 m 381 785 l 226 957 l 429 957 l 493 785 l 381 785 z "},"ȓ":{"ha":594,"x_min":68,"x_max":565,"o":"m 92 629 q 165 669 113 647 q 281 708 217 692 q 406 724 346 724 q 565 689 521 724 l 565 538 q 406 550 510 550 q 299 543 340 550 l 299 0 l 92 0 l 92 629 m 278 933 q 426 883 374 933 q 488 749 478 833 l 371 749 q 278 829 342 829 q 218 806 242 829 q 183 749 194 782 l 68 749 q 278 933 101 933 z "},"ṟ":{"ha":594,"x_min":-18,"x_max":565,"o":"m 92 629 q 165 669 113 647 q 281 708 217 692 q 406 724 346 724 q 565 689 521 724 l 565 538 q 406 550 510 550 q 299 543 340 550 l 299 0 l 92 0 l 92 629 m -18 -200 l -18 -68 l 365 -68 l 365 -200 l -18 -200 z "},"s":{"ha":669,"x_min":68,"x_max":613,"o":"m 300 -21 q 183 -8 233 -21 q 72 31 133 6 l 72 213 q 308 128 185 128 q 377 144 356 128 q 399 188 399 160 q 364 235 399 219 q 253 268 329 250 q 120 335 172 285 q 68 481 68 385 q 110 615 68 563 q 215 692 151 668 q 346 717 278 717 q 481 702 429 717 q 583 657 533 688 l 583 494 q 474 550 513 533 q 383 567 435 567 q 307 551 332 567 q 282 506 282 535 q 310 455 282 471 q 399 422 338 439 q 508 387 468 404 q 581 327 549 369 q 613 208 613 285 q 522 34 610 89 q 300 -21 435 -21 z "},"ś":{"ha":669,"x_min":68,"x_max":613,"o":"m 300 -21 q 183 -8 233 -21 q 72 31 133 6 l 72 213 q 308 128 185 128 q 377 144 356 128 q 399 188 399 160 q 364 235 399 219 q 253 268 329 250 q 120 335 172 285 q 68 481 68 385 q 110 615 68 563 q 215 692 151 668 q 346 717 278 717 q 481 702 429 717 q 583 657 533 688 l 583 494 q 474 550 513 533 q 383 567 435 567 q 307 551 332 567 q 282 506 282 535 q 310 455 282 471 q 399 422 338 439 q 508 387 468 404 q 581 327 549 369 q 613 208 613 285 q 522 34 610 89 q 300 -21 435 -21 m 267 785 l 332 957 l 535 957 l 381 785 l 267 785 z "},"ṥ":{"ha":669,"x_min":68,"x_max":613,"o":"m 300 -21 q 183 -8 233 -21 q 72 31 133 6 l 72 213 q 308 128 185 128 q 377 144 356 128 q 399 188 399 160 q 364 235 399 219 q 253 268 329 250 q 120 335 172 285 q 68 481 68 385 q 110 615 68 563 q 215 692 151 668 q 346 717 278 717 q 481 702 429 717 q 583 657 533 688 l 583 494 q 474 550 513 533 q 383 567 435 567 q 307 551 332 567 q 282 506 282 535 q 310 455 282 471 q 399 422 338 439 q 508 387 468 404 q 581 327 549 369 q 613 208 613 285 q 522 34 610 89 q 300 -21 435 -21 m 267 785 l 332 957 l 535 957 l 381 785 l 267 785 m 281 1029 l 281 1168 l 449 1168 l 449 1029 l 281 1029 z "},"š":{"ha":669,"x_min":68,"x_max":613,"o":"m 300 -21 q 183 -8 233 -21 q 72 31 133 6 l 72 213 q 308 128 185 128 q 377 144 356 128 q 399 188 399 160 q 364 235 399 219 q 253 268 329 250 q 120 335 172 285 q 68 481 68 385 q 110 615 68 563 q 215 692 151 668 q 346 717 278 717 q 481 702 429 717 q 583 657 533 688 l 583 494 q 474 550 513 533 q 383 567 435 567 q 307 551 332 567 q 282 506 282 535 q 310 455 282 471 q 399 422 338 439 q 508 387 468 404 q 581 327 549 369 q 613 208 613 285 q 522 34 610 89 q 300 -21 435 -21 m 247 803 l 135 971 l 267 971 l 326 890 l 386 971 l 518 971 l 417 803 l 247 803 z "},"ṧ":{"ha":669,"x_min":68,"x_max":613,"o":"m 300 -21 q 183 -8 233 -21 q 72 31 133 6 l 72 213 q 308 128 185 128 q 377 144 356 128 q 399 188 399 160 q 364 235 399 219 q 253 268 329 250 q 120 335 172 285 q 68 481 68 385 q 110 615 68 563 q 215 692 151 668 q 346 717 278 717 q 481 702 429 717 q 583 657 533 688 l 583 494 q 474 550 513 533 q 383 567 435 567 q 307 551 332 567 q 282 506 282 535 q 310 455 282 471 q 399 422 338 439 q 508 387 468 404 q 581 327 549 369 q 613 208 613 285 q 522 34 610 89 q 300 -21 435 -21 m 247 803 l 135 971 l 267 971 l 326 890 l 386 971 l 518 971 l 417 803 l 247 803 m 235 1036 l 235 1175 l 403 1175 l 403 1036 l 235 1036 z "},"ş":{"ha":669,"x_min":68,"x_max":613,"o":"m 613 208 q 560 67 611 121 q 425 -7 510 14 l 442 -7 l 369 -185 l 183 -185 l 299 -21 q 183 -8 233 -21 q 72 31 133 6 l 72 213 q 308 128 185 128 q 377 144 356 128 q 399 188 399 160 q 364 235 399 219 q 253 268 329 250 q 120 335 172 285 q 68 481 68 385 q 110 615 68 563 q 215 692 151 668 q 346 717 278 717 q 481 702 429 717 q 583 657 533 688 l 583 494 q 474 550 513 533 q 383 567 435 567 q 307 551 332 567 q 282 506 282 535 q 310 455 282 471 q 399 422 338 439 q 508 387 468 404 q 581 327 549 369 q 613 208 613 285 z "},"ŝ":{"ha":669,"x_min":68,"x_max":613,"o":"m 300 -21 q 183 -8 233 -21 q 72 31 133 6 l 72 213 q 308 128 185 128 q 377 144 356 128 q 399 188 399 160 q 364 235 399 219 q 253 268 329 250 q 120 335 172 285 q 68 481 68 385 q 110 615 68 563 q 215 692 151 668 q 346 717 278 717 q 481 702 429 717 q 583 657 533 688 l 583 494 q 474 550 513 533 q 383 567 435 567 q 307 551 332 567 q 282 506 282 535 q 310 455 282 471 q 399 422 338 439 q 508 387 468 404 q 581 327 549 369 q 613 208 613 285 q 522 34 610 89 q 300 -21 435 -21 m 136 793 l 258 961 l 426 961 l 547 793 l 410 793 l 342 875 l 274 793 l 136 793 z "},"ș":{"ha":669,"x_min":68,"x_max":613,"o":"m 300 -21 q 183 -8 233 -21 q 72 31 133 6 l 72 213 q 308 128 185 128 q 377 144 356 128 q 399 188 399 160 q 364 235 399 219 q 253 268 329 250 q 120 335 172 285 q 68 481 68 385 q 110 615 68 563 q 215 692 151 668 q 346 717 278 717 q 481 702 429 717 q 583 657 533 688 l 583 494 q 474 550 513 533 q 383 567 435 567 q 307 551 332 567 q 282 506 282 535 q 310 455 282 471 q 399 422 338 439 q 508 387 468 404 q 581 327 549 369 q 613 208 613 285 q 522 34 610 89 q 300 -21 435 -21 m 194 -174 q 238 -140 226 -165 q 249 -69 249 -115 l 404 -69 q 350 -212 407 -158 q 194 -269 293 -267 l 194 -174 z "},"ṡ":{"ha":669,"x_min":68,"x_max":613,"o":"m 300 -21 q 183 -8 233 -21 q 72 31 133 6 l 72 213 q 308 128 185 128 q 377 144 356 128 q 399 188 399 160 q 364 235 399 219 q 253 268 329 250 q 120 335 172 285 q 68 481 68 385 q 110 615 68 563 q 215 692 151 668 q 346 717 278 717 q 481 702 429 717 q 583 657 533 688 l 583 494 q 474 550 513 533 q 383 567 435 567 q 307 551 332 567 q 282 506 282 535 q 310 455 282 471 q 399 422 338 439 q 508 387 468 404 q 581 327 549 369 q 613 208 613 285 q 522 34 610 89 q 300 -21 435 -21 m 235 785 l 235 924 l 403 924 l 403 785 l 235 785 z "},"ṣ":{"ha":669,"x_min":68,"x_max":613,"o":"m 300 -21 q 183 -8 233 -21 q 72 31 133 6 l 72 213 q 308 128 185 128 q 377 144 356 128 q 399 188 399 160 q 364 235 399 219 q 253 268 329 250 q 120 335 172 285 q 68 481 68 385 q 110 615 68 563 q 215 692 151 668 q 346 717 278 717 q 481 702 429 717 q 583 657 533 688 l 583 494 q 474 550 513 533 q 383 567 435 567 q 307 551 332 567 q 282 506 282 535 q 310 455 282 471 q 399 422 338 439 q 508 387 468 404 q 581 327 549 369 q 613 208 613 285 q 522 34 610 89 q 300 -21 435 -21 m 235 -208 l 235 -69 l 385 -69 l 385 -208 l 235 -208 z "},"ṩ":{"ha":669,"x_min":68,"x_max":613,"o":"m 300 -21 q 183 -8 233 -21 q 72 31 133 6 l 72 213 q 308 128 185 128 q 377 144 356 128 q 399 188 399 160 q 364 235 399 219 q 253 268 329 250 q 120 335 172 285 q 68 481 68 385 q 110 615 68 563 q 215 692 151 668 q 346 717 278 717 q 481 702 429 717 q 583 657 533 688 l 583 494 q 474 550 513 533 q 383 567 435 567 q 307 551 332 567 q 282 506 282 535 q 310 455 282 471 q 399 422 338 439 q 508 387 468 404 q 581 327 549 369 q 613 208 613 285 q 522 34 610 89 q 300 -21 435 -21 m 235 -208 l 235 -69 l 385 -69 l 385 -208 l 235 -208 m 235 785 l 235 924 l 403 924 l 403 785 l 235 785 z "},"ß":{"ha":882,"x_min":92,"x_max":829,"o":"m 92 606 q 131 792 92 710 q 247 921 169 874 q 435 968 325 968 q 622 939 540 968 q 747 858 703 910 q 792 743 792 807 q 738 606 792 660 q 626 535 685 553 q 769 444 708 510 q 829 261 829 379 q 754 59 829 138 q 539 -21 679 -19 q 381 1 465 -24 l 381 172 q 507 136 446 136 q 591 170 561 136 q 621 269 621 204 q 570 378 621 343 q 447 415 519 414 l 447 582 q 576 693 576 582 q 541 769 576 742 q 447 797 506 797 q 338 749 376 797 q 300 611 300 700 l 300 0 l 92 0 l 92 606 z "},"t":{"ha":574,"x_min":35,"x_max":508,"o":"m 379 -28 q 198 29 258 -28 q 138 193 138 86 l 138 544 l 35 544 l 35 703 l 138 703 l 138 896 l 354 896 l 354 703 l 508 703 l 508 544 l 354 544 l 354 219 q 369 166 354 183 q 421 149 385 149 q 467 156 443 149 q 508 178 490 164 l 508 1 q 379 -28 456 -28 z "},"ŧ":{"ha":543,"x_min":33,"x_max":488,"o":"m 363 -10 q 198 47 260 -10 q 136 219 136 104 l 136 310 l 53 310 l 53 431 l 136 431 l 136 554 l 33 554 l 33 693 l 136 693 l 136 896 l 333 896 l 333 693 l 488 693 l 488 554 l 333 554 l 333 431 l 469 431 l 469 310 l 333 310 l 333 192 q 349 151 333 165 q 393 138 364 138 q 488 167 440 138 l 488 18 q 363 -10 433 -10 z "},"ť":{"ha":579,"x_min":35,"x_max":688,"o":"m 379 -28 q 198 29 258 -28 q 138 193 138 86 l 138 544 l 35 544 l 35 703 l 138 703 l 138 896 l 354 896 l 354 703 l 508 703 l 508 544 l 354 544 l 354 219 q 369 166 354 183 q 421 149 385 149 q 467 156 443 149 q 508 178 490 164 l 508 1 q 379 -28 456 -28 m 415 781 l 518 1053 l 688 1053 l 560 781 l 415 781 z "},"ţ":{"ha":574,"x_min":35,"x_max":508,"o":"m 354 544 l 354 219 q 369 166 354 183 q 421 149 385 149 q 467 156 443 149 q 508 178 490 164 l 508 1 q 407 -26 464 -22 l 343 -185 l 157 -185 l 276 -14 q 138 193 138 28 l 138 544 l 35 544 l 35 703 l 138 703 l 138 896 l 354 896 l 354 703 l 508 703 l 508 544 l 354 544 z "},"ẗ":{"ha":574,"x_min":28,"x_max":508,"o":"m 379 -28 q 198 29 258 -28 q 138 193 138 86 l 138 544 l 35 544 l 35 703 l 138 703 l 138 896 l 354 896 l 354 703 l 508 703 l 508 544 l 354 544 l 354 219 q 369 166 354 183 q 421 149 385 149 q 467 156 443 149 q 508 178 490 164 l 508 1 q 379 -28 456 -28 m 28 969 l 28 1108 l 206 1108 l 206 969 l 28 969 m 282 969 l 282 1108 l 461 1108 l 461 969 l 282 969 z "},"ṭ":{"ha":574,"x_min":35,"x_max":508,"o":"m 379 -28 q 198 29 258 -28 q 138 193 138 86 l 138 544 l 35 544 l 35 703 l 138 703 l 138 896 l 354 896 l 354 703 l 508 703 l 508 544 l 354 544 l 354 219 q 369 166 354 183 q 421 149 385 149 q 467 156 443 149 q 508 178 490 164 l 508 1 q 379 -28 456 -28 m 208 -208 l 208 -69 l 358 -69 l 358 -208 l 208 -208 z "},"ṯ":{"ha":574,"x_min":35,"x_max":508,"o":"m 379 -28 q 198 29 258 -28 q 138 193 138 86 l 138 544 l 35 544 l 35 703 l 138 703 l 138 896 l 354 896 l 354 703 l 508 703 l 508 544 l 354 544 l 354 219 q 369 166 354 183 q 421 149 385 149 q 467 156 443 149 q 508 178 490 164 l 508 1 q 379 -28 456 -28 m 90 -200 l 90 -68 l 474 -68 l 474 -200 l 90 -200 z "},"u":{"ha":835,"x_min":92,"x_max":743,"o":"m 422 -21 q 180 51 268 -21 q 92 268 92 124 l 92 703 l 299 703 l 299 285 q 328 185 299 218 q 424 153 358 153 q 519 185 489 153 q 549 285 549 218 l 549 703 l 743 703 l 743 268 q 659 51 743 122 q 422 -21 575 -21 z "},"ú":{"ha":835,"x_min":92,"x_max":743,"o":"m 422 -21 q 180 51 268 -21 q 92 268 92 124 l 92 703 l 299 703 l 299 285 q 328 185 299 218 q 424 153 358 153 q 519 185 489 153 q 549 285 549 218 l 549 703 l 743 703 l 743 268 q 659 51 743 122 q 422 -21 575 -21 m 363 785 l 428 957 l 631 957 l 476 785 l 363 785 z "},"ŭ":{"ha":835,"x_min":92,"x_max":743,"o":"m 422 -21 q 180 51 268 -21 q 92 268 92 124 l 92 703 l 299 703 l 299 285 q 328 185 299 218 q 424 153 358 153 q 519 185 489 153 q 549 285 549 218 l 549 703 l 743 703 l 743 268 q 659 51 743 122 q 422 -21 575 -21 m 428 767 q 218 951 251 767 l 333 951 q 368 894 344 918 q 428 871 392 871 q 521 951 492 871 l 638 951 q 576 817 628 867 q 428 767 524 767 z "},"ǔ":{"ha":835,"x_min":92,"x_max":743,"o":"m 422 -21 q 180 51 268 -21 q 92 268 92 124 l 92 703 l 299 703 l 299 285 q 328 185 299 218 q 424 153 358 153 q 519 185 489 153 q 549 285 549 218 l 549 703 l 743 703 l 743 268 q 659 51 743 122 q 422 -21 575 -21 m 343 803 l 231 971 l 363 971 l 422 890 l 482 971 l 614 971 l 513 803 l 343 803 z "},"û":{"ha":835,"x_min":92,"x_max":743,"o":"m 422 -21 q 180 51 268 -21 q 92 268 92 124 l 92 703 l 299 703 l 299 285 q 328 185 299 218 q 424 153 358 153 q 519 185 489 153 q 549 285 549 218 l 549 703 l 743 703 l 743 268 q 659 51 743 122 q 422 -21 575 -21 m 232 793 l 354 961 l 522 961 l 643 793 l 506 793 l 438 875 l 369 793 l 232 793 z "},"ȕ":{"ha":835,"x_min":92,"x_max":743,"o":"m 422 -21 q 180 51 268 -21 q 92 268 92 124 l 92 703 l 299 703 l 299 285 q 328 185 299 218 q 424 153 358 153 q 519 185 489 153 q 549 285 549 218 l 549 703 l 743 703 l 743 268 q 659 51 743 122 q 422 -21 575 -21 m 275 785 l 121 957 l 324 957 l 388 785 l 275 785 m 531 785 l 376 957 l 579 957 l 643 785 l 531 785 z "},"ü":{"ha":835,"x_min":92,"x_max":743,"o":"m 422 -21 q 180 51 268 -21 q 92 268 92 124 l 92 703 l 299 703 l 299 285 q 328 185 299 218 q 424 153 358 153 q 519 185 489 153 q 549 285 549 218 l 549 703 l 743 703 l 743 268 q 659 51 743 122 q 422 -21 575 -21 m 221 794 l 221 933 l 399 933 l 399 794 l 221 794 m 475 794 l 475 933 l 654 933 l 654 794 l 475 794 z "},"ụ":{"ha":847,"x_min":115,"x_max":742,"o":"m 429 -11 q 197 67 279 -11 q 115 306 115 146 l 115 693 l 313 693 l 313 275 q 341 176 313 208 q 429 143 369 143 q 517 176 489 143 q 544 275 544 208 l 544 693 l 742 693 l 742 306 q 660 67 742 146 q 429 -11 579 -11 m 354 -208 l 354 -69 l 504 -69 l 504 -208 l 354 -208 z "},"ù":{"ha":835,"x_min":92,"x_max":743,"o":"m 422 -21 q 180 51 268 -21 q 92 268 92 124 l 92 703 l 299 703 l 299 285 q 328 185 299 218 q 424 153 358 153 q 519 185 489 153 q 549 285 549 218 l 549 703 l 743 703 l 743 268 q 659 51 743 122 q 422 -21 575 -21 m 375 785 l 221 957 l 424 957 l 488 785 l 375 785 z "},"ủ":{"ha":847,"x_min":115,"x_max":742,"o":"m 396 854 q 425 862 414 856 q 436 881 436 868 q 388 911 436 911 q 346 907 368 911 l 346 976 q 407 982 371 982 q 498 957 461 982 q 535 883 535 932 q 511 830 535 847 q 465 808 488 813 l 465 775 l 396 775 l 396 854 m 429 -11 q 197 67 279 -11 q 115 306 115 146 l 115 693 l 313 693 l 313 275 q 341 176 313 208 q 429 143 369 143 q 517 176 489 143 q 544 275 544 208 l 544 693 l 742 693 l 742 306 q 660 67 742 146 q 429 -11 579 -11 z "},"ư":{"ha":835,"x_min":92,"x_max":903,"o":"m 903 821 l 903 743 q 743 594 903 621 l 743 268 q 659 51 743 122 q 422 -21 575 -21 q 180 51 268 -21 q 92 268 92 124 l 92 703 l 299 703 l 299 285 q 328 185 299 218 q 424 153 358 153 q 519 185 489 153 q 549 285 549 218 l 549 703 l 674 703 q 748 720 719 703 q 776 769 776 738 l 776 821 l 903 821 z "},"ứ":{"ha":835,"x_min":92,"x_max":903,"o":"m 903 821 l 903 743 q 743 594 903 621 l 743 268 q 659 51 743 122 q 422 -21 575 -21 q 180 51 268 -21 q 92 268 92 124 l 92 703 l 299 703 l 299 285 q 328 185 299 218 q 424 153 358 153 q 519 185 489 153 q 549 285 549 218 l 549 703 l 674 703 q 748 720 719 703 q 776 769 776 738 l 776 821 l 903 821 m 363 785 l 428 957 l 631 957 l 476 785 l 363 785 z "},"ự":{"ha":835,"x_min":92,"x_max":903,"o":"m 903 821 l 903 743 q 743 594 903 621 l 743 268 q 659 51 743 122 q 422 -21 575 -21 q 180 51 268 -21 q 92 268 92 124 l 92 703 l 299 703 l 299 285 q 328 185 299 218 q 424 153 358 153 q 519 185 489 153 q 549 285 549 218 l 549 703 l 674 703 q 748 720 719 703 q 776 769 776 738 l 776 821 l 903 821 m 343 -208 l 343 -69 l 493 -69 l 493 -208 l 343 -208 z "},"ừ":{"ha":835,"x_min":92,"x_max":903,"o":"m 903 821 l 903 743 q 743 594 903 621 l 743 268 q 659 51 743 122 q 422 -21 575 -21 q 180 51 268 -21 q 92 268 92 124 l 92 703 l 299 703 l 299 285 q 328 185 299 218 q 424 153 358 153 q 519 185 489 153 q 549 285 549 218 l 549 703 l 674 703 q 748 720 719 703 q 776 769 776 738 l 776 821 l 903 821 m 375 785 l 221 957 l 424 957 l 488 785 l 375 785 z "},"ử":{"ha":835,"x_min":92,"x_max":903,"o":"m 903 821 l 903 743 q 743 594 903 621 l 743 268 q 659 51 743 122 q 422 -21 575 -21 q 180 51 268 -21 q 92 268 92 124 l 92 703 l 299 703 l 299 285 q 328 185 299 218 q 424 153 358 153 q 519 185 489 153 q 549 285 549 218 l 549 703 l 674 703 q 748 720 719 703 q 776 769 776 738 l 776 821 l 903 821 m 382 851 q 419 863 406 853 q 433 885 433 872 q 375 918 433 918 q 333 914 357 918 l 333 994 q 414 1001 364 1001 q 526 975 483 1001 q 569 893 569 949 q 549 831 569 854 q 490 806 528 807 l 490 772 l 382 772 l 382 851 z "},"ữ":{"ha":835,"x_min":92,"x_max":903,"o":"m 903 821 l 903 743 q 743 594 903 621 l 743 268 q 659 51 743 122 q 422 -21 575 -21 q 180 51 268 -21 q 92 268 92 124 l 92 703 l 299 703 l 299 285 q 328 185 299 218 q 424 153 358 153 q 519 185 489 153 q 549 285 549 218 l 549 703 l 674 703 q 748 720 719 703 q 776 769 776 738 l 776 821 l 903 821 m 181 776 q 197 874 178 829 q 253 944 217 918 q 338 971 290 971 q 401 958 372 971 q 465 919 429 944 q 510 891 492 900 q 549 882 529 882 q 594 964 600 882 l 696 964 q 653 824 699 876 q 540 772 608 772 q 462 788 493 772 q 394 829 431 803 q 357 854 369 847 q 329 861 344 861 q 288 836 301 861 q 276 776 274 811 l 181 776 z "},"ű":{"ha":835,"x_min":92,"x_max":743,"o":"m 422 -21 q 180 51 268 -21 q 92 268 92 124 l 92 703 l 299 703 l 299 285 q 328 185 299 218 q 424 153 358 153 q 519 185 489 153 q 549 285 549 218 l 549 703 l 743 703 l 743 268 q 659 51 743 122 q 422 -21 575 -21 m 271 794 l 356 957 l 500 957 l 375 794 l 271 794 m 468 794 l 551 957 l 696 957 l 571 794 l 468 794 z "},"ȗ":{"ha":835,"x_min":92,"x_max":743,"o":"m 422 -21 q 180 51 268 -21 q 92 268 92 124 l 92 703 l 299 703 l 299 285 q 328 185 299 218 q 424 153 358 153 q 519 185 489 153 q 549 285 549 218 l 549 703 l 743 703 l 743 268 q 659 51 743 122 q 422 -21 575 -21 m 428 933 q 576 883 524 933 q 638 749 628 833 l 521 749 q 428 829 492 829 q 368 806 392 829 q 333 749 344 782 l 218 749 q 428 933 251 933 z "},"ū":{"ha":835,"x_min":92,"x_max":743,"o":"m 422 -21 q 180 51 268 -21 q 92 268 92 124 l 92 703 l 299 703 l 299 285 q 328 185 299 218 q 424 153 358 153 q 519 185 489 153 q 549 285 549 218 l 549 703 l 743 703 l 743 268 q 659 51 743 122 q 422 -21 575 -21 m 231 786 l 231 918 l 614 918 l 614 786 l 231 786 z "},"ṻ":{"ha":835,"x_min":92,"x_max":743,"o":"m 422 -21 q 180 51 268 -21 q 92 268 92 124 l 92 703 l 299 703 l 299 285 q 328 185 299 218 q 424 153 358 153 q 519 185 489 153 q 549 285 549 218 l 549 703 l 743 703 l 743 268 q 659 51 743 122 q 422 -21 575 -21 m 231 786 l 231 918 l 614 918 l 614 786 l 231 786 m 221 990 l 221 1129 l 399 1129 l 399 990 l 221 990 m 475 990 l 475 1129 l 654 1129 l 654 990 l 475 990 z "},"ț":{"ha":543,"x_min":33,"x_max":488,"o":"m 363 -10 q 198 47 260 -10 q 136 219 136 104 l 136 554 l 33 554 l 33 693 l 136 693 l 136 896 l 333 896 l 333 693 l 488 693 l 488 554 l 333 554 l 333 192 q 349 151 333 165 q 393 138 364 138 q 488 167 440 138 l 488 18 q 363 -10 433 -10 m 208 -183 q 251 -146 239 -175 q 263 -69 264 -117 l 379 -69 q 358 -172 381 -126 q 295 -242 335 -217 q 208 -269 256 -267 l 208 -183 z "},"ų":{"ha":835,"x_min":92,"x_max":743,"o":"m 743 703 l 743 268 q 579 4 743 65 l 594 0 q 497 -53 533 -25 q 460 -107 460 -81 q 472 -146 460 -135 q 508 -157 485 -157 q 599 -110 549 -157 l 599 -228 q 544 -252 572 -243 q 472 -261 515 -261 q 339 -228 382 -261 q 296 -128 296 -194 q 364 -18 296 -67 q 164 66 236 -6 q 92 268 92 138 l 92 703 l 299 703 l 299 285 q 328 185 299 218 q 424 153 358 153 q 519 185 489 153 q 549 285 549 218 l 549 703 l 743 703 z "},"ů":{"ha":835,"x_min":92,"x_max":743,"o":"m 422 -21 q 180 51 268 -21 q 92 268 92 124 l 92 703 l 299 703 l 299 285 q 328 185 299 218 q 424 153 358 153 q 519 185 489 153 q 549 285 549 218 l 549 703 l 743 703 l 743 268 q 659 51 743 122 q 422 -21 575 -21 m 428 763 q 305 797 347 763 q 263 894 263 831 q 305 992 263 958 q 428 1026 347 1026 q 551 992 508 1026 q 593 894 593 958 q 551 796 593 829 q 428 763 508 763 m 428 843 q 479 855 464 843 q 494 894 494 867 q 479 933 494 922 q 428 944 464 944 q 376 933 392 944 q 361 894 361 922 q 376 855 361 867 q 428 843 392 843 z "},"ũ":{"ha":835,"x_min":92,"x_max":743,"o":"m 422 -21 q 180 51 268 -21 q 92 268 92 124 l 92 703 l 299 703 l 299 285 q 328 185 299 218 q 424 153 358 153 q 519 185 489 153 q 549 285 549 218 l 549 703 l 743 703 l 743 268 q 659 51 743 122 q 422 -21 575 -21 m 181 776 q 197 874 178 829 q 253 944 217 918 q 338 971 290 971 q 401 958 372 971 q 465 919 429 944 q 510 891 492 900 q 549 882 529 882 q 594 964 600 882 l 696 964 q 653 824 699 876 q 540 772 608 772 q 462 788 493 772 q 394 829 431 803 q 357 854 369 847 q 329 861 344 861 q 288 836 301 861 q 276 776 274 811 l 181 776 z "},"ṹ":{"ha":835,"x_min":92,"x_max":743,"o":"m 422 -21 q 180 51 268 -21 q 92 268 92 124 l 92 703 l 299 703 l 299 285 q 328 185 299 218 q 424 153 358 153 q 519 185 489 153 q 549 285 549 218 l 549 703 l 743 703 l 743 268 q 659 51 743 122 q 422 -21 575 -21 m 181 776 q 197 874 178 829 q 253 944 217 918 q 338 971 290 971 q 401 958 372 971 q 465 919 429 944 q 510 891 492 900 q 549 882 529 882 q 594 964 600 882 l 696 964 q 653 824 699 876 q 540 772 608 772 q 462 788 493 772 q 394 829 431 803 q 357 854 369 847 q 329 861 344 861 q 288 836 301 861 q 276 776 274 811 l 181 776 m 363 1051 l 428 1224 l 631 1224 l 476 1051 l 363 1051 z "},"v":{"ha":863,"x_min":35,"x_max":828,"o":"m 610 703 l 828 703 l 535 0 l 328 0 l 35 703 l 258 703 l 444 228 l 610 703 z "},"w":{"ha":1149,"x_min":35,"x_max":1114,"o":"m 896 703 l 1114 703 l 881 0 l 693 0 l 572 394 l 457 0 l 269 0 l 35 703 l 257 703 l 381 256 l 497 703 l 650 703 l 771 244 l 896 703 z "},"ẃ":{"ha":1149,"x_min":35,"x_max":1114,"o":"m 896 703 l 1114 703 l 881 0 l 693 0 l 572 394 l 457 0 l 269 0 l 35 703 l 257 703 l 381 256 l 497 703 l 650 703 l 771 244 l 896 703 m 510 765 l 575 938 l 778 938 l 624 765 l 510 765 z "},"ŵ":{"ha":1149,"x_min":35,"x_max":1114,"o":"m 896 703 l 1114 703 l 881 0 l 693 0 l 572 394 l 457 0 l 269 0 l 35 703 l 257 703 l 381 256 l 497 703 l 650 703 l 771 244 l 896 703 m 379 774 l 501 942 l 669 942 l 790 774 l 653 774 l 585 856 l 517 774 l 379 774 z "},"ẅ":{"ha":1149,"x_min":35,"x_max":1114,"o":"m 896 703 l 1114 703 l 881 0 l 693 0 l 572 394 l 457 0 l 269 0 l 35 703 l 257 703 l 381 256 l 497 703 l 650 703 l 771 244 l 896 703 m 368 775 l 368 914 l 546 914 l 546 775 l 368 775 m 622 775 l 622 914 l 801 914 l 801 775 l 622 775 z "},"ẁ":{"ha":1149,"x_min":35,"x_max":1114,"o":"m 896 703 l 1114 703 l 881 0 l 693 0 l 572 394 l 457 0 l 269 0 l 35 703 l 257 703 l 381 256 l 497 703 l 650 703 l 771 244 l 896 703 m 522 765 l 368 938 l 571 938 l 635 765 l 522 765 z "},"x":{"ha":825,"x_min":29,"x_max":794,"o":"m 794 703 l 529 356 l 783 0 l 539 0 l 390 208 l 247 0 l 29 0 l 293 344 l 36 703 l 281 703 l 431 493 l 575 703 l 794 703 z "},"y":{"ha":824,"x_min":35,"x_max":790,"o":"m 790 703 l 514 -11 q 244 -272 413 -272 q 119 -247 172 -272 l 119 -79 q 201 -94 161 -94 q 272 -71 243 -94 q 317 7 300 -47 l 35 703 l 271 703 l 419 242 l 568 703 l 790 703 z "},"ý":{"ha":824,"x_min":35,"x_max":790,"o":"m 790 703 l 514 -11 q 244 -272 413 -272 q 119 -247 172 -272 l 119 -79 q 201 -94 161 -94 q 272 -71 243 -94 q 317 7 300 -47 l 35 703 l 271 703 l 419 242 l 568 703 l 790 703 m 349 765 l 414 938 l 617 938 l 463 765 l 349 765 z "},"ŷ":{"ha":824,"x_min":35,"x_max":790,"o":"m 790 703 l 514 -11 q 244 -272 413 -272 q 119 -247 172 -272 l 119 -79 q 201 -94 161 -94 q 272 -71 243 -94 q 317 7 300 -47 l 35 703 l 271 703 l 419 242 l 568 703 l 790 703 m 218 774 l 340 942 l 508 942 l 629 774 l 492 774 l 424 856 l 356 774 l 218 774 z "},"ÿ":{"ha":824,"x_min":35,"x_max":790,"o":"m 790 703 l 514 -11 q 244 -272 413 -272 q 119 -247 172 -272 l 119 -79 q 201 -94 161 -94 q 272 -71 243 -94 q 317 7 300 -47 l 35 703 l 271 703 l 419 242 l 568 703 l 790 703 m 207 775 l 207 914 l 385 914 l 385 775 l 207 775 m 461 775 l 461 914 l 640 914 l 640 775 l 461 775 z "},"ẏ":{"ha":824,"x_min":35,"x_max":790,"o":"m 790 703 l 514 -11 q 244 -272 413 -272 q 119 -247 172 -272 l 119 -79 q 201 -94 161 -94 q 272 -71 243 -94 q 317 7 300 -47 l 35 703 l 271 703 l 419 242 l 568 703 l 790 703 m 317 765 l 317 904 l 485 904 l 485 765 l 317 765 z "},"ỵ":{"ha":824,"x_min":35,"x_max":790,"o":"m 790 703 l 514 -11 q 244 -272 413 -272 q 119 -247 172 -272 l 119 -79 q 201 -94 161 -94 q 272 -71 243 -94 q 317 7 300 -47 l 35 703 l 271 703 l 419 242 l 568 703 l 790 703 m 572 -208 l 572 -69 l 722 -69 l 722 -208 l 572 -208 z "},"ỳ":{"ha":824,"x_min":35,"x_max":790,"o":"m 790 703 l 514 -11 q 244 -272 413 -272 q 119 -247 172 -272 l 119 -79 q 201 -94 161 -94 q 272 -71 243 -94 q 317 7 300 -47 l 35 703 l 271 703 l 419 242 l 568 703 l 790 703 m 361 765 l 207 938 l 410 938 l 474 765 l 361 765 z "},"ỷ":{"ha":824,"x_min":35,"x_max":790,"o":"m 790 703 l 514 -11 q 244 -272 413 -272 q 119 -247 172 -272 l 119 -79 q 201 -94 161 -94 q 272 -71 243 -94 q 317 7 300 -47 l 35 703 l 271 703 l 419 242 l 568 703 l 790 703 m 368 832 q 406 843 392 833 q 419 865 419 853 q 361 899 419 899 q 319 894 343 899 l 319 975 q 400 982 350 982 q 513 956 469 982 q 556 874 556 929 q 535 811 556 835 q 476 786 514 788 l 476 753 l 368 753 l 368 832 z "},"ȳ":{"ha":824,"x_min":35,"x_max":790,"o":"m 790 703 l 514 -11 q 244 -272 413 -272 q 119 -247 172 -272 l 119 -79 q 201 -94 161 -94 q 272 -71 243 -94 q 317 7 300 -47 l 35 703 l 271 703 l 419 242 l 568 703 l 790 703 m 217 767 l 217 899 l 600 899 l 600 767 l 217 767 z "},"ỹ":{"ha":824,"x_min":35,"x_max":790,"o":"m 790 703 l 514 -11 q 244 -272 413 -272 q 119 -247 172 -272 l 119 -79 q 201 -94 161 -94 q 272 -71 243 -94 q 317 7 300 -47 l 35 703 l 271 703 l 419 242 l 568 703 l 790 703 m 167 757 q 183 854 164 810 q 240 925 203 899 q 324 951 276 951 q 387 938 358 951 q 451 900 415 925 q 497 872 478 881 q 535 863 515 863 q 581 944 586 863 l 682 944 q 640 805 685 857 q 526 753 594 753 q 448 768 479 753 q 381 810 417 783 q 343 835 356 828 q 315 842 331 842 q 274 817 288 842 q 263 757 260 792 l 167 757 z "},"z":{"ha":683,"x_min":63,"x_max":621,"o":"m 621 703 l 621 542 l 314 165 l 621 165 l 621 0 l 63 0 l 63 164 l 403 547 l 71 547 l 71 703 l 621 703 z "},"ź":{"ha":683,"x_min":63,"x_max":621,"o":"m 621 703 l 621 542 l 314 165 l 621 165 l 621 0 l 63 0 l 63 164 l 403 547 l 71 547 l 71 703 l 621 703 m 286 765 l 351 938 l 554 938 l 400 765 l 286 765 z "},"ž":{"ha":683,"x_min":63,"x_max":621,"o":"m 621 703 l 621 542 l 314 165 l 621 165 l 621 0 l 63 0 l 63 164 l 403 547 l 71 547 l 71 703 l 621 703 m 267 783 l 154 951 l 286 951 l 346 871 l 406 951 l 538 951 l 436 783 l 267 783 z "},"ż":{"ha":683,"x_min":63,"x_max":621,"o":"m 621 703 l 621 542 l 314 165 l 621 165 l 621 0 l 63 0 l 63 164 l 403 547 l 71 547 l 71 703 l 621 703 m 254 765 l 254 904 l 422 904 l 422 765 l 254 765 z "},"ﬁ":{"ha":936,"x_min":42,"x_max":844,"o":"m 144 544 l 42 544 l 42 703 l 146 703 l 146 719 q 219 940 147 878 q 414 1001 290 1001 q 463 997 436 1001 q 506 988 489 993 l 506 806 q 475 828 490 821 q 436 836 460 836 q 375 815 397 836 q 353 744 353 794 l 353 703 l 506 703 l 506 544 l 351 544 l 351 0 l 144 0 l 144 544 m 631 799 l 631 958 l 844 958 l 844 799 l 631 799 m 635 0 l 635 693 l 842 693 l 843 0 l 635 0 z "},"ﬂ":{"ha":928,"x_min":42,"x_max":836,"o":"m 144 544 l 42 544 l 42 703 l 146 703 l 146 719 q 219 940 147 878 q 414 1001 290 1001 q 463 997 436 1001 q 506 988 489 993 l 506 806 q 475 828 490 821 q 436 836 460 836 q 375 815 397 836 q 353 744 353 794 l 353 703 l 506 703 l 506 544 l 351 544 l 351 0 l 144 0 l 144 544 m 836 0 l 631 0 l 631 968 l 836 968 l 836 0 z "},"ª":{"ha":560,"x_min":94,"x_max":451,"o":"m 269 529 q 143 560 192 529 q 94 660 94 592 q 239 779 94 779 q 298 774 274 779 q 329 763 322 768 q 260 849 329 849 q 194 842 229 849 q 133 825 160 835 l 133 911 q 199 930 163 922 q 268 938 235 938 q 405 895 358 938 q 451 772 451 853 l 451 658 q 406 557 451 585 q 269 529 361 529 m 274 613 q 332 654 332 613 l 332 703 q 279 713 308 713 q 234 700 253 713 q 215 664 215 688 q 274 613 215 613 z "},"º":{"ha":586,"x_min":104,"x_max":474,"o":"m 289 540 q 154 590 204 540 q 104 739 104 639 q 153 890 104 840 q 289 939 203 939 q 424 890 375 939 q 474 739 474 840 q 424 590 474 639 q 289 540 374 540 m 289 624 q 364 739 364 624 q 345 827 364 799 q 289 856 326 856 q 233 827 251 856 q 214 739 214 799 q 289 624 214 624 z "},"π":{"ha":875,"x_min":47,"x_max":826,"o":"m 186 0 l 186 544 l 47 544 l 47 693 l 826 693 l 826 544 l 685 544 l 685 0 l 536 0 l 536 544 l 338 544 l 338 0 l 186 0 z "},"₀":{"ha":526,"x_min":33,"x_max":492,"o":"m 263 -214 q 88 -151 143 -214 q 33 42 33 -87 q 88 233 33 169 q 263 297 143 297 q 437 234 382 297 q 492 42 492 171 q 437 -151 492 -87 q 263 -214 382 -214 m 263 -96 q 344 42 344 -96 q 321 149 344 119 q 263 179 297 179 q 206 149 231 179 q 182 42 182 119 q 206 -66 182 -36 q 263 -96 231 -96 z "},"₁":{"ha":340,"x_min":39,"x_max":257,"o":"m 139 290 l 257 290 l 257 -208 l 113 -208 l 113 131 l 39 88 l 39 228 l 139 290 z "},"₂":{"ha":467,"x_min":64,"x_max":417,"o":"m 417 -74 l 417 -208 l 64 -208 l 64 -122 q 133 -72 75 -114 q 227 17 192 -29 q 263 107 263 64 q 240 160 263 140 q 188 179 218 179 q 126 167 151 179 q 68 133 101 156 l 68 251 q 217 297 143 297 q 366 253 319 297 q 413 144 413 208 q 369 26 413 85 q 256 -74 325 -32 l 417 -74 z "},"₃":{"ha":460,"x_min":61,"x_max":413,"o":"m 207 -214 q 61 -176 139 -214 l 61 -64 q 126 -98 101 -87 q 182 -108 151 -108 q 240 -93 218 -108 q 263 -50 263 -78 q 242 -7 263 -24 q 179 10 221 10 l 125 10 l 125 99 l 182 99 q 224 111 208 99 q 239 147 239 124 q 219 178 239 167 q 169 189 199 189 q 72 163 128 189 l 72 264 q 201 296 136 296 q 334 261 278 296 q 390 160 390 226 q 365 94 390 122 q 317 61 340 67 q 385 15 358 47 q 413 -68 413 -18 q 352 -178 413 -142 q 207 -214 292 -214 z "},"₄":{"ha":471,"x_min":36,"x_max":446,"o":"m 383 18 l 446 18 l 446 -93 l 383 -93 l 383 -208 l 247 -208 l 247 -93 l 36 -93 l 36 11 l 258 290 l 383 290 l 383 18 m 157 18 l 247 18 l 247 132 l 157 18 z "},"₅":{"ha":450,"x_min":68,"x_max":419,"o":"m 236 -214 q 79 -181 149 -214 l 79 -64 q 135 -90 104 -81 q 196 -100 165 -100 q 251 -85 233 -100 q 268 -40 268 -71 q 248 6 268 -10 q 197 21 228 21 q 128 0 165 21 l 68 53 l 94 292 l 388 292 l 388 176 l 194 176 l 189 111 q 261 115 211 115 q 372 77 324 115 q 419 -43 419 39 q 369 -174 419 -133 q 236 -214 319 -214 z "},"₆":{"ha":478,"x_min":22,"x_max":442,"o":"m 249 -214 q 75 -156 128 -214 q 22 21 22 -99 q 102 241 22 186 q 300 296 182 296 q 393 281 358 296 l 393 182 q 310 196 346 196 q 221 168 263 196 q 175 75 179 140 q 294 117 211 117 q 399 77 357 117 q 442 -36 442 38 q 393 -165 442 -117 q 249 -214 344 -214 m 235 -124 q 276 -101 261 -124 q 290 -46 290 -79 q 275 9 290 -10 q 238 28 260 28 q 201 14 218 28 q 175 -18 183 0 q 192 -95 175 -67 q 235 -124 210 -124 z "},"₇":{"ha":444,"x_min":51,"x_max":417,"o":"m 51 290 l 417 290 l 417 219 l 240 -208 l 82 -208 l 244 157 l 51 157 l 51 290 z "},"₈":{"ha":472,"x_min":24,"x_max":449,"o":"m 236 -214 q 76 -174 128 -214 q 24 -62 24 -135 q 54 19 24 -14 q 119 60 85 51 q 68 94 93 68 q 43 161 43 121 q 236 296 43 296 q 428 161 428 296 q 403 94 428 121 q 353 60 379 68 q 418 19 388 51 q 449 -62 449 -14 q 397 -174 449 -133 q 236 -214 344 -214 m 236 94 q 274 108 260 94 q 289 146 289 121 q 275 184 289 169 q 236 199 261 199 q 199 184 213 199 q 185 146 185 169 q 199 108 185 122 q 236 94 214 94 m 236 -117 q 283 -99 268 -117 q 299 -51 299 -81 q 282 -9 299 -26 q 236 8 265 8 q 190 -9 207 8 q 172 -51 172 -26 q 189 -98 172 -79 q 236 -117 206 -117 z "},"₉":{"ha":481,"x_min":24,"x_max":443,"o":"m 167 -214 q 74 -197 111 -214 l 74 -99 q 157 -114 124 -114 q 245 -86 203 -114 q 292 7 288 -58 q 247 -23 274 -11 q 171 -35 221 -35 q 66 6 108 -35 q 24 119 24 46 q 72 249 24 200 q 217 297 121 297 q 390 240 338 297 q 443 63 443 182 q 364 -159 443 -104 q 167 -214 285 -214 m 222 56 q 265 69 246 56 q 292 101 283 83 q 274 178 292 151 q 226 206 256 206 q 190 182 203 206 q 176 129 176 158 q 190 74 176 93 q 222 56 204 56 z "},"⁰":{"ha":526,"x_min":33,"x_max":492,"o":"m 263 638 q 88 701 143 638 q 33 893 33 764 q 88 1085 33 1021 q 263 1149 143 1149 q 437 1085 382 1149 q 492 893 492 1022 q 437 701 492 764 q 263 638 382 638 m 263 756 q 344 893 344 756 q 321 1001 344 971 q 263 1031 297 1031 q 206 1001 231 1031 q 182 893 182 971 q 206 785 182 815 q 263 756 231 756 z "},"¹":{"ha":340,"x_min":39,"x_max":257,"o":"m 139 1140 l 257 1140 l 257 642 l 113 642 l 113 981 l 39 938 l 39 1078 l 139 1140 z "},"²":{"ha":467,"x_min":64,"x_max":417,"o":"m 417 778 l 417 643 l 64 643 l 64 729 q 133 780 75 738 q 227 869 192 822 q 263 958 263 915 q 240 1011 263 992 q 188 1031 218 1031 q 126 1019 151 1031 q 68 985 101 1007 l 68 1103 q 217 1149 143 1149 q 366 1104 319 1149 q 413 996 413 1060 q 369 878 413 936 q 256 778 325 819 l 417 778 z "},"³":{"ha":460,"x_min":61,"x_max":413,"o":"m 207 638 q 61 675 139 638 l 61 788 q 126 753 101 764 q 182 743 151 743 q 240 758 218 743 q 263 801 263 774 q 242 844 263 828 q 179 861 221 861 l 125 861 l 125 950 l 182 950 q 224 963 208 950 q 239 999 239 975 q 219 1029 239 1018 q 169 1040 199 1040 q 72 1014 128 1040 l 72 1115 q 201 1147 136 1147 q 334 1113 278 1147 q 390 1011 390 1078 q 365 946 390 974 q 317 913 340 918 q 385 866 358 899 q 413 783 413 833 q 352 674 413 710 q 207 638 292 638 z "},"⁴":{"ha":471,"x_min":36,"x_max":446,"o":"m 383 869 l 446 869 l 446 758 l 383 758 l 383 643 l 247 643 l 247 758 l 36 758 l 36 863 l 258 1142 l 383 1142 l 383 869 m 157 869 l 247 869 l 247 983 l 157 869 z "},"⁵":{"ha":450,"x_min":68,"x_max":419,"o":"m 236 636 q 79 669 149 636 l 79 786 q 135 760 104 769 q 196 750 165 750 q 251 765 233 750 q 268 810 268 779 q 248 856 268 840 q 197 871 228 871 q 128 850 165 871 l 68 903 l 94 1142 l 388 1142 l 388 1026 l 194 1026 l 189 961 q 261 965 211 965 q 372 927 324 965 q 419 807 419 889 q 369 676 419 717 q 236 636 319 636 z "},"⁶":{"ha":478,"x_min":22,"x_max":442,"o":"m 249 638 q 75 695 128 638 q 22 872 22 753 q 102 1092 22 1038 q 300 1147 182 1147 q 393 1132 358 1147 l 393 1033 q 310 1047 346 1047 q 221 1019 263 1047 q 175 926 179 992 q 294 968 211 968 q 399 928 357 968 q 442 815 442 889 q 393 686 442 735 q 249 638 344 638 m 235 728 q 276 750 261 728 q 290 806 290 772 q 275 860 290 842 q 238 879 260 879 q 201 865 218 879 q 175 833 183 851 q 192 756 175 785 q 235 728 210 728 z "},"⁷":{"ha":444,"x_min":51,"x_max":417,"o":"m 51 1140 l 417 1140 l 417 1069 l 240 642 l 82 642 l 244 1007 l 51 1007 l 51 1140 z "},"⁸":{"ha":472,"x_min":24,"x_max":449,"o":"m 236 638 q 76 677 128 638 q 24 789 24 717 q 54 870 24 838 q 119 911 85 903 q 68 946 93 919 q 43 1013 43 972 q 236 1147 43 1147 q 428 1013 428 1147 q 403 946 428 972 q 353 911 379 919 q 418 870 388 903 q 449 789 449 838 q 397 678 449 718 q 236 638 344 638 m 236 946 q 274 959 260 946 q 289 997 289 972 q 275 1035 289 1021 q 236 1050 261 1050 q 199 1035 213 1050 q 185 997 185 1021 q 199 960 185 974 q 236 946 214 946 m 236 735 q 283 753 268 735 q 299 800 299 771 q 282 842 299 825 q 236 860 265 860 q 190 842 207 860 q 172 800 172 825 q 189 753 172 772 q 236 735 206 735 z "},"⁹":{"ha":481,"x_min":24,"x_max":443,"o":"m 167 636 q 74 653 111 636 l 74 751 q 157 736 124 736 q 245 764 203 736 q 292 857 288 792 q 247 827 274 839 q 171 815 221 815 q 66 856 108 815 q 24 969 24 896 q 72 1099 24 1050 q 217 1147 121 1147 q 390 1090 338 1147 q 443 913 443 1032 q 364 691 443 746 q 167 636 285 636 m 222 906 q 265 919 246 906 q 292 951 283 933 q 274 1028 292 1001 q 226 1056 256 1056 q 190 1032 203 1056 q 176 979 176 1008 q 190 924 176 943 q 222 906 204 906 z "},"⁄":{"ha":592,"x_min":-69,"x_max":657,"o":"m -69 -31 l 508 951 l 657 951 l 79 -31 l -69 -31 z "},"½":{"ha":1024,"x_min":39,"x_max":954,"o":"m 139 933 l 257 933 l 257 435 l 113 435 l 113 774 l 39 731 l 39 871 l 139 933 m 82 -31 l 660 951 l 808 951 l 231 -31 l 82 -31 m 954 135 l 954 0 l 601 0 l 601 86 q 671 137 613 94 q 765 226 729 179 q 800 315 800 272 q 778 368 800 349 q 725 388 756 388 q 664 376 689 388 q 606 342 639 364 l 606 460 q 754 506 681 506 q 903 461 857 506 q 950 353 950 417 q 906 235 950 293 q 793 135 863 176 l 954 135 z "},"⅓":{"ha":1044,"x_min":39,"x_max":996,"o":"m 139 933 l 257 933 l 257 435 l 113 435 l 113 774 l 39 731 l 39 871 l 139 933 m 107 -31 l 685 951 l 833 951 l 256 -31 l 107 -31 m 790 -6 q 644 32 722 -6 l 644 144 q 710 110 685 121 q 765 100 735 100 q 824 115 801 100 q 846 158 846 131 q 825 201 846 185 q 763 218 804 218 l 708 218 l 708 307 l 765 307 q 807 319 792 307 q 822 356 822 332 q 802 386 822 375 q 753 397 782 397 q 656 371 711 397 l 656 472 q 785 504 719 504 q 917 469 861 504 q 974 368 974 435 q 949 303 974 331 q 900 269 924 275 q 969 223 942 256 q 996 140 996 190 q 935 31 996 67 q 790 -6 875 -6 z "},"¼":{"ha":1021,"x_min":39,"x_max":951,"o":"m 139 933 l 257 933 l 257 435 l 113 435 l 113 774 l 39 731 l 39 871 l 139 933 m 85 -31 l 663 951 l 811 951 l 233 -31 l 85 -31 m 889 226 l 951 226 l 951 115 l 889 115 l 889 0 l 753 0 l 753 115 l 542 115 l 542 219 l 764 499 l 889 499 l 889 226 m 663 226 l 753 226 l 753 340 l 663 226 z "},"¾":{"ha":1090,"x_min":61,"x_max":1021,"o":"m 207 442 q 61 479 139 442 l 61 592 q 126 558 101 568 q 182 547 151 547 q 240 563 218 547 q 263 606 263 578 q 242 649 263 632 q 179 665 221 665 l 125 665 l 125 754 l 182 754 q 224 767 208 754 q 239 803 239 779 q 219 833 239 822 q 169 844 199 844 q 72 818 128 844 l 72 919 q 201 951 136 951 q 334 917 278 951 q 390 815 390 882 q 365 750 390 778 q 317 717 340 722 q 385 670 358 703 q 413 588 413 638 q 352 478 413 514 q 207 442 292 442 m 164 -31 l 742 951 l 890 951 l 313 -31 l 164 -31 m 958 226 l 1021 226 l 1021 115 l 958 115 l 958 0 l 822 0 l 822 115 l 611 115 l 611 219 l 833 499 l 958 499 l 958 226 m 732 226 l 822 226 l 822 340 l 732 226 z "},"⅛":{"ha":1067,"x_min":39,"x_max":1008,"o":"m 139 933 l 257 933 l 257 435 l 113 435 l 113 774 l 39 731 l 39 871 l 139 933 m 86 -31 l 664 951 l 813 951 l 235 -31 l 86 -31 m 796 -6 q 635 34 688 -6 q 583 146 583 74 q 614 227 583 194 q 679 268 644 260 q 628 303 653 276 q 603 369 603 329 q 796 504 603 504 q 988 369 988 504 q 963 303 988 329 q 913 268 939 276 q 978 227 947 260 q 1008 146 1008 194 q 956 35 1008 75 q 796 -6 904 -6 m 796 303 q 834 316 819 303 q 849 354 849 329 q 835 392 849 378 q 796 407 821 407 q 758 392 772 407 q 744 354 744 378 q 759 317 744 331 q 796 303 774 303 m 796 92 q 843 110 828 92 q 858 157 858 128 q 842 199 858 182 q 796 217 825 217 q 749 199 767 217 q 732 157 732 182 q 749 110 732 129 q 796 92 765 92 z "},"⅜":{"ha":1164,"x_min":61,"x_max":1106,"o":"m 207 442 q 61 479 139 442 l 61 592 q 126 558 101 568 q 182 547 151 547 q 240 563 218 547 q 263 606 263 578 q 242 649 263 632 q 179 665 221 665 l 125 665 l 125 754 l 182 754 q 224 767 208 754 q 239 803 239 779 q 219 833 239 822 q 169 844 199 844 q 72 818 128 844 l 72 919 q 201 951 136 951 q 334 917 278 951 q 390 815 390 882 q 365 750 390 778 q 317 717 340 722 q 385 670 358 703 q 413 588 413 638 q 352 478 413 514 q 207 442 292 442 m 178 -31 l 756 951 l 904 951 l 326 -31 l 178 -31 m 893 -6 q 733 34 785 -6 q 681 146 681 74 q 711 227 681 194 q 776 268 742 260 q 725 303 750 276 q 700 369 700 329 q 893 504 700 504 q 1085 369 1085 504 q 1060 303 1085 329 q 1010 268 1036 276 q 1075 227 1044 260 q 1106 146 1106 194 q 1053 35 1106 75 q 893 -6 1001 -6 m 893 303 q 931 316 917 303 q 946 354 946 329 q 932 392 946 378 q 893 407 918 407 q 856 392 869 407 q 842 354 842 378 q 856 317 842 331 q 893 303 871 303 m 893 92 q 940 110 925 92 q 956 157 956 128 q 939 199 956 182 q 893 217 922 217 q 847 199 864 217 q 829 157 829 182 q 846 110 829 129 q 893 92 863 92 z "},"⅝":{"ha":1188,"x_min":68,"x_max":1129,"o":"m 236 419 q 79 453 149 419 l 79 569 q 135 543 104 553 q 196 533 165 533 q 251 548 233 533 q 268 593 268 563 q 248 639 268 624 q 197 654 228 654 q 128 633 165 654 l 68 686 l 94 925 l 388 925 l 388 810 l 194 810 l 189 744 q 261 749 213 749 q 372 710 324 749 q 419 590 419 672 q 369 460 419 500 q 236 419 319 419 m 207 -31 l 785 951 l 933 951 l 356 -31 l 207 -31 m 917 -6 q 756 34 808 -6 q 704 146 704 74 q 735 227 704 194 q 800 268 765 260 q 749 303 774 276 q 724 369 724 329 q 917 504 724 504 q 1108 369 1108 504 q 1084 303 1108 329 q 1033 268 1060 276 q 1099 227 1068 260 q 1129 146 1129 194 q 1077 35 1129 75 q 917 -6 1025 -6 m 917 303 q 955 316 940 303 q 969 354 969 329 q 956 392 969 378 q 917 407 942 407 q 879 392 893 407 q 865 354 865 378 q 880 317 865 331 q 917 303 894 303 m 917 92 q 964 110 949 92 q 979 157 979 128 q 963 199 979 182 q 917 217 946 217 q 870 199 888 217 q 853 157 853 182 q 869 110 853 129 q 917 92 886 92 z "}}}
